<?xml version="1.0" encoding="utf-8"?>
<!-- Generator: Adobe Illustrator 21.1.0, SVG Export Plug-In . SVG Version: 6.00 Build 0)  -->
<svg version="1.1" id="Слой_1" xmlns="http://www.w3.org/2000/svg" xmlns:xlink="http://www.w3.org/1999/xlink" x="0px" y="0px"
	 viewBox="0 0 512 512" style="enable-background:new 0 0 512 512;" xml:space="preserve">
<style type="text/css">
	.st0{fill:#8CDDFF;}
	.st1{fill:#8CDDFF;stroke:#8CDDFF;stroke-width:10;stroke-miterlimit:10;}
</style>
<title>my-telegram</title>
<path class="st0" d="M-1004.3-99c-141.4,0-256,114.6-256,256s114.6,256,256,256s256-114.6,256-256S-862.9-99-1004.3-99z
	 M-887.7,61.6l-42,198c-3.1,14-11.5,17.5-23.1,10.8l-64-47.2l-30.9,29.8c-3.4,3.4-6.3,6.3-12.9,6.3l4.5-65.1L-937.5,87
	c5.2-4.5-1.1-7.1-8-2.6l-146.5,92.3l-63.2-19.7c-13.7-4.4-14-13.7,2.9-20.3l246.8-95.2C-894,37.4-884,44.3-887.7,61.6L-887.7,61.6z"
	/>
<path class="st1" d="M243.4,6c1.8,0.3,3.6,0.7,5.4,0.8c25.6,2,45.8,13.8,61.7,33.3c6,7.3,11,15.3,14.9,23.9c0.8,1.7,1.8,2.7,3.6,3.3
	c4.9,1.5,8.9,4.5,11.6,8.8c4.3,6.7,8.4,13.4,12.3,20.3c2.9,5.1,2.8,10.7,1.5,16.2c-1.4,6.1-3.1,12.1-4.6,18.1
	c-0.1,0.5-0.2,0.9-0.4,1.5c0.6,0.4,1.1,0.9,1.7,1.3c7.4,5.2,11.4,12.5,12.3,21.3c1.2,11.8-1.3,23.1-5.7,34
	c-4.6,11.2-10.8,21.3-19.8,29.6c-1.5,1.4-2.6,3.2-3.4,5.1c-6,13.5-13.3,26.3-22.7,37.8c-5.9,7.2-12.8,13.5-19.8,19.6
	c-1.1,1-2.2,2-3.4,3.1c0.4,0.7,0.6,1.4,1,2c2.3,3.4,4.6,6.8,6.9,10.2c2.4,3.6,5.8,5.8,9.9,7.1c9.7,3,19.4,5.9,29,9
	c22.9,7.4,45.8,14.9,68.2,24c11,4.5,21.4,10,31.4,16.3c3.2,2,5.8,4.7,8,7.8c2.1,3,2.2,6.2,0.3,9.4c-2.3,4-7.1,6.3-11.4,5.1
	c-1.3-0.4-2.8-1-3.7-2c-5.7-5.3-12.4-9.2-19.5-12.4c-18-8-36.4-15.1-55.1-21.2c-14.6-4.8-29.4-9.3-44-14.1c-2.8-0.9-5-0.4-7.3,1.3
	c-20.8,15.1-41.7,30.1-62.6,45.2c-1.4,1-2.7,1.9-4.2,2.7c-3.6,2-7.2,1.7-10.6-0.6c-0.9-0.6-1.8-1.4-2.6-2.1
	c-17.8-15.9-35.6-31.8-53.4-47.7c-0.3-0.3-0.6-0.5-0.9-0.8c-1.4-1.5-3-1.7-5-1.1c-7.4,2.5-14.9,4.8-22.3,7.3
	c-17.9,5.9-35.8,11.7-53.5,18c-10.5,3.7-20.8,8.2-31,12.7c-5.5,2.4-10.7,5.7-16,8.6c-1.3,0.7-1.5,1.7-1.6,3
	c-0.3,4.7-0.6,9.5-0.9,14.2c-0.9,14-1.9,28-2.8,42.1c-0.8,12.8-1.4,25.7-2.1,38.6c-0.3,5.9-0.5,11.8-0.7,17.8c0,0.5,0,1.1,0,1.8
	c0.5,0.1,0.9,0.3,1.4,0.3c12.3,0.2,24.6,0.7,36.9,0.4c20.2-0.6,40.3-0.4,60.5-0.4c49.4-0.1,98.7-0.1,148.1-0.1
	c27.8,0,55.5-0.1,83.3-0.1c2.2,0,4.5,0.1,6.7,0.6c4.4,0.9,6.9,3.8,7.5,8.2c0.5,4-1.4,7.7-5,9.7c-0.9,0.5-1.7,1.1-2.6,1.6
	c-116.8,0-233.6,0-350.4,0c-1.1-0.6-2.2-1.2-3.3-1.8c-2.4-1.3-4.1-3.2-4.6-6c-0.1-0.8-0.5-1.5-0.8-2.2c0-0.3,0-0.6,0-0.9
	c0.3-1.9,0.7-3.7,0.9-5.6c0.3-4,0.5-8,0.7-12.1c0.7-11.2,1.5-22.4,2.2-33.6c0.7-11.2,1.4-22.4,2.1-33.6c0.9-14.4,1.9-28.8,2.7-43.3
	c0.3-4.9,2.2-8.7,5.9-11.9c6.7-5.5,14.1-9.8,22.1-13.1C69,332.4,92,323.6,115.5,316c12.2-4,24.6-7.6,36.9-11.3
	c10.8-3.2,17.4-10.7,21.6-20.7c-0.6-0.6-1.2-1.2-1.8-1.7c-2.2-2-4.4-3.9-6.6-5.9c-12.9-12-23.8-25.6-31.4-41.5c-2-4.1-4-8.3-6-12.4
	c-0.9-1.8-2-3.4-3.5-4.7c-4.8-4.3-8.8-9.3-12.3-14.8c-5.9-9.4-9.6-19.7-12.1-30.5c-1.6-7-1.9-14.1-0.4-21.1c1.6-7.1,4.9-13,11-17.2
	c4.1-2.8,3.6-2.1,2.6-6.9c-2.4-11.1-3.6-22.3-1.7-33.6c3.6-21.2,14.6-37.1,34.1-46.9c5.1-2.6,10.6-4.4,15.9-6.6
	c0.7-0.3,1.4-0.6,2.5-1c-0.9-0.4-1.5-0.7-2-0.9c-3.9-1.9-5.8-5.1-5.9-9.3c-0.1-1.9,0.7-3.3,2.2-4.5c0.5-0.4,1.1-0.9,1.3-1.5
	c0.8-1.9,2.2-2.8,4.1-3.2c1.1-0.2,2.1-0.7,3.2-1c1.3-0.4,2.5-1,3.8-1.3c2.3-0.5,4.7-0.9,7.1-1.3c2-0.3,3.8-1.1,5.3-2.6
	c2.2-2.2,4.9-3.6,8-4c5.8-0.7,11.6-1.6,17.4-2c7.2-0.5,14.4-0.6,21.6-0.9c1.2-0.1,2.3-0.3,3.5-0.5C237,6,240.2,6,243.4,6z
	 M136,143.8c-2.2,2.9-5,4.1-8.3,4.5c-0.5,0.1-0.9,0.2-1.4,0.3c-2.9,0.7-4.7,2.5-5.7,5.2c-1.2,3.3-1.6,6.6-0.9,10
	c1,4.6,1.9,9.1,3.2,13.6c3.4,11.2,9.3,20.9,18.7,28.3c2,1.5,3,3.6,3.9,5.9c6.4,16.7,16,31.4,28.1,44.6c7.4,8.1,15.9,14.9,25.9,19.6
	c6.6,3.2,13.6,5.1,20.6,7c4.8,1.4,9.8,1.6,14.7,1.2c12.8-1.1,24.5-5.2,35.3-12c12.5-7.9,22.4-18.3,30.8-30.1
	c6.2-8.7,11.1-18.1,15.2-27.9c1.6-3.8,3.8-7,6.8-9.9c2.5-2.4,4.9-5,7.1-7.7c9.1-11.3,13-24.5,13-38.8c0-5.2-2.1-7.6-7.1-9
	c-1.2-0.3-2.5-0.6-3.7-1.1c-3.8-1.6-6-4.4-6.2-8.5c-0.1-1.5,0.3-3,0.7-4.4c2.1-7.8,4.3-15.5,6.6-23.3c1.2-4.2,1-8.1-1.5-11.8
	c-2.5-3.7-4.9-7.4-7.3-11.1c-1-1.6-2.4-2.3-4.4-2.5c-5.1-0.3-8.7-2.9-10.9-7.4c-0.4-0.8-0.7-1.6-1.1-2.4c-1.6-3.4-3.1-6.8-4.8-10
	c-4.6-8.7-10.4-16.5-17.7-23.1c-11.8-10.7-25.8-16.1-41.8-16.6c-3.9-0.1-7.8,0-11.8,0c-0.6,3.4-1.8,6.3-5.2,7.7
	c0.2,0.4,0.3,0.6,0.4,0.8c4.5,7.3,0.5,15.1-8.1,15.7c-3.1,0.2-6.2,0.3-9.3,0.5c-11,0.6-22,1.8-32.7,4.7c-9.1,2.5-17.9,5.7-25.9,11
	c-8.6,5.6-14.5,13.3-17.6,23c-2.9,9.1-3,18.4-1.2,27.6c1.4,7.3,3.6,14.4,5.5,21.9c0.4-0.8,0.7-1.5,1.1-2.1
	c4.4-7.4,10.7-11.5,19.6-11.4c2.5,0,5-0.1,7.4-0.1c28.6,0,57.1-0.1,85.7-0.1c10.1,0,20.2-0.1,30.2-0.1c6.8,0,13.6-0.3,20.4-0.1
	c14.2,0.4,24.7,12.9,22.4,26.8c-1.7,10-4,20-5.8,30c-1.5,8.4-9.8,16.8-20.5,16.6c-13.4-0.1-26.9,0-40.3,0c-1.5,0-3,0-4.6,0
	c-10.2-0.4-17.5-6.1-20.3-15.8c-0.2-0.5-0.3-1.1-0.4-1.6c-0.7-3.1-1.4-6.3-2.1-9.4c-0.7,1.2-0.9,2.5-1.2,3.7
	c-0.4,2.1-0.7,4.2-1.3,6.3c-3,10.7-10.9,16.7-22.1,16.8c-14.1,0.1-28.2,0-42.2,0.2c-10.6,0.1-20.4-8.1-22.2-18.3
	c-0.7-3.8-1.4-7.6-2.2-11.4c-1-5.4-2.1-10.7-2.9-16.1C136,150.2,136.2,147.1,136,143.8z M182.2,308.9c16.4,14.7,32.7,29.2,49,43.8
	c18.1-13,35.9-25.9,53.9-39c-6.1-5.8-10.2-12.7-14.3-19.6c-12.5,6.3-25.6,9.8-39.4,9.9c-13.9,0-27-3.6-39.4-9.7
	C188.7,299.3,185.6,304,182.2,308.9z M246,145.4c0.5,1.9,1,3.5,1.3,5.1c1.6,8,3.2,15.9,4.7,23.9c0.9,4.6,0.9,4.7,5.7,4.7
	c12.1,0,24.1,0,36.2,0.1c0.9,0,1.8-0.1,2.6-0.1c1.4,0,2.2-0.7,2.6-2c0.1-0.5,0.3-1.1,0.4-1.6c1.6-8.5,3.1-17.1,4.7-25.6
	c0.1-0.5,0.2-1.1,0.2-1.6c0-1.7-0.3-2.1-1.9-2.5c-1.2-0.2-2.4-0.3-3.6-0.3c-16.8,0-33.6,0-50.4,0C247.7,145.4,246.9,145.4,246,145.4
	z M214.6,145.6c-0.3-0.1-0.5-0.1-0.6-0.1c-17.7,0-35.5,0-53.2,0.1c-0.7,0-1.4,0.1-2.1,0.3c-1.8,0.4-2.2,1-2.2,2.8
	c0,0.5,0.1,0.9,0.1,1.4c1.6,8.4,3.2,16.9,4.8,25.3c0.7,3.8,0.8,3.8,4.6,3.8c12.5,0,25.1,0,37.6,0c0.7,0,1.4,0,2.2-0.1
	c1.4,0,2.2-0.7,2.5-2.1c0.1-0.6,0.3-1.2,0.4-1.8c1.2-6.9,2.4-13.8,3.7-20.7C213.1,151.5,213.9,148.6,214.6,145.6z"/>
<path class="st1" d="M504,435.9c-0.2,0.5-0.4,1-0.5,1.5c-1.4,6.4-5,11-11.1,13.6c-9,3.8-18,7.7-27.1,11.5c-1.7,0.7-3.6,1.3-5.5,1.6
	c-4.2,0.7-8-1.8-9.2-5.8c-1.3-4.1,0.3-8.1,4.3-9.9c8.9-4,17.9-7.9,26.9-11.8c0.8-0.3,1.6-0.7,2.8-1.3c-1.1-0.5-1.8-0.9-2.5-1.2
	c-8.1-3.5-16.1-6.9-24.2-10.4c-1.3-0.6-2.6-1.2-3.8-2c-3.2-2.2-4.5-6.2-3.2-9.9c0.7-2,2-3.4,4-4.2c3.3-1.4,6.6-1.4,10,0.1
	c8.5,3.7,16.9,7.4,25.4,11.2c2,0.9,3.9,1.9,5.8,2.8c4.2,2.1,6.5,5.6,7.4,10.2c0.1,0.6,0.4,1.2,0.6,1.7
	C504,434.3,504,435.1,504,435.9z"/>
<path class="st1" d="M9.6,496c0.3,0.7,0.6,1.4,0.8,2.2c0.5,2.8,2.1,4.6,4.6,6c1.1,0.6,2.2,1.2,3.3,1.8c-2.9,0-5.8,0-8.6,0
	C9.6,502.7,9.6,499.4,9.6,496z"/>
<path class="st1" d="M435.1,397.8c-0.2,0.8-0.5,2.3-1,3.8c-4.1,11.9-8.2,23.7-12.4,35.6c-4.7,13.4-9.4,26.8-14.2,40.2
	c-0.7,2-1.8,4.1-3.1,5.8c-2.3,3-6.4,3.8-10,2.3c-3.7-1.6-5.7-4.8-5.1-8.7c0.4-2.6,1.2-5.2,2.1-7.8c8.4-23.7,16.8-47.3,25.2-71
	c1.1-3.2,3-5.7,5.4-8c1-1,2.4-1.2,3.7-1.4C431,388.2,435.2,391.9,435.1,397.8z"/>
<path class="st1" d="M339.2,435.1c1.1,0.5,1.8,0.8,2.5,1.1c8.3,3.5,16.6,7,24.9,10.5c1.3,0.6,2.6,1.2,3.8,2
	c3.6,2.5,4.6,6.6,2.7,10.5c-1.9,3.8-5.9,5.7-9.9,4.6c-1.4-0.4-2.8-0.8-4.1-1.4c-9.6-4.2-19-8.7-28.7-12.5
	c-11.2-4.3-13.3-21.2-3.2-28.3c1.4-1,2.8-1.8,4.4-2.4c9.2-3.9,18.3-7.8,27.5-11.6c1.6-0.7,3.3-1.1,5-1.4c4-0.6,7.7,1.7,9.1,5.4
	c1.4,3.7,0,7.5-3.4,9.7c-0.8,0.5-1.7,0.9-2.6,1.3c-8.4,3.8-16.9,7.5-25.4,11.2C341,434.2,340.2,434.6,339.2,435.1z"/>
</svg>
