<?xml version="1.0" encoding="utf-8"?>
<!-- Generator: Adobe Illustrator 21.1.0, SVG Export Plug-In . SVG Version: 6.00 Build 0)  -->
<svg version="1.1" id="Слой_1" xmlns="http://www.w3.org/2000/svg" xmlns:xlink="http://www.w3.org/1999/xlink" x="0px" y="0px"
	 viewBox="0 0 512 490.7" style="enable-background:new 0 0 512 490.7;" xml:space="preserve">
<style type="text/css">
	.st0{clip-path:url(#SVGID_2_);}
	.st1{fill:#8CDDFF;}
</style>
<title>my-github</title>
<g>
	<defs>
		<rect id="SVGID_1_" y="-10.7" width="512" height="512"/>
	</defs>
	<clipPath id="SVGID_2_">
		<use xlink:href="#SVGID_1_"  style="overflow:visible;"/>
	</clipPath>
	<g class="st0">
		<path class="st1" d="M256,0C114.6,0,0,112.6,0,251.6C0,362.7,73.3,457,175,490.2c12.8,2.4,17.5-5.4,17.5-12.1
			c0-6-0.2-21.8-0.3-42.8C121,450.5,106,401.6,106,401.6c-11.7-29-28.5-36.8-28.5-36.8c-23.2-15.6,1.8-15.3,1.8-15.3
			c25.7,1.8,39.2,25.9,39.2,25.9c22.8,38.5,59.9,27.4,74.6,20.9c2.3-16.3,8.9-27.4,16.2-33.6c-56.9-6.3-116.6-27.9-116.6-124.3
			c0-27.5,9.9-49.9,26.3-67.5c-2.9-6.4-11.5-31.9,2.2-66.6c0,0,21.4-6.7,70.4,25.8c41.9-11.3,86.1-11.3,128,0
			c48.6-32.5,70.1-25.8,70.1-25.8c13.8,34.7,5.1,60.2,2.6,66.6c16.3,17.6,26.2,40,26.2,67.5c0,96.6-59.8,117.9-116.8,124.1
			c9,7.5,17.3,23,17.3,46.5c0,33.7-0.3,60.7-0.3,68.9c0,6.6,4.5,14.5,17.6,12C438.7,456.9,512,362.6,512,251.6
			C512,112.6,397.4,0,256,0z"/>
	</g>
</g>
</svg>
