<?xml version="1.0" encoding="utf-8"?>
<!-- Generator: Adobe Illustrator 21.1.0, SVG Export Plug-In . SVG Version: 6.00 Build 0)  -->
<svg version="1.1" id="Слой_1" xmlns="http://www.w3.org/2000/svg" xmlns:xlink="http://www.w3.org/1999/xlink" x="0px" y="0px"
	 viewBox="0 0 512 512" style="enable-background:new 0 0 512 512;" xml:space="preserve">
<style type="text/css">
	.st0{fill:#ECB830;}
	.st1{fill:#8CDDFF;}
</style>
<title>my-mail</title>
<path class="st0" d="M257,210c-24.9,0-45,20.1-45,45s20.1,45,45,45s45-20.1,45-45S281.9,210,257,210L257,210z"/>
<path class="st1" d="M255,0C114.4,0,0,114.4,0,255s114.4,257,255,257s257-116.4,257-257S395.6,0,255,0z M362,330
	c-19.5,0-37.8-9.6-49-25.6c-27.3,31.2-74.6,34.4-105.8,7.1s-34.4-74.6-7.1-105.8c26-29.7,70.5-34.2,101.9-10.3V195
	c0-8.3,6.7-15,15-15s15,6.7,15,15v75c0,16.6,13.4,30,30,30s30-13.4,30-30c0-100.4-66.4-150-135-150c-74.4,0-135,60.6-135,135
	s60.6,135,135,135c29.7,0.1,58.6-9.7,82.1-27.8c15.8-12.1,33.9,11.8,18.3,23.8c-28.7,22.2-64,34.1-100.3,34c-91,0-165-74-165-165
	S166,90,257,90c82.9,0,165,61.1,165,180C422,303.1,395.1,330,362,330z"/>
<circle class="st1" cx="257" cy="255" r="45"/>
</svg>
