<?xml version="1.0" encoding="utf-8"?>
<!-- Generator: Adobe Illustrator 21.1.0, SVG Export Plug-In . SVG Version: 6.00 Build 0)  -->
<svg version="1.1" id="Слой_1" xmlns="http://www.w3.org/2000/svg" xmlns:xlink="http://www.w3.org/1999/xlink" x="0px" y="0px"
	 viewBox="0 0 512 512" style="enable-background:new 0 0 512 512;" xml:space="preserve">
<style type="text/css">
	.st0{fill:#8CDDFF;stroke:#8CDDFF;stroke-width:10;stroke-miterlimit:10;}
</style>
<title>my-telegram</title>
<path class="st0" d="M255.2,72.6c1.6,0.8,3.2,1.9,5,2.2c18.3,3.1,35.3,9.2,48.5,23c10.7,11.2,14.7,25.1,13.4,40.3
	c-2.7,30.9-18.7,54.4-42,73.8c-18.1,15.1-39,23.6-61.7,28.9c-14.3,3.3-28.8,5.3-43.4,4.7c-15-0.6-29.2-4.1-41.3-13.6
	c-5.4-4.2-9.5-9.4-11.2-16c-0.4-1.4,0.8-3.2,1.3-4.8c1.4,0.5,3.3,0.5,4.2,1.5c10.6,11.3,24.2,15.1,39.1,15.2
	c27.9,0.3,53.5-7.7,77.4-21.7c17.1-10.1,31.9-23,41.8-40.4c4.3-7.5,7.6-16.3,8.7-24.8c2-15.5-6.2-26.5-21.2-31.9
	c-16.6-5.9-33.7-7.4-51-4.5c-12.2,2-24.8,3.3-36.5,7c-15,4.8-29.9,10.7-43.9,17.9c-17.6,9.1-35,19-51.1,30.5
	c-17.7,12.6-33.9,27.5-42.2,48.7c-7.4,19-5.1,36.7,8,52.6c11.1,13.4,25.1,23.6,38.7,34.4c8.1,6.4,15.8,13.2,23.4,20.2
	c2.9,2.7,4.9,3.4,8.6,1.3c13.2-7.5,26.7-14.6,40-22c2.7-1.5,5.1-3.6,7.2-5.9c10-10.8,20.2-21.3,34.8-25.6
	c11.4-3.3,21.1-0.2,23.1,13.4c0.7,5.2,0.7,10.4,1,15.9c3.9-1.7,8.2-2.4,12.4,0.6c3.1,2.2,4.1,4.7,3.1,8.5
	c-3.8,14.7-7.5,29.4-11,44.1c-1,4.3-1.4,8.8-1.8,13.3c-0.2,1.5,0.3,3,0.5,4.5c0.5,0.1,1,0.2,1.6,0.3c4-8.2,8.2-16.3,12-24.6
	c7.6-16.7,15.3-33.3,22.4-50.2c5.4-12.8,9.8-25.9,14.8-38.9c0.7-1.7,2.2-3.8,3.7-4.3c7.7-2.6,15.6-4.4,23.7-1.4
	c4.3,1.6,5.2,4.2,3.5,8.2c-3.8,9.2-5.7,18.6-5.1,28.6c0.6,8.5,3.1,16.1,7.3,24.4c1.7-2,3.3-3.4,4.3-5.2c8.5-16,17.2-32,25.3-48.3
	c2.4-4.8,3.4-10.4,4.5-15.7c0.8-4,3.2-6.3,6.5-6.6c6.9-0.7,13.9-0.9,20.8-0.4c4.6,0.3,6,3.6,4.2,8c-3.9,9.5-5.7,19.3-5.2,29.6
	c0.5,10.7,5.4,19.6,10.2,28.7c0.4,0.8,3.3,1.1,4.6,0.6c14.8-6.5,30.3-9.8,46.5-8.8c20.7,1.3,39.5,7.5,53,24.2
	c4.1,5.1,6.4,11.8,9.6,17.7c0.6,1.1,1.5,1.9,2.2,2.9c0,6,0,12,0,18c-0.8,1.2-1.7,2.4-2.3,3.7c-4,9.1-10.6,15.6-19.7,19.3
	c-1.7,0.7-4.2-0.3-6.3-0.6c1.3-1.5,2.3-3.2,3.8-4.4c7.4-5.8,13.7-12.2,13.4-22.5c-0.4-13.9-8.2-23.4-19.4-30.4
	c-11-6.8-23.1-9.4-35.9-10.3c-13.3-1-26.1,0.3-38.8,4.2c-4.2,1.3-3.8,3.5-2.7,6.3c5.7,14.8,2.4,27.4-8.8,38.4
	c-8.6,8.5-19.1,13.7-30.4,17c-9.2,2.7-17.2-2.1-16.8-11.8c0.3-5.4,1.2-11,3.2-15.9c5.3-13,14.4-23.3,24.6-31.9
	c-4.5-12.7-8.9-25-13.4-37.5c-0.5,0.6-1,1-1.3,1.6c-8.7,14.6-17.4,29.2-25.9,44c-0.9,1.6-0.9,4.5-0.2,6.3c4.8,12,6.6,24,0.5,36
	c-4.7,9.3-12.5,15.4-21.9,19.5c-10.1,4.5-20.4,8-31.6,6c-7.2-1.3-9.7-6.8-6.4-13.4c0.8-1.6,1.9-3.1,3-4.5
	c9.2-11.3,18.6-22.6,27.8-33.9c2.9-3.6,4.2-6.9,1.8-12.1c-4.3-9.4-7-19.5-10.4-29.3c-0.5-1.5-1.7-2.8-3.1-5c-1.8,4.5-3,7.8-4.5,11.1
	c-6.1,13.6-11.6,27.5-18.5,40.7c-8.1,15.5-16.9,30.7-26.2,45.6c-3.3,5.3-8.7,9.5-15.9,8.1c-6-1.2-9-6-10.1-11.2
	c-1.2-5.9-0.8-12.2-1.1-18.3c-0.1-1.6,0-3.3,0-4.9c-3.4,5-5.3,10.4-8.1,15.3c-4.1,7.5-8,15.3-13.4,21.8c-5.9,7.1-16.8,6.6-23.1-0.1
	c-10.2-10.7-13.8-24.2-14.8-38.5c-0.8-11,0.3-21.9,3.6-32.5c0.8-2.7,1.2-5.6,2.1-9.6c-7.8,4.6-14.4,8.9-21.4,12.5
	c-4.4,2.3-6,4.6-3.1,9.3c1.3,2.2,1.8,5,2.3,7.6c3.1,15.8,2.1,31.3-3.4,46.5c-9,25-26.2,41.7-50.9,50.9c-3.5,1.3-6.9,2.7-10.3,4
	c-8.7,0-17.3,0-26,0c-1.4-0.7-2.7-1.6-4.1-2.2c-2-0.9-4.3-1.1-5.9-2.4c-8.3-6.2-12.8-14.9-13.8-24.9c-1.5-16.1,3.8-30.4,14.7-42.4
	c17.3-18.9,39.3-31.4,61.5-43.4c4.6-2.5,4.9-2.9,0.6-6.1c-18-13.3-36.3-26.2-54-39.8c-13.8-10.6-25.8-23-33.2-39.2
	c-1.8-4-3.9-7.8-5.8-11.7c0-7,0-14,0-21c1-2.4,2-4.7,2.9-7.1c6.2-17.3,16.5-32.1,29-45.4c11.4-12.2,23.7-23.4,38-32.1
	c15.9-9.7,31.9-19.3,48.5-27.9c12.5-6.5,25.7-12.2,39.1-16.6c13.7-4.5,28.1-7.1,42.1-10.6c2.2-0.5,4.3-1.5,6.5-2.2
	C227.2,72.6,241.2,72.6,255.2,72.6z M116.9,340.3c-5,3.1-9.2,5.6-13.3,8.3c-14.9,9.9-30.3,19.4-40.9,34.3c-5.8,8.2-9,17.3-7.6,27.5
	c0.6,4.6,3.8,8.5,8.5,8.3c6-0.3,12.3-1,17.9-3.1c12.1-4.7,21.1-13.5,28.2-24.3C119.6,375.8,122,359.1,116.9,340.3z M180.6,349.5
	c0,4.2-0.6,8.4,0.2,12.4c0.6,3.1,2.3,7.4,4.7,8.4c3.9,1.6,4.9-3.3,6.7-5.8c0.4-0.5,0.6-1.2,0.9-1.8c10.5-22.6,19.8-45.7,25.6-70
	c0.7-3,0.2-6.3,0.2-9.5c-3.3,0.6-6.6,1-9.8,1.9c-1.2,0.3-2.2,1.5-3.1,2.4C189.1,304.7,181.1,325.6,180.6,349.5z M379.1,321.9
	c-6.5,4.3-13.2,13.6-16.9,24.4c-0.9,2.6-0.9,5.6-1.3,8.4c2.8-1.1,5.8-1.8,8.2-3.4C379.7,343.9,382.6,333.2,379.1,321.9z M289,371.8
	c9.9-0.3,25.2-17.7,22.4-25.3C304,354.8,296.7,363,289,371.8z"/>
</svg>
