<?xml version="1.0" encoding="utf-8"?>
<!-- Generator: Adobe Illustrator 21.1.0, SVG Export Plug-In . SVG Version: 6.00 Build 0)  -->
<svg version="1.1" id="Слой_1" xmlns="http://www.w3.org/2000/svg" xmlns:xlink="http://www.w3.org/1999/xlink" x="0px" y="0px"
	 viewBox="0 0 512 512" style="enable-background:new 0 0 512 512;" xml:space="preserve">
<style type="text/css">
	.st0{fill:#8CDDFF;stroke:#8CDDFF;stroke-width:12;stroke-miterlimit:10;}
</style>
<title>my-telegram</title>
<path class="st0" d="M400,111.4c-3.4,2.5-6.8,5.2-10.2,7.7c-4.5,3.3-9,6.7-13.8,9.6c-5.8,3.5-9.3,2.9-14.3-1.7
	c-8.5-7.7-17.6-14.5-27.5-20.3c-9.6-5.7-10.4-7.7-7.1-18.3c2.1-7,4.5-13.9,6.8-20.8c0.4-1.1,0.7-2.3,1.1-3.8
	c-16.7-5.4-33.2-10.8-50-16.3c-1.8,5.3-3.4,10.4-5.1,15.6c-1.4,4.2-2.7,8.4-4.1,12.6c-1.8,5.2-5.8,8.1-11.2,7.5
	c-13.3-1.5-26.6-1.5-39.9,0c-4.7,0.5-8.2-1.5-10-5.6c-2.4-5.6-4.4-11.4-6.3-17.1c-1.4-4.1-2.6-8.4-4-12.9
	c-16.8,5.4-33.3,10.8-50.2,16.3c1.4,4.2,2.7,8.3,4,12.3c1.7,5.4,3.6,10.8,5.2,16.3c1.6,5.5-0.2,9.7-5.1,12.5
	c-10.4,6-20.1,12.8-29,20.8c-7.8,6.9-10.3,7-19,1c-7.1-4.9-14-10.1-21.4-15.4c-10.3,14.2-20.5,28.3-31,42.6
	c5.4,4,10.7,7.8,15.9,11.6c2.7,1.9,5.4,3.9,8,5.8c4.5,3.4,6,8.2,3.6,13.3c-5.4,11.6-9.2,23.7-11.9,36.2c-1.6,7.5-4.1,9.5-11.9,9.7
	c-8.3,0.2-16.6,0.1-25,0.1c-1.1,0-2.2,0-3.5,0c0,17.6,0,35,0,52.7c1.1,0,2.1,0.1,3.2,0.1c7.4,0,14.8,0,22.2,0c1.6,0,3.2,0.1,4.8,0.3
	c6.4,0.8,8.5,2.4,9.9,8.7c2.9,12.9,6.9,25.5,12.3,37.6c2.1,4.6,0.5,9.4-3.6,12.5c-7.1,5.2-14.2,10.4-21.4,15.6
	c-0.8,0.6-1.6,1.2-2.7,2.1c10.3,14.2,20.6,28.3,31,42.6c5.6-4.1,10.9-8,16.2-11.9c2.6-1.9,5.2-3.8,7.9-5.5c5.9-3.7,8.5-3.4,14,1.1
	c6.8,5.5,13.6,10.9,20.6,16.1c3.1,2.3,6.6,4.2,10,6.1c5.5,3,7.5,7.6,5.6,13.6c-2.6,8.3-5.4,16.6-8,24.9c-0.3,0.9-0.5,1.9-0.9,3.1
	c16.7,5.4,33.2,10.8,50.1,16.3c1.6-4.9,3-9.6,4.6-14.2c1.7-5.1,3.5-10.2,5.5-15.3c1.7-4.4,5.1-6.1,9.8-5.8c9,0.4,18,0.7,27,0.8
	c4,0,8-0.6,12-1.1c6.6-0.8,10.8,1.8,12.9,8.1c3,9,5.9,18.1,9,27.5c16.7-5.4,33.2-10.8,50.1-16.3c-0.9-2.9-1.8-5.6-2.7-8.4
	c-2-6.3-4.2-12.5-5.9-18.9c-2.2-7.8-1.2-10.4,5.7-14.5c11.1-6.6,21.5-14,30.9-22.7c3.6-3.3,7.5-3.6,12.2-0.8
	c4.7,2.8,9.1,6.1,13.6,9.3c3.8,2.7,7.5,5.6,11.5,8.5c2.4-3.2,4.5-6.2,6.7-9.2c6.7-9.1,13.4-18.2,20.1-27.3c3.2-4.3,9.3-5.3,13.7-2.3
	c4.5,3,6.1,8.9,3.3,13.5c-2.3,3.8-4.9,7.3-7.5,10.9c-7.7,10.6-15.4,21.3-23.1,31.9c-1,1.4-2.1,2.7-3.2,4c-3.8,4.2-8.4,5.2-13.2,2
	c-8.1-5.5-16-11.3-23.9-17.2c-2.2-1.7-3.5-1.4-5.6,0.2c-5.7,4.4-11.6,8.6-17.5,12.7c-1.5,1-1.9,1.8-1.3,3.6
	c2.9,8.4,5.6,16.9,8.4,25.4c0.4,1.2,0.7,2.5,1,3.8c1.1,5.5-0.9,9.9-6.2,11.8c-9.8,3.6-19.7,6.8-29.6,10.1
	c-13.1,4.3-26.3,8.5-39.5,12.7c-7.7,2.5-12.9-0.1-15.3-7.8c-2.8-8.9-5.8-17.7-8.6-26.6c-0.5-1.7-1.3-2.3-3.2-2.2
	c-7.6,0.1-15.2,0.1-22.8,0c-1.9,0-2.6,0.5-3.1,2.3c-2.9,9.1-5.8,18.1-8.8,27.2c-2.3,7-7.3,9.7-14.3,7.4
	c-23.1-7.4-46.1-14.9-69.2-22.4c-5.9-1.9-8.6-7.5-6.7-13.5c2.8-8.9,5.6-17.8,8.7-26.6c0.9-2.7,0.6-4.1-1.9-5.8
	c-5.9-3.9-11.6-8.2-17.3-12.5c-1.6-1.2-2.6-1.2-4.1-0.1c-8.1,5.9-16.1,11.9-24.4,17.6c-4.1,2.9-9.2,2.3-12.7-1
	c-0.8-0.7-1.5-1.6-2.1-2.5c-10.4-14.3-20.8-28.7-31.2-43c-3.9-5.3-7.7-10.7-11.5-16.1c-3.1-4.3-2.6-9.6,1.7-13.2
	c5.8-4.7,11.8-8.9,17.8-13.3c2.3-1.7,4.7-3.5,7.1-5.1c1.4-0.9,1.7-1.8,1.1-3.5c-2.5-7.2-4.8-14.4-7.1-21.7c-0.6-1.9-1.5-2.4-3.4-2.4
	c-9.3,0.1-18.6,0-28,0c-8,0-11.9-4-11.9-12c0-23.5,0-46.9,0-70.4c0-8.3,3.8-12,12.2-12c9.2,0,18.4-0.1,27.7,0c2.1,0,2.9-0.6,3.5-2.6
	c2.1-7.1,4.4-14.1,6.8-21.1c0.7-2,0.3-3-1.3-4.2c-7.6-5.4-15-11.1-22.7-16.3c-5.5-3.7-7.1-10.6-2.6-16.6c14-18.9,27.7-38,41.5-57.1
	c4.8-6.7,10.3-7.5,17-2.7c7.5,5.4,14.9,10.8,22.3,16.3c1.6,1.2,2.6,1.3,4.4,0c5.8-4.5,11.7-8.8,17.7-12.9c2-1.3,2.3-2.4,1.5-4.6
	c-2.7-7.7-5.2-15.4-7.7-23.1c-0.7-2-1.2-4-1.6-6.1c-0.9-5.2,1.1-9.2,6.1-11c7.2-2.7,14.5-5.2,21.9-7.6c15.7-5.1,31.4-10.1,47.1-15.2
	c8.1-2.6,13-0.2,15.7,8c2.9,8.8,5.7,17.5,8.5,26.3c0.5,1.7,1.3,2.3,3.2,2.2c7.6-0.1,15.2-0.1,22.8,0c1.9,0,2.6-0.5,3.2-2.3
	c2.8-9,5.8-17.9,8.7-26.9c2.3-7.2,7.5-10,14.7-7.7c22.6,7.3,45.2,14.6,67.7,22c7.4,2.4,9.9,7.6,7.5,15c-2.9,8.9-5.7,17.7-8.7,26.6
	c-0.7,2-0.2,2.9,1.5,4.1c6,4.1,12,8.4,17.8,12.8c1.7,1.3,2.8,1.6,4.6,0.2c6.2-4.7,12.6-9.3,18.9-13.9c1.8-1.3,3.6-2.5,5.5-3.7
	c4.8-2.9,9.7-2.4,13.1,2c6.6,8.7,13,17.6,19.4,26.4c4,5.5,8.1,10.9,12,16.5c2.3,3.3,4.6,6.6,3.5,11c-1,4.1-3.7,6.7-7.6,7.7
	c-3.5,0.9-7,0.5-9.5-2.7c-2.6-3.4-5.5-6.6-8-10.1c-6.4-8.8-12.8-17.7-19.1-26.6C400.8,111.9,400.5,111.8,400,111.4z"/>
<path class="st0" d="M98.8,262.3c0.5-60,31.2-114.8,89.5-139.2c31.7-13.3,64.3-15.1,97.4-5.6c16.9,4.9,32.4,12.8,46.4,23.4
	c3.5,2.7,5.2,6.2,4.1,10.5c-1.1,4.5-4.1,7.5-8.8,8.4c-3.2,0.6-5.9-0.8-8.3-2.6c-8.2-6.2-17.1-11.1-26.5-15.2
	c-11.2-4.8-22.9-7.6-35-9c-15.2-1.8-30.3-0.7-44.9,3.5c-32,9.1-57.3,27.6-74.7,56.2c-8.5,14-13.8,29.3-16.4,45.5
	c-8.4,52.5,19.4,108,70.8,131.6c12.1,5.6,24.8,9.4,38,10.7c9.1,0.9,18.4,0.4,27.5,0c11.3-0.5,22-3.9,32.5-7.9
	c10.4-4,19.9-9.7,28.9-16.3c6.3-4.6,13.6-2.5,16.4,4.6c1.8,4.4,0.5,8.7-3.7,11.9c-11.6,8.7-24.1,15.7-37.7,20.8
	c-19.9,7.5-40.5,10.4-61.6,8.3c-38-3.8-70-20-95.9-47.9C111.8,327.2,99.2,295.2,98.8,262.3z"/>
<path class="st0" d="M358.6,275.7c0,1.5,0,2.7,0,3.9c0,14.9,0,29.9,0,44.8c0,5.2-1.9,9.5-6.7,11.9c-4.9,2.4-9.9,2.2-14.6-0.9
	c-3.8-2.6-5.2-6.4-5.2-10.9c0-18.2,0.1-36.5,0.1-54.7c0-26.1-0.1-52.3-0.1-78.4c0-9.9,5-15.1,14.9-15.1c17.8,0,35.7-0.1,53.5,0.3
	c7.6,0.2,15.2,1.3,22.6,2.7c14.9,2.9,24.5,12.5,29.4,26.4c6.6,18.7,5.1,36.6-7.9,52.4c-7.8,9.5-18.8,13.6-30.6,15.8
	c-12.8,2.4-25.7,1.9-38.6,1.9C370.1,275.7,364.6,275.7,358.6,275.7z M358.6,251.4c3.2,0,6.1,0,9,0c7.2,0,14.4,0.1,21.5-0.2
	c7.4-0.4,14.9-0.8,22.3-2c3.4-0.5,7-2.3,9.6-4.6c8.7-7.8,9.4-17.9,6.4-28.4c-2.9-9.9-10.1-14.8-20.1-15c-15.8-0.5-31.6-0.4-47.4-0.5
	c-0.4,0-0.7,0.2-1.2,0.4C358.6,217.7,358.6,234.3,358.6,251.4z"/>
<path class="st0" d="M299.4,337.7c-5.8,0-10-3.1-12.4-9.2c-4.5-11.7-9-23.4-13.3-35.1c-0.8-2.2-1.8-3.1-4.3-3.1
	c-18.3,0.1-36.7,0.1-55,0c-2.3,0-3.3,0.6-4.1,2.9c-4.2,12.1-8.6,24.1-13.1,36.2c-2.3,6.1-7.3,9-13.7,8.2
	c-6.2-0.7-11.1-5.2-11.6-11.2c-0.2-2.2,0.3-4.6,1.1-6.7c7.6-19.9,15.4-39.7,23-59.6c9.1-23.7,18-47.5,27.2-71.3
	c4.4-11.5,17.5-16.1,28.1-9.9c3.9,2.3,6.4,5.7,8.1,9.8c17.7,43.3,35.3,86.6,53,129.9C316.5,328.6,310.2,337.8,299.4,337.7z
	 M219.3,267.9c15.2,0,29.8,0,44.8,0c-7.6-20.1-15.1-39.8-22.6-59.5c-0.2,0.1-0.5,0.1-0.7,0.2C233.6,228.2,226.5,247.8,219.3,267.9z"
	/>
<path class="st0" d="M475.3,256.6c0-22.2,0-44.5,0-66.7c0-5.3,1.8-9.7,6.8-12.1c5.1-2.5,10.1-2.2,14.8,1c4,2.8,5,7,5,11.6
	c0,18.8,0,37.7,0,56.5c0,25.6,0,51.3,0,76.9c0,5.5-1.9,10.1-7.2,12.4c-5.4,2.4-10.6,1.9-15.2-1.9c-3.5-2.9-4.2-6.8-4.2-11.1
	C475.3,301.1,475.3,278.9,475.3,256.6z"/>
</svg>
