<?xml version="1.0" encoding="utf-8"?>
<!-- Generator: Adobe Illustrator 21.1.0, SVG Export Plug-In . SVG Version: 6.00 Build 0)  -->
<svg version="1.1" id="Layer_1" xmlns="http://www.w3.org/2000/svg" xmlns:xlink="http://www.w3.org/1999/xlink" x="0px" y="0px"
	 viewBox="0 0 554.5 554.5" style="enable-background:new 0 0 554.5 554.5;" xml:space="preserve">
<style type="text/css">
	.st0{enable-background:new    ;}
</style>
<title>cv-logo</title>
<g>
	<g class="st0">
		<path d="M164,1.5c31.8,0,54.9,8.6,69.2,25.9c14.3,17.3,21.5,39.9,21.5,67.8l-46.5,8.2c0.4-18.1-2.9-32.4-9.7-43
			c-6.9-10.6-18.6-15.9-35.1-15.9c-9.4,0-17.1,2.2-23,6.5c-5.9,4.3-10.5,9.7-13.8,16.2c-3.3,6.5-5.6,13.7-6.8,21.5
			c-1.2,7.9-1.8,15.3-1.8,22.4v206.8c0,5.9,0.6,12.3,1.8,19.2c1.2,6.9,3.4,13.2,6.8,18.9c3.3,5.7,7.9,10.5,13.6,14.4
			c5.7,3.9,13.3,5.9,22.7,5.9c15.3,0,26.6-4.7,33.9-14.1c7.3-9.4,11.1-24.4,11.5-44.8l47.7,8.3c-0.8,29.5-8.7,52.4-23.9,68.9
			c-15.1,16.5-37.8,24.7-68.1,24.7c-31,0-54.2-8.6-69.5-25.9c-15.3-17.3-23-41.6-23-73.1V117.5c0-14.5,1.3-28.8,3.8-42.7
			c2.6-13.9,7.2-26.3,13.8-37.1c6.7-10.8,16.1-19.5,28.3-26.2C129.6,4.8,145.1,1.5,164,1.5z"/>
		<path d="M410.9,415.7h-50.7L283.6,5h47.7l30.6,173.2l23,142.6h1.8l23.6-143.8L441.5,5h47.7L410.9,415.7z"/>
	</g>
	<g class="st0">
		<path d="M2.5,529.3v-87h9.8v87H2.5z"/>
		<path d="M48.4,529.3H37l-14.7-61.8h10.4l5.3,25.5l4.5,21.6H43l4.6-22.1l5.1-25H63L48.4,529.3z"/>
		<path d="M95.8,524c-1.7,2.3-3.5,3.8-5.7,4.8c-2.1,0.9-4.5,1.4-7.2,1.4c-2.6,0-4.7-0.5-6.5-1.6c-1.7-1-3.1-2.4-4.2-4.1
			c-1-1.7-1.8-3.6-2.2-5.8c-0.5-2.1-0.7-4.3-0.7-6.6c0-2.3,0.2-4.7,0.7-7c0.5-2.3,1.4-4.5,2.6-6.4c1.2-1.9,2.9-3.5,5.1-4.7
			c2.2-1.2,4.9-1.8,8.3-1.8h9.7v-8.3c0-2.4-0.6-4.3-1.7-5.8c-1.1-1.4-3.3-2.1-6.4-2.1c-1.7,0-3.3,0.5-4.9,1.5c-1.6,1-2.6,2.6-3,4.9
			l-9.3-2.6c0.9-4.1,2.9-7.3,6-9.6c3.1-2.3,7-3.5,11.7-3.5c5.5,0,9.8,1.3,12.9,3.8c3,2.5,4.5,7,4.5,13.3v45.5h-9.8V524H95.8z
			 M95.9,500.8h-7.2c-2.6,0-4.8,0.8-6.8,2.3c-1.9,1.5-2.9,4.3-2.9,8.3c0,2.9,0.6,5.1,1.9,6.7c1.2,1.5,3.2,2.3,5.8,2.3
			c3.1,0,5.4-0.9,6.9-2.6c1.5-1.8,2.3-4.2,2.3-7.3V500.8z"/>
		<path d="M127.6,473.7h0.2c2.9-4.5,7.1-6.8,12.5-6.8c4.5,0,8,1.5,10.2,4.4c2.3,3,3.4,6.8,3.4,11.6v46.4h-9.8v-43.8
			c0-2.7-0.6-4.8-1.9-6.3c-1.2-1.5-3.2-2.3-5.9-2.3c-2.6,0-4.8,0.9-6.4,2.6c-1.6,1.8-2.5,4.1-2.5,7v42.8h-9.8v-61.8h10V473.7z"/>
	</g>
	<g class="st0">
		<path d="M216.3,529.3v-40.1h-20.2v40.1h-9.8v-87h9.8v38.3h20.2v-38.3h9.8v87H216.3z"/>
		<path d="M251.5,474.6c1.6-3.2,3.4-5.3,5.5-6.3c2.1-1,4.7-1.6,7.8-1.6h1.1v11.9c-0.7-0.1-1.3-0.1-1.8-0.2c-0.5,0-1.1-0.1-1.7-0.1
			c-3.6,0-6.3,0.9-8.3,2.6c-1.9,1.7-2.9,4.7-2.9,9.1v39.4h-9.8v-61.8h9.8v7H251.5z"/>
		<path d="M293.3,539.7c-1,4.2-2.6,7.5-4.7,10.1c-2.2,2.5-5.4,3.8-9.8,3.8H275v-8.5h2.5c2.3,0,4-0.8,5-2.3c1-1.5,2-4.4,2.9-8.6
			l1-4.4l-16.3-62.3h10.5l5.2,23.6l5,21.4h0.4l4.6-21.6l5.1-23.4h10.1L293.3,539.7z"/>
		<path d="M328.3,473.7h0.2c2.9-4.5,7.1-6.8,12.5-6.8c4.5,0,8,1.5,10.2,4.4c2.3,3,3.4,6.8,3.4,11.6v46.4h-9.8v-43.8
			c0-2.7-0.7-4.8-2.1-6.3c-1.4-1.5-3.5-2.3-6.2-2.3c-2.6,0-4.7,0.8-6.2,2.4c-1.5,1.6-2.2,3.8-2.2,6.8v43.3h-9.8v-90.8h10V473.7z"/>
		<path d="M385.1,466.7c3.5,0,6.3,0.5,8.6,1.4c2.2,0.9,4,2.2,5.3,3.8c1.3,1.6,2.3,3.5,2.9,5.8c0.6,2.2,1,4.6,1.1,7.2
			c0.2,2.4,0.3,5,0.4,7.8c0.1,2.8,0.1,5.2,0.1,7.4c0,4.8-0.2,9.5-0.7,14.3c-0.4,3.3-1.3,6-2.5,8.1c-1.2,2.1-2.8,3.7-4.6,4.9
			c-1.8,1.2-3.7,2-5.8,2.4s-4.1,0.6-6.1,0.6c-2.6,0-4.8-0.3-6.7-1c-1.9-0.7-3.5-1.5-4.8-2.6c-1.3-1.1-2.4-2.4-3.2-3.8
			c-0.8-1.5-1.5-2.9-1.9-4.4c-0.3-1-0.5-2.3-0.6-3.8c-0.2-1.5-0.3-3.1-0.3-4.9c0-1.8-0.1-3.6-0.1-5.4c0-1.8-0.1-3.5-0.1-5.1
			c0-2.1,0-4.2,0.1-6.4c0.1-2.2,0.2-4.3,0.4-6.3c0.2-2,0.4-3.8,0.6-5.4c0.2-1.6,0.6-2.9,1-3.9c1.2-3.2,3.1-5.7,5.9-7.5
			C376.8,467.6,380.5,466.7,385.1,466.7z M384.9,475.8c-1.6,0-3.2,0.4-4.5,1.1c-1.4,0.7-2.4,2.1-3.1,4c-0.5,1.2-0.8,3.6-1,7.3
			c-0.2,3.7-0.3,8-0.4,13c0,2.7,0,5.4,0.1,8c0.1,2.6,0.3,4.6,0.7,6c1.2,3.8,3.9,5.7,8.2,5.7c1.7,0,3.3-0.5,4.6-1.6
			c1.3-1,2.3-2.4,3-4.1c0.2-0.4,0.3-1.2,0.5-2.3c0.2-1.1,0.3-2.5,0.4-4c0.1-1.5,0.2-3.2,0.2-4.9c0-1.7,0.1-3.5,0.1-5.2
			c0-1.7,0-3.5-0.1-5.2c0-1.7-0.1-3.3-0.1-4.9c0-1.6-0.1-3-0.2-4.2c-0.1-1.2-0.3-2.2-0.6-3C391.5,477.8,388.9,475.8,384.9,475.8z"/>
	</g>
	<g class="st0">
		<path d="M426.2,474.6c1.6-3.2,3.4-5.3,5.5-6.3c2.1-1,4.7-1.6,7.8-1.6h1.1v11.9c-0.7-0.1-1.3-0.1-1.8-0.2c-0.5,0-1.1-0.1-1.7-0.1
			c-3.6,0-6.3,0.9-8.3,2.6c-1.9,1.7-2.9,4.7-2.9,9.1v39.4h-9.8v-61.8h9.8v7H426.2z"/>
	</g>
	<g class="st0">
		<path d="M447.4,452.3v-10h9.8v10H447.4z M447.4,529.3v-61.8h9.8v61.8H447.4z"/>
		<path d="M487.8,521.1c2.4,0,4.2-0.8,5.5-2.4s1.9-3.9,2.1-6.8l10,1.9c-0.3,5.3-2,9.4-4.9,12.3c-2.9,2.8-7.4,4.3-13.3,4.3
			c-2.6,0-4.9-0.4-6.8-1.1c-1.9-0.7-3.5-1.6-4.8-2.8c-1.3-1.1-2.4-2.4-3.2-3.8c-0.8-1.4-1.3-2.8-1.7-4.3c-0.2-1-0.5-2.3-0.6-3.8
			s-0.3-3.1-0.4-4.9c-0.1-1.8-0.1-3.6-0.2-5.4c0-1.8-0.1-3.5-0.1-5.1c0-2.1,0-4.2,0.1-6.3c0-2.1,0.1-4.1,0.3-6.1
			c0.2-1.9,0.4-3.7,0.6-5.3s0.6-3,1-4.1c1.2-3.3,3.1-5.8,5.8-7.8c2.7-1.9,6.3-2.9,11-2.9c6.1,0,10.5,1.7,13.3,5.1
			c2.7,3.4,4.1,8.1,4.1,14.1v15.3H479c0,2.8,0.1,5.5,0.2,8.1c0.1,2.7,0.4,4.7,0.8,6.1C481.2,519.2,483.8,521.1,487.8,521.1z
			 M495.5,493.2v-5.3c0-1.6-0.1-3.1-0.3-4.6c-0.2-1.5-0.6-2.7-1.2-3.8c-0.6-1.1-1.4-1.9-2.4-2.6c-1-0.6-2.4-0.9-4.1-0.9
			c-1.5,0-2.9,0.4-4.1,1.1c-1.3,0.7-2.3,2-3,3.9c-0.4,1.2-0.7,2.8-0.9,4.8c-0.2,2-0.3,4.5-0.4,7.4H495.5z"/>
		<path d="M538.8,529.3h-11.3l-14.7-61.8h10.5l5.3,25.5l4.5,21.6h0.4l4.6-22.1l5.1-25h10.3L538.8,529.3z"/>
	</g>
</g>
</svg>
