<?xml version="1.0" encoding="utf-8"?>
<!-- Generator: Adobe Illustrator 21.1.0, SVG Export Plug-In . SVG Version: 6.00 Build 0)  -->
<svg version="1.1" id="Слой_1" xmlns="http://www.w3.org/2000/svg" xmlns:xlink="http://www.w3.org/1999/xlink" x="0px" y="0px"
	 viewBox="0 0 512 512" style="enable-background:new 0 0 512 512;" xml:space="preserve">
<style type="text/css">
	.st0{fill:#8CDDFF;stroke:#8CDDFF;stroke-width:10;stroke-miterlimit:10;}
</style>
<title>my-telegram</title>
<path class="st0" d="M102.4,106.7c-9.2,1.9-16.9-3.3-25.1-5.6c-10.3-2.9-20.4-6.5-30.5-9.8c-5.8-1.9-8.3-4.7-8.3-9.1
	c0-4.4,2.5-7.3,8.3-9.2c50.1-16.3,100.1-32.5,150.2-48.8c17.9-5.8,35.7-11.8,53.7-17.3c3.2-1,7.3-1,10.6,0
	c67.4,21.6,134.7,43.5,202,65.3c7.4,2.4,10.4,5.1,10.2,9.9c-0.2,6.5-5.1,8.3-10.3,9.8c-4.2,1.2-8.2,2.8-12.4,3.9
	c-3,0.8-3.9,2.2-3.9,5.3c0.2,26,0.1,52,0.1,78.1c0,0.4,0,0.8,0,1.2c-0.4,2.7,0.6,4.5,2.8,6.4c2.4,2.1,3.8,5.4,5.4,8.3
	c1.4,2.5,2.1,5.5,3.6,7.9c7.5,11.8,7.6,24,0.9,35.8c-3.7,6.5-8.9,12.2-13.8,17.9c-2.7,3.1-6.7,3.4-9.5,0.8
	c-9.1-8.4-16.6-17.9-18.9-30.5c-1.6-9,0.5-17.1,5.6-24.7c1.1-1.6,1.9-3.6,2.2-5.5c0.7-4.6,2.8-8,6.4-10.9c1.1-0.8,2.1-2.5,2.1-3.8
	c0.1-26.3,0.1-52.6,0.1-78.9c0-0.4-0.1-0.8-0.3-1.7c-4.6,1.4-9,2.8-13.5,4.3c-7.3,2.4-14.6,4.9-22,7c-3.1,0.9-4.2,2.2-4.2,5.6
	c0.2,24.3,0,48.5,0.2,72.8c0,4.4-1.4,7.3-4.8,9.9c-31,23.6-65.2,39.4-104.1,44.4c-37,4.7-72.6-0.8-107.2-14.4
	c-19.5-7.7-37.8-17.5-54.9-29.7c-3.7-2.7-5.2-5.7-5.1-10.2c0.2-24.1,0-48.2,0.2-72.4c0-3.3-0.6-5.2-4.2-6c-3.5-0.7-6.9-2-10.2-3.4
	C102.9,109.3,102.7,107.7,102.4,106.7c1.3-1.2,2.6-2.3,4-3.3c-0.7-0.5,4.6-4.7-1.4-4.2c2.2-0.2,4.7-1.1,6.7-0.4
	c46.9,15.1,93.7,30.3,140.6,45.4c2.1,0.7,4.8,0.7,7,0.1c56-18,112-36.2,167.9-54.4c7.5-2.4,14.9-4.9,23.3-7.7
	c-1.6-0.6-2.2-0.9-2.8-1.1c-63-20.5-126.1-40.9-189.2-61.3c-1.8-0.6-4-0.4-5.8,0.2C190.4,40.1,128.1,60.3,65.8,80.5
	c-1.3,0.4-2.5,1-4.5,1.7c13.8,4.5,26.6,8.7,39.4,12.9c-0.4,1.1-0.7,1.9-1,2.8c2,0.5,3.7,0.9,5.4,1.3c-0.5,1.3-1.1,2.6-1.6,3.9
	C103.1,104.2,102.8,105.5,102.4,106.7z M216.4,209.7c-1.3,1.9-2.6,3.7-4.5,6.4c-1.4-0.5-3.6-1.4-5.9-2.1c-1.3-0.4-2.7-0.7-4.1-1
	c-1.1-0.2-2.4,0-3.4-0.4c-3-1.3-5.9-3-9-4c-2.3-0.7-5.1-0.1-7.3-0.9c-16.5-6-32.1-13.7-46.9-23.1c-1.2-0.7-2.4-1.4-3.6-2.1
	c-1.8,6.1,0,10,5.2,12.8c10.8,5.8,21.5,12,32.3,18c6,3.3,12.1,6.4,18.1,9.6c0.5,0.2,1,0.4,1.5,0.5c4.1,0.7,8.4,1.1,12.4,2.3
	c27.3,8,54.9,11.1,83.2,7.3c33.9-4.5,64-18.3,91.8-38c4.7-3.3,5.6-6.9,4.5-11.9c-0.4,0-0.7-0.1-0.9,0c-1.5,0.9-2.9,1.9-4.4,2.9
	c-20.9,14-43.4,24.5-67.9,30.3c-13,3.1-26,5.5-39.6,5c-10-0.4-20,0.7-29.9-1c0.6-0.9,1.7-1.8,1.7-2.7c0-2.6-0.4-5.2-0.6-7.2
	c1.4-0.5,2.4-0.8,3.3-1.1c1-0.2,2.1-0.6,3.1-0.5c3.8,0.6,7.6,1.5,11.4,1.9c1.6,0.1,4.2-1.8,5-1.2c4.2,3.5,7.6-0.2,11.3-0.5
	c38.8-3.1,73.1-17.5,104.3-40.3c2.7-1.9,3.8-4,3.7-7.4c-0.2-11.8-0.1-23.6-0.1-35.4c0-2.2,0-4.5,0-7.1c-2.3,0.6-4,1-5.6,1.6
	c-37.7,12.2-75.4,24.5-113.1,36.8c-4.3,1.4-8.3,1.4-12.6,0c-33-10.8-66.1-21.5-99.2-32.3c-6.2-2-12.5-4-19.1-6.1
	c-0.1,1.8-0.2,3-0.2,4.2c0,13,0.1,26-0.1,39c0,2.9,0.9,4.7,3.3,6.3c15.4,10.5,31.8,19.1,49.1,25.9c1.2,0.5,2.4,1,3.7,1.6
	c-0.5,1.7-0.9,3-1.3,4.3c2.3,0.2,4.5,0.4,6.8,0.7c1.7-0.3,3.4-0.9,5.1-0.9c1.2,0,3.6,0.7,3.6,1c-0.3,4.4,3.6,3,5.4,4.6
	c0.4-1.3,0.6-2.2,0.6-2.3c2.5,0.5,4.5,0.9,6.5,1.2c1.4,0.3,2.7,0.5,4.1,0.8c-0.5,1.5-1,3-1.5,4.6l0,0L216.4,209.7z M432.6,212.1
	c-5.4,8.5-2.1,21.9,8,30.8c11.1-10.4,13.5-25,8-30.8C443,212.1,438.2,212.1,432.6,212.1z"/>
<path class="st0" d="M404.2,332.4c16.2,2,32.4,4.9,48.7,5.7c34.2,1.7,56.5,35.3,45,69.3c-11.5,34.4-49.6,51.1-84.6,36.1
	c-31.3-13.4-63.3-24.7-95.9-34.3c-13-3.8-26.1-7.1-39.2-10.6c-0.2,0.4-0.5,0.7-0.7,1.1c2.5,2.3,5,4.8,7.6,7
	c16.4,13.9,34.6,23.4,56.5,24.2c3.3,0.1,6.6,0,9.9-0.3c4.4-0.5,7.8,0.8,9,5.2c1.1,4.2-1.1,7-4.8,8.8c-23,10.7-46.7,18.4-72.3,18.8
	c-0.5,0-1,0.2-1.9,0.3c-1.1,9.3-0.2,18,7.1,24.9c3,2.8,4.5,5.9,2.4,9.7c-2,3.6-5.3,3.9-9.1,3.3c-30.9-5-53.3-22.2-68.8-48.6
	c-5.4-9.3-9.5-19.3-14.4-29.4c-6.5,3.4-12,8.7-16.6,14.8c-11.8,15.7-16.5,33.9-18.4,53.1c-0.1,1-0.2,2.1-0.2,3.1
	c-0.1,3.7-1.6,6.5-5.3,7.4c-3.6,0.9-6.4-0.6-8.3-3.8c-7-11.6-12.1-23.9-13.5-37.6c-0.2-1.9-0.4-3.7-0.7-6.4
	c-7.3,3.4-11.8,8.4-14.3,15.1c-1.3,3.7-2.1,7.7-2.6,11.7c-0.5,4.3-2,7.6-6.6,8c-4.9,0.4-7-2.7-7.9-7.2c-6.7-33.3,1.6-62.5,23.7-87.9
	c5.3-6.1,11.5-11.6,17.8-18c-4.7-0.2-9-0.6-13.4-0.5c-35.9,1-71.7,2.2-107.6,3.3c-6.6,0.2-9.5-1.3-10.4-6.8
	c-5.5-33.9-5.7-67.5,7.9-99.7c5.2-12.2,12.7-23.5,19.8-34.9c3.6-5.8,6.5-6,12.3-2.8c39.1,21.1,80.6,36.5,122.6,50.4
	c2.1,0.7,4.8,0.4,6.9-0.4c14.9-5.4,30.1-8.6,46.1-6.8c17.8,2,31.8,10.4,42,25.3c1.2,1.8,3.9,3.5,6.1,3.7
	c46.2,4.6,92.5,5.4,138.8,1.4c7.8-0.7,15.5-2.2,23.3-3.2c1.9-0.2,3.8-0.2,5.7-0.2c4.3,0.1,7,2.4,7.2,6.7c0.3,4-2,6.6-6,7.3
	c-6,1-12.1,1.8-18.1,2.5c-9.2,1-17.3,4.8-25,9.5C404.2,331.3,404.2,331.8,404.2,332.4z M182.4,381c-0.7-1.5-1.4-2.9-2.5-5.1
	c-1.7,1.5-3,2.7-4.3,3.8c-2.1,0.1-4.2,0.2-6.2,0.4c-1.3,0.1-2.8-0.4-3.7,0.2c-24.5,15.7-42.6,36.3-48.1,65.9c-0.2,0.9,0,1.8,0,3.3
	c7.1-6.4,14.8-10.2,23.6-11.6c8.1-1.3,11.6,2.2,10,10.2c-1.4,6.7-1,13.2,1.5,21c0.9-3,1.4-4.6,1.9-6.2c6.6-22.1,17.8-40.8,38.4-52.6
	c0.9-0.5,2.2-2,2-2.5c-2-5.3,0.9-12.6-6.7-15.7c-1-0.4-1.4-2.6-2-4c-1-2.3-2-4.7-3-7C183,380.9,182.7,381,182.4,381z M51.4,249.7
	c-20.7,22.3-33.7,86.2-23.5,113.1c43.6-0.7,86.8-1.4,130.3-2.1c-5.6-21.9-1.8-43,10.6-62.8C128.5,283.6,89,269,51.4,249.7z
	 M387.9,324.7c-1.9-0.1-3-0.1-4-0.1c-31.2-0.7-62.3-1.1-93.5-2.4c-19.2-0.8-19.6-1.3-29,15.9c-5.7,10.4-8.9,21.3-5.5,33.1
	c1.6,5.5,4.5,8.9,10.7,10.5c29.5,7.6,58.8,15.9,88.2,24.1c7.1,2,14,4.7,21.4,7.3C361.2,380.9,362.1,351.5,387.9,324.7z M208.6,292.1
	c-8.1,2.6-14.2,4.4-20.3,6.6c-1.7,0.6-3.4,1.8-4.5,3.3c-9.8,13-14.8,27.7-13.3,44c0.7,8.2,1.2,16.8,8,23.1
	c16.8,15.5,40.4,18.6,60.6,7.6c1.2-0.7,2.2-3.3,2-4.7c-2-10.6-1.3-21.1,3.3-30.7c4.1-8.6,9.3-16.7,14.6-24.6c1.9-2.9,2-4.6,0-7.2
	c-7-9.2-15.8-15.4-27.3-16.7C223.5,291.7,215.1,292.2,208.6,292.1z M318.7,443.3c-10.5-5.6-21.6-10.7-31.8-17.1
	c-14.3-9-25.6-21.4-35.9-34.7c-1-1.3-3.7-2.6-4.8-2.1c-12.1,5.6-24.6,8.5-37.9,7.8c0.1,32.7,36.8,84.6,58.5,85.2
	c0.6-9,0.8-17.9,1.8-26.8c0.5-5.1,3.9-7.2,9.3-6.8C292.1,449.7,306,447.3,318.7,443.3z M425.1,373.5c1.3,0.3,2.7,0.6,4,0.8
	c12.2,1.8,24.4,3.5,36.7,5.4c6,0.9,8,3.9,7.1,9.9c-2.4,16.2-16.9,26.5-34,24.1c-14.3-2-28.6-4.2-42.8-6.3c-1.6-0.2-3.3-0.3-5-0.5
	c0.1,0.9,0,1.2,0.2,1.5c0.3,0.6,0.8,1.2,1.1,1.7c7.1,10.3,17.1,16.7,28.6,20.9c24.4,9,53.3,0.3,63.3-27.8
	c8.2-23.1-4.4-46.3-27.1-50.3C441.6,350.3,427.6,359.2,425.1,373.5z M422.2,349.1c-10.4-1.5-20.2-3-30-4.2c-1.2-0.2-3.2,1.1-3.9,2.2
	c-7.9,12.7-8.8,26.5-6,40.8c0.2,1.2,1.6,3,2.7,3.2c9.2,1.6,18.4,2.8,27.8,4.2C407.6,373.2,408.7,367.8,422.2,349.1z M456.2,392.8
	c-10.1-1.5-19.7-2.8-29.8-4.3C431.4,400.3,450,404,456.2,392.8z"/>
<path class="st0" d="M237.2,219.6c-4.5-0.5-9-1-13.5-1.6c-1.8-0.2-3.7-1-5.5-1c-4.4-0.1-5.1-1-3.5-5.3c0.3-0.9,0.6-1.8,1-2.7
	c0,0,0.1,0.1,0.1,0.1s0,0,0,0c0.8,0.1,1.7,0.2,2.4,0.4c1.3,0.5,2.5,1.6,3.7,1.6c0.7,0,1.3-1.9,1.8-3c0.3-0.6,0.1-1.3,0.2-2.2
	c3.9-1,3.4,1.8,3.4,4.1c1.8-0.9,3.5-1.6,5-2.5c3.1-1.7,3.7-0.1,3.8,2.7C236.2,213.3,236.8,216.4,237.2,219.6z"/>
</svg>
