<?xml version="1.0" encoding="utf-8"?>
<!-- Generator: Adobe Illustrator 21.1.0, SVG Export Plug-In . SVG Version: 6.00 Build 0)  -->
<svg version="1.1" id="Слой_1" xmlns="http://www.w3.org/2000/svg" xmlns:xlink="http://www.w3.org/1999/xlink" x="0px" y="0px"
	 viewBox="0 0 512 512" style="enable-background:new 0 0 512 512;" xml:space="preserve">
<style type="text/css">
	.st0{fill:#8CDDFF;}
</style>
<title>my-telegram</title>
<path class="st0" d="M256,0C114.6,0,0,114.6,0,256s114.6,256,256,256s256-114.6,256-256S397.4,0,256,0z M372.6,160.6l-42,198
	c-3.1,14-11.5,17.5-23.1,10.8l-64-47.2L212.6,352c-3.4,3.4-6.3,6.3-12.9,6.3l4.5-65.1L322.8,186c5.2-4.5-1.1-7.1-8-2.6l-146.5,92.3
	L105.1,256c-13.7-4.4-14-13.7,2.9-20.3l246.8-95.2C366.3,136.4,376.3,143.3,372.6,160.6L372.6,160.6z"/>
</svg>
