<?xml version="1.0" encoding="utf-8"?>
<!-- Generator: Adobe Illustrator 21.1.0, SVG Export Plug-In . SVG Version: 6.00 Build 0)  -->
<svg version="1.1" id="Слой_1" xmlns="http://www.w3.org/2000/svg" xmlns:xlink="http://www.w3.org/1999/xlink" x="0px" y="0px"
	 viewBox="0 0 512 512" style="enable-background:new 0 0 512 512;" xml:space="preserve">
<style type="text/css">
	.st0{fill:#8CDDFF;}
</style>
<title>my-telegram</title>
<path class="st0" d="M33.7,8.4c149.1,0,297.9,0,447,0c-0.5,5.4-0.9,10.6-1.4,15.8c-1.2,13.4-2.4,26.7-3.5,40.1
	c-1.3,14.8-2.6,29.6-3.9,44.4c-1.2,13-2.3,26-3.4,39.1c-1.3,14.9-2.6,29.9-4,44.8c-1.1,13-2.3,26-3.4,39.1
	c-1.3,14.9-2.6,29.9-4,44.8c-1.1,13-2.3,25.9-3.4,38.9c-1.3,15-2.7,30-4,45c-1.2,13.2-2.3,26.3-3.5,39.5
	c-1.3,14.8-2.6,29.6-3.9,44.4c-0.3,3.2-0.6,6.4-0.8,9.6c-0.1,1.2-0.5,1.7-1.7,2.1c-50.6,14.4-101.1,28.8-151.7,43.3
	c-9.7,2.8-19.3,5.6-29,8.2c-1.2,0.3-2.6,0.3-3.7,0c-60.2-17.2-120.4-34.4-180.7-51.5c-1.1-0.3-1.5-0.7-1.6-1.9
	c-1-11.9-2.1-23.9-3.2-35.8c-1.3-14.9-2.6-29.7-3.9-44.6c-1.2-13-2.3-26-3.4-39.1c-1.3-14.9-2.6-29.9-4-44.8
	c-1.1-13-2.3-25.9-3.4-38.9c-1.3-15-2.7-30-4-45c-1.2-13.2-2.3-26.3-3.5-39.5c-1.3-14.8-2.6-29.6-3.9-44.4
	c-1.3-14.7-2.6-29.3-3.9-44c-1.3-14.8-2.6-29.6-3.9-44.4C35.2,25.3,34.5,17,33.7,8.4z M62.5,34.7c0.1,0.9,0.1,1.6,0.2,2.2
	c0.9,10.4,1.8,20.9,2.8,31.3c1.1,12.9,2.3,25.8,3.4,38.7c1.3,14.8,2.6,29.6,3.9,44.4c1.2,13.2,2.3,26.3,3.5,39.5c1.3,15,2.7,30,4,45
	c1.1,13,2.3,25.9,3.4,38.9c1.3,14.9,2.6,29.9,4,44.8c1.1,13,2.3,26,3.4,39.1c1.3,14.9,2.6,29.9,4,44.8c0.9,10,1.8,19.9,2.6,29.9
	c0.1,1.4,0.6,2.1,2,2.5c52,14.8,104,29.6,156,44.5c0.9,0.3,2.1,0.3,3,0.1c52.1-14.8,104.3-29.7,156.4-44.6c1.2-0.3,1.8-0.8,1.9-2.1
	c0.1-2.4,0.4-4.8,0.6-7.2c1.2-13.1,2.3-26.2,3.5-39.3c1.3-14.9,2.6-29.7,3.9-44.6c1.2-13.1,2.3-26.2,3.5-39.3
	c1.3-14.8,2.6-29.6,3.9-44.4c1.2-13.1,2.3-26.2,3.4-39.3c1.3-14.9,2.6-29.9,4-44.8c1.1-13,2.3-26,3.4-39.1c1.3-14.9,2.6-29.9,4-44.8
	c1.2-13.2,2.4-26.4,3.5-39.7c0.5-5.4,0.9-10.9,1.4-16.4C322.1,34.7,192.4,34.7,62.5,34.7z"/>
<path class="st0" d="M387.4,208.4c-3.7,42.1-7.2,82-10.7,122c-1.2,14.2-2.5,28.3-3.6,42.5c-0.4,5.6-2.1,8.6-8.3,10.2
	c-33.9,9-67.6,18.8-101.4,28.1c-3.5,1-7.8,1.1-11.3,0.1c-33.9-9.2-67.6-18.9-101.5-28c-5.8-1.5-8.1-3.8-8.6-9.8
	c-2.1-26.5-4.8-53-7.3-80.1c18.6,0,36.6,0,55.8,0c1.2,11.8,2.8,23.7,3.3,35.7c0.3,6.3,1.8,10.2,8.6,10.7c0.7,0.1,1.4,0.3,2.1,0.5
	c54.5,15.1,54.5,15.2,107.7-0.7c3.2-0.9,7.5-4.7,7.8-7.6c2.6-21.8,4.4-43.7,6.6-66.9c-64.9,0-129.1,0-194.3,0
	c-5.1-57.2-10.2-113.3-15.2-170c93.3,0,185.9,0,280.3,0c-1.5,18-3.1,35.9-4.7,55c-71.2,0-142.1,0-214.4,0c1.7,20,3.2,38.6,4.9,58.4
	C251.2,208.4,318.5,208.4,387.4,208.4z"/>
</svg>
