<svg id="Слой_1" data-name="Слой 1" xmlns="http://www.w3.org/2000/svg" viewBox="0 0 507 508.05"><defs><style>.cls-1{fill:#32beff;}</style></defs><title>my-address</title><path class="cls-1" d="M255.77,510.12C114.91,508.63.89,393.31,2.82,254.29,4.79,112.28,119.61.2,261.17,2.11,399.17,4,511.31,120.73,509.78,261,508.27,399.17,393.67,511.58,255.77,510.12Zm.06-98.69c2.59-2.1,4.17-2.83,4.92-4.08Q302.7,338,344.53,268.62c21.71-35.81,20.08-71.17-.83-106.71-26.38-44.84-84.91-62-133.23-38.63-47.3,22.86-69.74,79.16-49.22,127.42,8.27,19.46,19.74,37.64,30.63,55.88C212.76,341.55,234.26,376.15,255.83,411.43Z" transform="translate(-2.79 -2.09)"/><path class="cls-1" d="M221.83,213.17c.24-22.37,15.19-37.43,36.53-36.79,20.89.62,36,17.11,35.49,38.71-.5,20.9-17.07,36.37-38.29,35.75C235.15,250.23,221.59,235.09,221.83,213.17Z" transform="translate(-2.79 -2.09)"/></svg>