<svg id="Слой_1" data-name="Слой 1" xmlns="http://www.w3.org/2000/svg" xmlns:xlink="http://www.w3.org/1999/xlink" viewBox="0 0 512 490.67"><defs><style>.cls-1{fill:none;}.cls-2{clip-path:url(#clip-path);}.cls-3{fill:#32beff;}</style><clipPath id="clip-path"><rect class="cls-1" y="-10.67" width="512" height="512"/></clipPath></defs><title>my-github</title><g class="cls-2"><path class="cls-3" d="M256,0C114.56,0,0,112.64,0,251.56,0,362.73,73.34,457,175,490.24c12.8,2.37,17.49-5.42,17.49-12.1,0-6-.21-21.8-.32-42.77C121,450.53,106,401.62,106,401.62c-11.65-29-28.48-36.8-28.48-36.8-23.19-15.6,1.79-15.27,1.79-15.27,25.71,1.75,39.21,25.92,39.21,25.92,22.83,38.46,59.93,27.35,74.56,20.93,2.3-16.28,8.9-27.35,16.21-33.64-56.85-6.29-116.61-27.93-116.61-124.31,0-27.46,9.92-49.9,26.35-67.5-2.88-6.36-11.52-31.94,2.24-66.58,0,0,21.44-6.74,70.4,25.79a245.47,245.47,0,0,1,128,0c48.63-32.54,70.07-25.83,70.07-25.83,13.76,34.65,5.12,60.22,2.56,66.58,16.32,17.6,26.24,40,26.24,67.5,0,96.64-59.84,117.91-116.8,124.1,9,7.55,17.28,23,17.28,46.55,0,33.66-.32,60.71-.32,68.89,0,6.59,4.48,14.46,17.6,12C438.72,456.89,512,362.56,512,251.56,512,112.64,397.38,0,256,0Z"/></g></svg>