<svg id="Слой_1" data-name="Слой 1" xmlns="http://www.w3.org/2000/svg" viewBox="0 0 512 512"><defs><style>.cls-1{fill:#32beff;}</style></defs><title>mail-linkedin</title><path class="cls-1" d="M512.56,246v20.59c-.89,9.39-1.54,18.81-2.71,28.16A232.67,232.67,0,0,1,488.32,367c-12.54,26-29.37,49-49.64,69.57-29.25,29.62-63.17,51.75-103.07,64.31A239.27,239.27,0,0,1,285.93,511c-6.26.59-12.53,1.07-18.8,1.6H246.54a17,17,0,0,0-1.91-.29,258.84,258.84,0,0,1-48.91-6.52,239.69,239.69,0,0,1-90.44-42.63,279.61,279.61,0,0,1-58.69-60,239.33,239.33,0,0,1-32.53-62.59A227.46,227.46,0,0,1,2.71,290.33c-.82-7.91-1.44-15.84-2.15-23.76V246c.72-7.92,1.34-15.85,2.17-23.76A230.22,230.22,0,0,1,15,169.09C27,135.5,45.89,106.23,70.48,80.58,101,48.72,136.71,24.94,179.14,11.84a233.71,233.71,0,0,1,48-9.65C233.45,1.63,239.72,1.1,246,.56h21.15c.64.1,1.27.24,1.91.3,8.75.79,17.54,1.31,26.26,2.41a234,234,0,0,1,73.54,22.06C398.54,39.8,424.09,59.79,446.37,84c25.63,27.9,44.51,59.72,55.42,96.12a239.87,239.87,0,0,1,9.14,46.75C511.52,233.26,512,239.63,512.56,246ZM272,218.75a21.22,21.22,0,0,1-.79-2.6c-.82-5.78-1.75-11.55-2.34-17.35-.23-2.31-.83-3.11-3.29-3.08-12.8.14-25.6.06-38.39.06h-2.76V362.07h52.48c0-1.28,0-2.45,0-3.63q0-45.77,0-91.54a40.35,40.35,0,0,1,2.75-15.72c4-9.86,10.55-16.46,21.46-17.78,12.59-1.52,23.1,2.65,27.18,16A62.48,62.48,0,0,1,331,266.58c.31,23.72.15,47.46.17,71.18,0,8,0,16.08,0,24.27h52.24v-3.46q0-47.72,0-95.44a107.63,107.63,0,0,0-3-26.16c-4.62-18.54-14.76-32.78-32.55-40.79-10.15-4.57-20.92-5.25-31.86-4.3-17.72,1.54-32.06,9-42.06,24.07C273.46,216.76,272.88,217.52,272,218.75ZM142.54,196V362h50.91V196ZM169,123c-20.37-.66-34,18-27,37.1A19.1,19.1,0,0,0,152,171.18c8.57,4.08,17.58,4.09,26.59,2s14.94-7.66,16.29-17.05a57.56,57.56,0,0,0,.39-13.21c-.82-9.25-6.84-16-15.83-18.21C176,123.89,172.48,123.55,169,123Z" transform="translate(-0.56 -0.56)"/></svg>