<svg id="Слой_1" data-name="Слой 1" xmlns="http://www.w3.org/2000/svg" viewBox="0 0 512 512"><defs><style>.cls-1{fill:#ecb830;}.cls-2{fill:#32beff;}</style></defs><title>my-mail</title><path class="cls-1" d="M257,210a45,45,0,1,0,45,45,45,45,0,0,0-45-45Z"/><path class="cls-2" d="M255,0C114.39,0,0,114.39,0,255S114.39,512,255,512,512,395.61,512,255,395.61,0,255,0ZM362,330a59.88,59.88,0,0,1-49-25.6,75,75,0,1,1-11-109V195a15,15,0,0,1,30,0v75a30,30,0,0,0,60,0c0-100.39-66.43-150-135-150-74.44,0-135,60.56-135,135s60.56,135,135,135a133.55,133.55,0,0,0,82.06-27.8C354.88,350.12,373,374,357.34,386A163.39,163.39,0,0,1,257,420c-91,0-165-74-165-165S166,90,257,90c82.9,0,165,61.13,165,180A60.06,60.06,0,0,1,362,330Z"/><circle class="cls-2" cx="257" cy="255" r="45"/></svg>