<svg id="Слой_1" data-name="Слой 1" xmlns="http://www.w3.org/2000/svg" viewBox="0 0 506.29 504.59"><defs><style>.cls-1{fill:#32beff;}</style></defs><title>my-phone</title><path class="cls-1" d="M161.6,165.16c.2,1.12.31,2.13.56,3.11a297,297,0,0,0,9.06,28.55q5.64,15.19,12.69,29.76,7.34,15.24,16.11,29.72c5.89,9.71,12.18,19.15,19,28.23a351.66,351.66,0,0,0,23.36,27.93,320,320,0,0,0,37.21,34.19,281.84,281.84,0,0,0,30.78,21.19q6.71,3.95,13.47,7.83c.74.43,1.54.75,2.48,1.2,1.22-2.83,2.34-5.46,3.48-8.09a163.62,163.62,0,0,1,24.58-40.42c5.66-6.76,11.86-13,19.27-17.87,4.08-2.69,8.29-5.09,13.28-5.83a13.91,13.91,0,0,1,8.57,1.55A110.52,110.52,0,0,1,412,316.89a266.4,266.4,0,0,1,28.13,24.61c10.11,10.14,19.6,20.83,27.58,32.77,4.72,7.06,9.05,14.33,11.75,22.45A46.94,46.94,0,0,1,482,409.85a28.22,28.22,0,0,1-1.38,9,13.12,13.12,0,0,1-4.45,6.64c-7.83,6.45-15.52,13.07-23.33,19.57A314.81,314.81,0,0,1,427,464.88a96.88,96.88,0,0,1-20,10.73,58.91,58.91,0,0,1-24.47,3.72c-9.2-.57-17.92-3-26.48-6.29-12.43-4.77-24.13-11-35.63-17.62-13.58-7.82-26.82-16.19-39.89-24.83-11.06-7.32-22-14.8-33.14-22a170.92,170.92,0,0,1-20.21-15.74c-7.64-6.79-15.34-13.53-22.81-20.52a400.7,400.7,0,0,1-34.93-37.2,350.38,350.38,0,0,1-28.57-39.93c-6.11-9.95-11.65-20.21-16.77-30.7q-9.36-19.2-17-39.13c-5.7-14.93-11-30-16.61-45-4.33-11.48-7-23.42-10.17-35.23-1.89-7.1-3.71-14.23-5.37-21.39a146,146,0,0,1-3.29-20.84c-1.36-16.13,2.91-30.54,13-43.19a123.22,123.22,0,0,1,18.19-18A249,249,0,0,1,128,23.56c8.64-5.47,17.31-10.9,26.08-16.16a21.88,21.88,0,0,1,16.22-2.45c6.28,1.31,11.56,4.53,16.45,8.5A99.38,99.38,0,0,1,203.6,31.73,255.27,255.27,0,0,1,224,65c8.1,15.35,15.22,31.16,21.88,47.17A16.14,16.14,0,0,1,244.78,127a30.3,30.3,0,0,1-6.93,8.2,73.81,73.81,0,0,1-17.61,11.07c-6,2.74-12.16,5.29-18.38,7.57a235.77,235.77,0,0,1-29.42,8.68C168.95,163.26,165.48,164.19,161.6,165.16Z" transform="translate(-5.28 -4.38)"/><path class="cls-1" d="M335.27,497.58c-4.61,1.26-9.19,2.67-13.85,3.74-6.77,1.56-13.56,3.14-20.42,4.21-8,1.24-16,2.21-24.05,2.78-7.89.56-15.82.7-23.73.64a243.86,243.86,0,0,1-32.74-2.63,250.47,250.47,0,0,1-42-9.74c-7.13-2.32-14.09-5.2-21.08-7.92a207,207,0,0,1-23.55-11.29,249.46,249.46,0,0,1-23.42-14.51,227.16,227.16,0,0,1-22.25-17.45C83,440.78,78,435.9,73.12,431A215.61,215.61,0,0,1,52.9,407.31a245.94,245.94,0,0,1-15.59-23.58A225.7,225.7,0,0,1,20.41,348c-2.48-6.75-4.79-13.58-6.62-20.53-2.21-8.42-4.19-16.93-5.61-25.52a228.49,228.49,0,0,1-2.85-41.84,237.27,237.27,0,0,1,3.22-34.61,231.5,231.5,0,0,1,13.16-47.28,241.37,241.37,0,0,1,19.39-38.5c1.38-2.21,2.86-4.37,4.55-7,.4,1.2.7,1.91.88,2.65,2.19,8.84,4.36,17.69,6.56,26.53.85,3.41,1.64,6.85,2.7,10.2a7,7,0,0,1-.53,5.5,192,192,0,0,0-10.06,26.15,208.46,208.46,0,0,0-7.67,86.1A205.4,205.4,0,0,0,45.87,328a210.24,210.24,0,0,0,18.41,41.3,214.83,214.83,0,0,0,33.81,44,221.32,221.32,0,0,0,38,30.57,211.19,211.19,0,0,0,26,14.28c6.68,3,13.59,5.61,20.45,8.24a186.6,186.6,0,0,0,28.82,8.13,230.77,230.77,0,0,0,49.82,4.74,260.35,260.35,0,0,0,33.21-2.7,6,6,0,0,1,4.09.79c5.39,3.12,10.75,6.33,16.25,9.26,5.71,3,11.56,5.81,17.35,8.7,1.06.53,2.11,1.08,3.17,1.62Z" transform="translate(-5.28 -4.38)"/><path class="cls-1" d="M492.59,356.69c-1.27-1.69-2.42-3.18-3.52-4.7a231,231,0,0,0-16.92-20.52,4,4,0,0,1-1-4.47,184.33,184.33,0,0,0,7-28.87,208.52,208.52,0,0,0,2.33-44.24,211.59,211.59,0,0,0-4-31.14,208.6,208.6,0,0,0-14.85-45,212.06,212.06,0,0,0-25.12-41.28,217.44,217.44,0,0,0-28.19-30,220.72,220.72,0,0,0-21.94-17.06A225.83,225.83,0,0,0,326.8,60.65,226.67,226.67,0,0,0,253,50.42a3.24,3.24,0,0,1-3.39-2,273.94,273.94,0,0,0-14.38-24.34,16.33,16.33,0,0,1-.93-1.66c-.06-.12,0-.3.06-.69,2.23-.21,4.5-.46,6.78-.62a263.65,263.65,0,0,1,49.1,1.3,250.45,250.45,0,0,1,29.94,5.47,261.44,261.44,0,0,1,44.6,15.31,250,250,0,0,1,31.67,17,255.54,255.54,0,0,1,28.76,21.12,251.89,251.89,0,0,1,32.81,33.53,242.63,242.63,0,0,1,25.67,38.7,238.64,238.64,0,0,1,15.15,34.94,235.55,235.55,0,0,1,12.6,82.79,235.35,235.35,0,0,1-3.89,36.7,231,231,0,0,1-11,39.45c-1,2.69-2.1,5.36-3.17,8A9,9,0,0,1,492.59,356.69Z" transform="translate(-5.28 -4.38)"/></svg>