<svg id="Слой_1" data-name="Слой 1" xmlns="http://www.w3.org/2000/svg" viewBox="0 0 512 512"><defs><style>.cls-1{fill:#32beff;}</style></defs><title>my-telegram</title><path class="cls-1" d="M256,0C114.61,0,0,114.61,0,256S114.61,512,256,512,512,397.39,512,256,397.39,0,256,0ZM372.61,160.59l-42,198c-3.11,14-11.46,17.45-23.12,10.84l-64-47.17L212.59,352c-3.41,3.41-6.29,6.29-12.91,6.29l4.54-65.13L322.84,186c5.16-4.54-1.15-7.1-8-2.58L168.3,275.7,105.11,256c-13.72-4.35-14-13.72,2.9-20.33l246.83-95.17c11.46-4.14,21.46,2.79,17.75,20.12Z"/></svg>