<?xml version="1.0" encoding="utf-8"?>
<!-- Generator: Adobe Illustrator 21.1.0, SVG Export Plug-In . SVG Version: 6.00 Build 0)  -->
<svg version="1.1" id="Layer_1" xmlns="http://www.w3.org/2000/svg" xmlns:xlink="http://www.w3.org/1999/xlink" x="0px" y="0px"
	 viewBox="0 0 554.5 285.7" style="enable-background:new 0 0 554.5 285.7;" xml:space="preserve">
<style type="text/css">
	.st0{enable-background:new    ;}
	.st1{fill:#ECECEC;}
</style>
<title>cv-logo</title>
<g>
	<g class="st0">
		<path class="st1" d="M53,38c14,0,24.2,3.8,30.5,11.4c6.3,7.6,9.5,17.6,9.5,29.9l-20.5,3.6c0.2-8-1.3-14.3-4.3-19
			c-3-4.7-8.2-7-15.5-7c-4.2,0-7.5,1-10.1,2.9c-2.6,1.9-4.6,4.3-6.1,7.1c-1.5,2.9-2.5,6-3,9.5c-0.5,3.5-0.8,6.8-0.8,9.9v91.3
			c0,2.6,0.3,5.4,0.8,8.4c0.5,3,1.5,5.8,3,8.3c1.5,2.5,3.5,4.6,6,6.4c2.5,1.7,5.9,2.6,10,2.6c6.8,0,11.7-2.1,15-6.2
			c3.2-4.2,4.9-10.7,5.1-19.8l21.1,3.6c-0.3,13-3.9,23.1-10.5,30.4c-6.7,7.3-16.7,10.9-30,10.9c-13.7,0-23.9-3.8-30.7-11.4
			c-6.8-7.6-10.1-18.4-10.1-32.2V89.2c0-6.4,0.6-12.7,1.7-18.9c1.1-6.2,3.2-11.6,6.1-16.4c2.9-4.8,7.1-8.6,12.5-11.6
			C37.9,39.4,44.7,38,53,38z"/>
		<path class="st1" d="M162,220.7h-22.4L105.8,39.5h21.1l13.5,76.4l10.1,62.9h0.8l10.4-63.4l13.8-75.9h21.1L162,220.7z"/>
	</g>
	<g class="st0">
		<path class="st1" d="M233,115.5V40.3h8.5v75.2H233z"/>
		<path class="st1" d="M272.9,115.5h-9.8l-12.7-53.4h9.1l4.6,22l3.9,18.7h0.3l4-19.1l4.4-21.6h9L272.9,115.5z"/>
		<path class="st1" d="M314,110.8c-1.4,1.9-3.1,3.3-4.9,4.1s-3.9,1.2-6.2,1.2c-2.2,0-4.1-0.5-5.6-1.4c-1.5-0.9-2.7-2.1-3.6-3.6
			c-0.9-1.5-1.5-3.1-1.9-5c-0.4-1.8-0.6-3.7-0.6-5.7c0-2,0.2-4,0.6-6c0.4-2,1.2-3.9,2.3-5.5c1.1-1.7,2.6-3,4.4-4
			c1.9-1,4.3-1.6,7.2-1.6h8.4v-7.1c0-2.1-0.5-3.7-1.5-5c-1-1.2-2.8-1.8-5.6-1.8c-1.4,0-2.8,0.4-4.2,1.3c-1.4,0.9-2.2,2.3-2.6,4.2
			l-8.1-2.3c0.8-3.5,2.5-6.3,5.2-8.3c2.7-2,6-3,10.2-3c4.8,0,8.5,1.1,11.2,3.3c2.6,2.2,3.9,6,3.9,11.5v39.3h-8.5v-4.6H314z
			 M314.2,90.9h-6.3c-2.2,0-4.2,0.7-5.9,2c-1.7,1.3-2.5,3.7-2.5,7.2c0,2.5,0.5,4.4,1.6,5.8c1.1,1.3,2.8,2,5.1,2c2.7,0,4.7-0.8,6-2.3
			c1.3-1.5,2-3.6,2-6.3V90.9z"/>
		<path class="st1" d="M341.7,67.4h0.2c2.5-3.9,6.1-5.8,10.9-5.8c3.9,0,6.9,1.3,8.9,3.8c2,2.6,3,5.9,3,10v40.1h-8.5V77.7
			c0-2.3-0.5-4.1-1.6-5.5c-1.1-1.3-2.8-2-5.1-2c-2.3,0-4.1,0.8-5.6,2.3c-1.4,1.5-2.1,3.5-2.1,6v36.9h-8.5V62.1h8.6V67.4z"/>
	</g>
	<g class="st0">
		<path class="st1" d="M258.8,210.5v-34.7h-17.5v34.7h-8.5v-75.2h8.5v33h17.5v-33h8.5v75.2H258.8z"/>
		<path class="st1" d="M289.3,163.2c1.4-2.7,3-4.6,4.8-5.5c1.8-0.9,4.1-1.4,6.8-1.4h1v10.3c-0.6-0.1-1.1-0.1-1.6-0.2
			c-0.5,0-1-0.1-1.5-0.1c-3.1,0-5.5,0.7-7.2,2.2c-1.7,1.5-2.5,4.1-2.5,7.8v34h-8.5v-53.4h8.5v6H289.3z"/>
		<path class="st1" d="M325.6,219.4c-0.9,3.6-2.2,6.5-4.1,8.7c-1.9,2.2-4.7,3.3-8.5,3.3h-3.2v-7.3h2.2c2,0,3.5-0.7,4.4-2
			c0.9-1.3,1.7-3.8,2.5-7.4l0.9-3.8l-14.1-53.8h9.1l4.5,20.4l4.3,18.5h0.3l4-18.7l4.4-20.2h8.7L325.6,219.4z"/>
		<path class="st1" d="M356.1,162.4h0.2c2.5-3.9,6.1-5.8,10.9-5.8c3.9,0,6.9,1.3,8.9,3.8c2,2.6,3,5.9,3,10v40.1h-8.5v-37.8
			c0-2.3-0.6-4.1-1.8-5.5c-1.2-1.3-3-2-5.4-2c-2.3,0-4.1,0.7-5.4,2.1c-1.3,1.4-1.9,3.3-1.9,5.8v37.4h-8.5v-78.4h8.6V162.4z"/>
		<path class="st1" d="M405.4,156.4c3,0,5.5,0.4,7.4,1.2c1.9,0.8,3.4,1.9,4.6,3.3c1.2,1.4,2,3.1,2.5,5c0.5,1.9,0.8,4,1,6.2
			c0.1,2.1,0.3,4.3,0.3,6.7c0.1,2.4,0.1,4.5,0.1,6.4c0,4.1-0.2,8.2-0.6,12.3c-0.4,2.9-1.1,5.2-2.2,7c-1.1,1.8-2.4,3.2-4,4.2
			s-3.2,1.7-5,2.1c-1.8,0.4-3.6,0.5-5.3,0.5c-2.2,0-4.2-0.3-5.8-0.9c-1.6-0.6-3-1.3-4.2-2.3c-1.2-0.9-2.1-2-2.8-3.3
			c-0.7-1.3-1.3-2.5-1.6-3.8c-0.2-0.9-0.4-1.9-0.5-3.2c-0.1-1.3-0.2-2.7-0.3-4.3c0-1.5-0.1-3.1-0.1-4.7c0-1.6-0.1-3.1-0.1-4.4
			c0-1.8,0-3.7,0.1-5.6c0.1-1.9,0.2-3.7,0.3-5.5s0.3-3.3,0.5-4.7c0.2-1.4,0.5-2.5,0.9-3.4c1-2.7,2.7-4.9,5.1-6.5
			C398.1,157.2,401.3,156.4,405.4,156.4z M405.1,164.3c-1.4,0-2.7,0.3-3.9,1s-2.1,1.8-2.7,3.4c-0.4,1-0.7,3.1-0.9,6.3
			c-0.1,3.2-0.3,6.9-0.3,11.3c0,2.4,0,4.7,0.1,6.9c0.1,2.3,0.3,4,0.6,5.2c1,3.3,3.4,5,7.1,5c1.5,0,2.8-0.4,4-1.3
			c1.1-0.9,2-2.1,2.6-3.5c0.1-0.4,0.3-1,0.4-2c0.1-1,0.3-2.1,0.4-3.4c0.1-1.3,0.2-2.7,0.2-4.3c0-1.5,0.1-3,0.1-4.5s0-3-0.1-4.5
			c0-1.5-0.1-2.9-0.1-4.3c0-1.4-0.1-2.6-0.2-3.7c-0.1-1.1-0.3-1.9-0.5-2.6C410.9,165.9,408.6,164.3,405.1,164.3z"/>
	</g>
	<g class="st0">
		<path class="st1" d="M441,163.2c1.4-2.7,3-4.6,4.8-5.5c1.8-0.9,4.1-1.4,6.8-1.4h1v10.3c-0.6-0.1-1.1-0.1-1.6-0.2
			c-0.5,0-1-0.1-1.5-0.1c-3.1,0-5.5,0.7-7.2,2.2c-1.7,1.5-2.5,4.1-2.5,7.8v34h-8.5v-53.4h8.5v6H441z"/>
	</g>
	<g class="st0">
		<path class="st1" d="M459.4,144v-8.6h8.5v8.6H459.4z M459.4,210.5v-53.4h8.5v53.4H459.4z"/>
		<path class="st1" d="M494.5,203.4c2.1,0,3.7-0.7,4.7-2.1s1.7-3.4,1.8-5.9l8.6,1.6c-0.3,4.6-1.7,8.1-4.3,10.6
			c-2.5,2.4-6.4,3.7-11.6,3.7c-2.3,0-4.3-0.3-5.9-0.9s-3.1-1.4-4.2-2.4c-1.1-1-2.1-2.1-2.7-3.3s-1.2-2.4-1.5-3.7
			c-0.2-0.9-0.4-1.9-0.5-3.2c-0.1-1.3-0.3-2.7-0.3-4.3s-0.1-3.1-0.2-4.7c0-1.6-0.1-3.1-0.1-4.4c0-1.8,0-3.6,0.1-5.5
			c0-1.8,0.1-3.6,0.3-5.2s0.3-3.2,0.5-4.6s0.5-2.6,0.9-3.5c1-2.8,2.7-5,5-6.7c2.3-1.7,5.5-2.5,9.5-2.5c5.3,0,9.1,1.5,11.5,4.4
			c2.4,3,3.6,7,3.6,12.2v13.2h-22.9c0,2.4,0.1,4.7,0.2,7c0.1,2.3,0.3,4.1,0.7,5.3C488.7,201.7,491,203.4,494.5,203.4z M501.2,179.3
			v-4.5c0-1.4-0.1-2.7-0.3-3.9c-0.2-1.3-0.5-2.4-1-3.3s-1.2-1.7-2.1-2.2c-0.9-0.5-2.1-0.8-3.5-0.8c-1.3,0-2.5,0.3-3.6,0.9
			c-1.1,0.6-2,1.7-2.6,3.4c-0.4,1-0.6,2.4-0.8,4.1c-0.1,1.7-0.3,3.9-0.3,6.4H501.2z"/>
		<path class="st1" d="M538.8,210.5H529l-12.7-53.4h9.1l4.6,22l3.9,18.7h0.3l4-19.1l4.4-21.6h9L538.8,210.5z"/>
	</g>
</g>
</svg>
