<?xml version="1.0" encoding="utf-8"?>
<!-- Generator: Adobe Illustrator 21.1.0, SVG Export Plug-In . SVG Version: 6.00 Build 0)  -->
<svg version="1.1" id="Слой_1" xmlns="http://www.w3.org/2000/svg" xmlns:xlink="http://www.w3.org/1999/xlink" x="0px" y="0px"
	 viewBox="0 0 512 512" style="enable-background:new 0 0 512 512;" xml:space="preserve">
<style type="text/css">
	.st0{fill:#8CDDFF;stroke:#8CDDFF;stroke-width:14;stroke-miterlimit:10;}
</style>
<title>my-telegram</title>
<path class="st0" d="M99,181.6c1.9-26.6,9.9-50.1,26.1-70.2c46.9-58,132.9-59,181.5-1.9c5.5,6.4,9.4,8.5,18.2,6
	c51.3-14.5,100.1,19.9,104.9,73c0.3,3.9,0.5,7.8,0.6,10.3c13.5,6.2,27.4,10.5,38.8,18.4c28.5,19.7,39.2,54.5,29,87.4
	c-10.2,33.2-38.3,55.2-74.6,56.2c-38.1,1-76.2,0.3-114.3,0.3c-7.2,0-13.7-2.1-13.5-10.4c0.2-8.4,6.7-9.9,13.9-9.8
	c37.7,0.1,75.4,0.3,113.1-0.1c30.8-0.3,56.1-22.7,59.2-51.4c3.5-32.3-15.7-59.6-46.9-66.6c-8.6-1.9-20.1-1-24.8-6.3
	c-4.2-4.7-0.8-16.2-1-24.7c-0.9-43.3-46.3-72.4-86.5-54.5c-12.6,5.6-18.7,3.6-26.3-7.7c-24.5-36.3-68.7-51-109.7-37.9
	c-40.1,12.8-67.8,50.4-67.5,93.4c0.1,13.1-4,17.3-17.1,17.5c-40.5,0.5-70,30.9-69.6,70c0.4,38.5,31.3,68,71.8,68.3
	c32.9,0.2,65.8-0.3,98.8,0.4c5,0.1,12.6,3.2,14.5,7.1c3.6,7.4-2.1,12.8-9.6,12.8c-38.5,0.1-77.3,2-115.6-1.2
	C45.8,356,12.8,317.8,12,272.7c-0.8-44.9,32.7-83.1,79.2-90.2C93.3,182.2,95.5,182,99,181.6z"/>
<path class="st0" d="M247.8,432.4c0-7.7,0-11.8,0-15.9c0-49.7,0-99.5,0-149.2c0-7.7-0.1-16.3,10-16.2c9.9,0.1,10.2,8.7,10.2,16.4
	c0,48.9,0,97.7,0,146.6c0,4.7,0,9.4,0,14.3c10.8-9.9,21.1-19.2,31.4-28.6c2.9-2.6,5.1-6.9,8.4-7.8c3.9-1.1,9.6-0.6,12.5,1.7
	c2,1.6,2.5,9.1,0.6,11.2c-18.6,20.4-37.6,40.6-57.4,59.9c-2.1,2.1-11.4,0.4-14.4-2.5c-17.9-17.6-35.3-35.7-51.9-54.4
	c-2.8-3.2-1.1-10.5-1.4-15.9c5.3,0.9,12.4,0,15.7,3C223.4,405.8,234.1,418.1,247.8,432.4z"/>
<path class="st0" d="M142.5,192.5c1.6-37.4,23-66.9,53.1-78.4c7-2.7,14.8-4.5,16.8,4.5c0.9,3.9-4.4,11.9-8.8,13.8
	c-24.9,11-37.9,29.7-41.3,56.4c-0.6,5-6.3,9.4-9.7,14C148.4,198.6,144.2,194.3,142.5,192.5z"/>
</svg>
