<svg xmlns="http://www.w3.org/2000/svg" viewBox="0 0 409.17 504.61"><title>certificate</title><path d="M460.52,452.58l-52.37-3.28c-5.58-.35-11.16-1-16.74-1-1.54,0-3.73,1.68-4.49,3.17-9.28,18.32-18.34,36.74-27.46,55.14-.73,1.46-1.47,2.92-2.55,5.06l-78.7-135.78c-14.81,7-29.48,6.73-45-1.84l-78.38,137.7c-1.11-2.05-1.84-3.33-2.51-4.64-9.56-18.65-19.18-37.27-28.57-56-1.41-2.81-3.08-3.09-5.81-2.9-21.81,1.51-43.62,2.87-66.56,4.35l80.52-141.79c-3.3-.79-6-1.53-8.66-2-26.23-5-42.45-32-33.68-57.38,3.59-10.38,1.73-17.54-6.65-24.68-20-17.06-19.66-48.92.13-66.26,9.65-8.46,10.52-11.72,6.4-24.1-8.46-25.43,7.79-53,34.09-57.74,11.64-2.12,15.41-5.85,17.78-17.58,5.2-25.76,32.5-41.47,57.55-33.14,12.3,4.09,15.33,2.8,24.25-6.3,8.28-8.44,18.17-13.71,30.74-14.33,16.3-.8,29.14,4.52,39.33,17.14,5.43,6.72,12.38,6.73,20.12,4,14.32-5,28.19-3.75,41,4.76a42.79,42.79,0,0,1,19,28.78c2.12,11.25,5.56,14.3,16.93,16.7,28.54,6,43.71,32.77,34.4,59-3.66,10.3-2.29,15,6,22.11a44.5,44.5,0,0,1,.36,67.69c-8.95,7.81-10,11.72-6.25,22.9,5.49,16.38,2.53,31.36-8.78,44.16a45.36,45.36,0,0,1-25.3,14.23c-3.61.75-7.13,1.91-11.55,3.12ZM328.9,332.24a15.32,15.32,0,0,0,15.36-12c.84-3.34,1.23-6.83,2.39-10.05,6.1-17,18.31-26.81,35.93-30,5.13-.93,9.34-3,12.11-7.57,3.26-5.35,1.88-10.65.1-16.12-6.7-20.62-.43-39.38,17.16-52,6.27-4.5,6.43-16.78.28-21.34-18.44-13.67-24.2-31.56-17.16-53.28,4-12.42-.43-20.1-13.14-22.7q-30.52-6.23-37.06-36.69C342,57.07,335.11,52.9,322,56.95c-20.19,6.24-37.52,2.49-51.77-13.72-8.63-9.81-17.35-9.63-26.24.19-14.19,15.67-31.35,20-51.35,13.53-12.74-4.1-20.37.24-22.95,13.37-2.21,11.25-7.44,20.61-16.42,27.81-6.59,5.29-14.27,7.75-22.49,9.24-11.51,2.08-16.18,10.3-12.7,21.41a70.43,70.43,0,0,1,2.34,8c3.35,18-2.42,32.53-16.16,44.4-9,7.77-9.06,17.17-.23,24.87,16.65,14.51,21.27,32,14,52.84-3.63,10.47,1.23,18.56,11.92,21.14,5.7,1.38,11.66,2.6,16.8,5.26,13.1,6.78,20.54,18,23,32.56,1.19,7.15,4.71,12.51,12.06,13.83,3.34.6,7-.72,10.54-1.14,7.26-.88,14.61-2.9,21.76-2.36,12.58,1,22.87,7.14,31.09,17,7.1,8.53,16.92,8.26,24.23,0,1.31-1.48,2.55-3,4-4.39,10.57-10.19,23-15,37.74-12.65C317.29,329.15,323.29,330.93,328.9,332.24Zm-180.62,11-44.4,76.37c11.31-.77,21.15-1.28,31-2.17,4.22-.38,6.75.39,8.64,4.77,3.82,8.86,8.46,17.37,13.1,26.69l51.79-91.1-.22-1.3C185.11,366.15,165,363.08,148.28,343.2ZM303.12,357l-.61,1.31,52.67,90.26c4.6-9.31,9.18-18,13.22-27,1.66-3.7,3.77-4.51,7.54-4.16,9.78.91,19.59,1.4,30.48,2.13l-42-73.93c-15.58,16.19-34.19,20.24-54.22,12.52C308,357.29,305.48,357.35,303.12,357Z" transform="translate(-51.36 -7.17)" style="fill:#8cddff"/><path d="M256.57,302.48c-58.84-1.17-105.08-47.93-103.73-104.89C154.23,139.16,201,94.21,259.12,95.36c57.19,1.13,103.41,48,102.67,104C361,260,312.05,302,256.57,302.48ZM332.2,199c.8-40.41-36-74.32-74.8-74.12-41.65.21-74.63,32.32-75,73.61-.37,41,33,74.26,74.74,74.42C296.55,273.05,332.75,239.25,332.2,199Z" transform="translate(-51.36 -7.17)" style="fill:#8cddff"/></svg>