<?xml version="1.0" encoding="utf-8"?>
<!-- Generator: Adobe Illustrator 21.1.0, SVG Export Plug-In . SVG Version: 6.00 Build 0)  -->
<svg version="1.1" id="Слой_1" xmlns="http://www.w3.org/2000/svg" xmlns:xlink="http://www.w3.org/1999/xlink" x="0px" y="0px"
	 viewBox="0 0 512 512" style="enable-background:new 0 0 512 512;" xml:space="preserve">
<style type="text/css">
	.st0{fill:#8CDDFF;}
</style>
<title>my-telegram</title>
<path class="st0" d="M0.5,253.5c2.4-7.7,8.2-9.8,15.5-9.8c26.3,0,52.7-0.1,79,0.1c10.4,0,14.9,4,15.4,13c0.5,10-4.1,15-14.7,15
	c-21.2,0.2-42.3,0.1-63.5,0.1c-5.3,0-10.7-0.1-16,0c-7.3,0.2-13.1-1.9-15.7-9.5C0.5,259.5,0.5,256.5,0.5,253.5z"/>
<path class="st0" d="M0.5,117.5c3.1-8.3,9.3-11.2,17.9-11.1c25.6,0.3,51.2,0,76.9,0.1c10.8,0,17.7,9.3,14.1,18.8
	c-2.1,5.7-6.4,9.1-12.5,9.1c-27.6,0.1-55.2,0.1-82.8,0c-6.9,0-10.5-4.7-13.6-10C0.5,122.2,0.5,119.8,0.5,117.5z"/>
<path class="st0" d="M0.5,391.5c3.4-8.1,9.6-10.9,18.2-10.8c24.5,0.3,49,0.1,73.5,0.1c1.2,0,2.3,0,3.5,0c8.6,0.4,14.6,6.2,14.6,14
	c0,7.8-6,13.9-14.5,14c-27,0.2-54,0-81,0.1c-7.3,0-11.4-4.4-14.4-10.4C0.5,396.2,0.5,393.8,0.5,391.5z"/>
<path class="st0" d="M49.6,417.8c6,0,11.3,0,16.6,0c11.2,0,22.3,0.2,33.5-0.1c12.8-0.4,22.6-10.7,22.8-23.3
	c0.2-12.8-9.4-23.7-22.4-24.1c-14.6-0.5-29.3-0.2-44-0.2c-2,0-3.9,0-6.2,0c0-29.5,0-58.4,0-88.2c1.9,0,3.8,0,5.7,0
	c14.8-0.1,29.7,0.2,44.5-0.3c9.7-0.3,16.6-5.6,20.4-14.4c3.7-8.7,2.4-17.1-3.6-24.4c-5.3-6.5-12.7-8.8-20.9-8.8c-13.5,0-27,0-40.5,0
	c-1.8,0-3.6,0-5.6,0c0-30,0-59.4,0-89.4c1.8-0.1,3.6-0.2,5.4-0.2c14.3,0,28.7,0.1,43-0.1c12.1-0.2,21.3-7.6,23.9-18.9
	c2.5-10.5-2.6-21.7-12.5-26.3c-3.6-1.7-8-2.5-12-2.6c-14-0.3-28-0.1-42-0.1c-1.8,0-3.6,0-5.1,0c-0.4-0.8-0.7-1-0.7-1.3
	c0.1-15.6-0.9-31.4,0.7-46.9c2.8-27.3,26-47.4,53.6-47.6c54.5-0.2,109-0.1,163.5-0.1c62.7,0,125.3,0,188,0
	c26.7,0,47.9,16.3,54.2,41.6c1.2,4.6,1.7,9.5,1.7,14.3c0.1,132.8,0.1,265.6,0.1,398.4c0,33.1-23.6,56.6-56.7,56.6
	c-115.8,0-231.6,0-347.4,0c-34.2,0-57.7-23.6-57.7-57.9C49.6,441.9,49.6,430.3,49.6,417.8z M81.7,64.5c7.3,0,14.1-0.2,20.9,0
	c30.9,1.1,56,30.5,52.2,61.2c-3.7,30.3-27.7,51.6-58.1,51.8c-4.9,0-9.9,0-14.9,0c0,8.2,0,15.8,0,24.1c6.5,0,12.9-0.4,19.1,0.1
	c21.3,1.7,37.9,11.6,47.5,30.9c9.7,19.3,8.1,38.5-3.8,56.4c-10.8,16.3-26.7,24.1-46.1,24.6c-5.6,0.1-11.2,0-16.6,0
	c0,8.6,0,16.4,0,24.8c6.6,0,12.9-0.3,19.2,0c33.4,1.6,58.1,34.3,50.9,67c-5.8,26.1-27.1,43.7-53.8,44.4c-5.8,0.1-11.6,0-17.2,0
	c-2.2,17.9,7.4,29.1,24.3,29.1c116.7,0,233.3,0,350,0c15,0,24.4-9.4,24.4-24.3c0.4-132.2,0.8-264.3,1.2-396.5
	c0-16.6-9-25.6-25.6-25.6c-88.8,0-177.7,0-266.5,0c-27.8,0-55.7,0-83.5,0c-12.2,0-21.7,8.1-23.3,19.8C81.3,56,81.7,59.9,81.7,64.5z"
	/>
<path class="st0" d="M242.7,237c-30-36-20.5-80.6,6.7-104.8c28.6-25.3,71.7-25.2,100.4,0.4c28,25,35.3,70.8,7.3,104
	c9.1,7.3,18.6,14,27.1,21.9c28.9,27.1,45.4,60.6,50.5,99.9c1.5,11.6,0.3,22.2-7,31.7c-5.2,6.9-12.1,10.7-20.7,11.5
	c-2.5,0.2-5,0.3-7.5,0.3c-66.5,0-133,0-199.4,0c-23.3,0-37.9-15.4-35.6-38.6c5.1-51.8,29.5-92.5,72.4-122c1.6-1.1,3.3-2.2,5-3.3
	C242.1,237.8,242.3,237.5,242.7,237z M196.6,369c69.3,0,137.9,0,206.8,0c-0.4-4.2-0.7-8-1.2-11.8c-6-47.3-39.7-93.9-101-106.2
	c-0.9-0.2-2-0.3-2.9-0.1c-18.5,4-36.1,10.3-51.5,21.9C215.2,296.9,198.9,329,196.6,369z M342.4,190.8c0.2-22.6-15.3-41.2-35.3-44.3
	c-22.3-3.5-42.5,8.5-49.1,29.2c-6.3,19.8,3.1,41.3,22.2,50.8c5.5,2.7,11.1,5.3,16.7,7.7c1.5,0.6,3.6,0.8,5,0.2
	c6.1-2.6,12.3-5.2,18.1-8.4C334.5,218,341.5,205.2,342.4,190.8z"/>
</svg>
