<?xml version="1.0" encoding="utf-8"?>
<!-- Generator: Adobe Illustrator 21.1.0, SVG Export Plug-In . SVG Version: 6.00 Build 0)  -->
<svg version="1.1" id="Слой_1" xmlns="http://www.w3.org/2000/svg" xmlns:xlink="http://www.w3.org/1999/xlink" x="0px" y="0px"
	 viewBox="0 0 512 512" style="enable-background:new 0 0 512 512;" xml:space="preserve">
<style type="text/css">
	.st0{fill:#8CDDFF;}
	.st1{fill:#8CDDFF;stroke:#8CDDFF;stroke-width:10;stroke-miterlimit:10;}
	.st2{fill:#8CDDFF;stroke:#8CDDFF;stroke-width:13;stroke-miterlimit:10;}
	.st3{fill:#8CDDFF;stroke:#8CDDFF;stroke-width:8;stroke-miterlimit:10;}
	.st4{fill:#8CDDFF;stroke:#8CDDFF;stroke-width:40;stroke-miterlimit:10;}
	.st5{fill:#8CDDFF;stroke:#8CDDFF;stroke-width:6;stroke-miterlimit:10;}
	.st6{fill:#8CDDFF;stroke:#8CDDFF;stroke-width:15;stroke-miterlimit:10;}
</style>
<title>my-telegram</title>
<path class="st0" d="M-748.3,1125c-141.4,0-256,114.6-256,256s114.6,256,256,256s256-114.6,256-256S-606.9,1125-748.3,1125z
	 M-631.7,1285.6l-42,198c-3.1,14-11.5,17.5-23.1,10.8l-64-47.2l-30.9,29.8c-3.4,3.4-6.3,6.3-12.9,6.3l4.5-65.1l118.6-107.2
	c5.2-4.5-1.1-7.1-8-2.6l-146.5,92.3l-63.2-19.7c-13.7-4.4-14-13.7,2.9-20.3l246.8-95.2C-638,1261.4-628,1268.3-631.7,1285.6
	L-631.7,1285.6z"/>
<path class="st1" d="M499,1078c1.8,0.3,3.6,0.7,5.4,0.8c25.6,2,45.8,13.8,61.7,33.3c6,7.3,11,15.3,14.9,23.9
	c0.8,1.7,1.8,2.7,3.6,3.3c4.9,1.5,8.9,4.5,11.6,8.8c4.3,6.7,8.4,13.4,12.3,20.3c2.9,5.1,2.8,10.7,1.5,16.2
	c-1.4,6.1-3.1,12.1-4.6,18.1c-0.1,0.5-0.2,0.9-0.4,1.5c0.6,0.4,1.1,0.9,1.7,1.3c7.4,5.2,11.4,12.5,12.3,21.3
	c1.2,11.8-1.3,23.1-5.7,34c-4.6,11.2-10.8,21.3-19.8,29.6c-1.5,1.4-2.6,3.2-3.4,5.1c-6,13.5-13.3,26.3-22.7,37.8
	c-5.9,7.2-12.8,13.5-19.8,19.6c-1.1,1-2.2,2-3.4,3.1c0.4,0.7,0.6,1.4,1,2c2.3,3.4,4.6,6.8,6.9,10.2c2.4,3.6,5.8,5.8,9.9,7.1
	c9.7,3,19.4,5.9,29,9c22.9,7.4,45.8,14.9,68.2,24c11,4.5,21.4,10,31.4,16.3c3.2,2,5.8,4.7,8,7.8c2.1,3,2.2,6.2,0.3,9.4
	c-2.3,4-7.1,6.3-11.4,5.1c-1.3-0.4-2.8-1-3.7-2c-5.7-5.3-12.4-9.2-19.5-12.4c-18-8-36.4-15.1-55.1-21.2c-14.6-4.8-29.4-9.3-44-14.1
	c-2.8-0.9-5-0.4-7.3,1.3c-20.8,15.1-41.7,30.1-62.6,45.2c-1.4,1-2.7,1.9-4.2,2.7c-3.6,2-7.2,1.7-10.6-0.6c-0.9-0.6-1.8-1.4-2.6-2.1
	c-17.8-15.9-35.6-31.8-53.4-47.7c-0.3-0.3-0.6-0.5-0.9-0.8c-1.4-1.5-3-1.7-5-1.1c-7.4,2.5-14.9,4.8-22.3,7.3
	c-17.9,5.9-35.8,11.7-53.5,18c-10.5,3.7-20.8,8.2-31,12.7c-5.5,2.4-10.7,5.7-16,8.6c-1.3,0.7-1.5,1.7-1.6,3
	c-0.3,4.7-0.6,9.5-0.9,14.2c-0.9,14-1.9,28-2.8,42.1c-0.8,12.8-1.4,25.7-2.1,38.6c-0.3,5.9-0.5,11.8-0.7,17.8c0,0.5,0,1.1,0,1.8
	c0.5,0.1,0.9,0.3,1.4,0.3c12.3,0.2,24.6,0.7,36.9,0.4c20.2-0.6,40.3-0.4,60.5-0.4c49.4-0.1,98.7-0.1,148.1-0.1
	c27.8,0,55.5-0.1,83.3-0.1c2.2,0,4.5,0.1,6.7,0.6c4.4,0.9,6.9,3.8,7.5,8.2c0.5,4-1.4,7.7-5,9.7c-0.9,0.5-1.7,1.1-2.6,1.6
	c-116.8,0-233.6,0-350.4,0c-1.1-0.6-2.2-1.2-3.3-1.8c-2.4-1.3-4.1-3.2-4.6-6c-0.1-0.8-0.5-1.5-0.8-2.2c0-0.3,0-0.6,0-0.9
	c0.3-1.9,0.7-3.7,0.9-5.6c0.3-4,0.5-8,0.7-12.1c0.7-11.2,1.5-22.4,2.2-33.6c0.7-11.2,1.4-22.4,2.1-33.6c0.9-14.4,1.9-28.8,2.7-43.3
	c0.3-4.9,2.2-8.7,5.9-11.9c6.7-5.5,14.1-9.8,22.1-13.1c22.7-9.6,45.7-18.5,69.2-26.1c12.2-4,24.6-7.6,36.9-11.3
	c10.8-3.2,17.4-10.7,21.6-20.7c-0.6-0.6-1.2-1.2-1.8-1.7c-2.2-2-4.4-3.9-6.6-5.9c-12.9-12-23.8-25.6-31.4-41.5c-2-4.1-4-8.3-6-12.4
	c-0.9-1.8-2-3.4-3.5-4.7c-4.8-4.3-8.8-9.3-12.3-14.8c-5.9-9.4-9.6-19.7-12.1-30.5c-1.6-7-1.9-14.1-0.4-21.1c1.6-7.1,4.9-13,11-17.2
	c4.1-2.8,3.6-2.1,2.6-6.9c-2.4-11.1-3.6-22.3-1.7-33.6c3.6-21.2,14.6-37.1,34.1-46.9c5.1-2.6,10.6-4.4,15.9-6.6
	c0.7-0.3,1.4-0.6,2.5-1c-0.9-0.4-1.5-0.7-2-0.9c-3.9-1.9-5.8-5.1-5.9-9.3c-0.1-1.9,0.7-3.3,2.2-4.5c0.5-0.4,1.1-0.9,1.3-1.5
	c0.8-1.9,2.2-2.8,4.1-3.2c1.1-0.2,2.1-0.7,3.2-1c1.3-0.4,2.5-1,3.8-1.3c2.3-0.5,4.7-0.9,7.1-1.3c2-0.3,3.8-1.1,5.3-2.6
	c2.2-2.2,4.9-3.6,8-4c5.8-0.7,11.6-1.6,17.4-2c7.2-0.5,14.4-0.6,21.6-0.9c1.2-0.1,2.3-0.3,3.5-0.5C492.6,1078,495.8,1078,499,1078z
	 M391.6,1215.8c-2.2,2.9-5,4.1-8.3,4.5c-0.5,0.1-0.9,0.2-1.4,0.3c-2.9,0.7-4.7,2.5-5.7,5.2c-1.2,3.3-1.6,6.6-0.9,10
	c1,4.6,1.9,9.1,3.2,13.6c3.4,11.2,9.3,20.9,18.7,28.3c2,1.5,3,3.6,3.9,5.9c6.4,16.7,16,31.4,28.1,44.6c7.4,8.1,15.9,14.9,25.9,19.6
	c6.6,3.2,13.6,5.1,20.6,7c4.8,1.4,9.8,1.6,14.7,1.2c12.8-1.1,24.5-5.2,35.3-12c12.5-7.9,22.4-18.3,30.8-30.1
	c6.2-8.7,11.1-18.1,15.2-27.9c1.6-3.8,3.8-7,6.8-9.9c2.5-2.4,4.9-5,7.1-7.7c9.1-11.3,13-24.5,13-38.8c0-5.2-2.1-7.6-7.1-9
	c-1.2-0.3-2.5-0.6-3.7-1.1c-3.8-1.6-6-4.4-6.2-8.5c-0.1-1.5,0.3-3,0.7-4.4c2.1-7.8,4.3-15.5,6.6-23.3c1.2-4.2,1-8.1-1.5-11.8
	c-2.5-3.7-4.9-7.4-7.3-11.1c-1-1.6-2.4-2.3-4.4-2.5c-5.1-0.3-8.7-2.9-10.9-7.4c-0.4-0.8-0.7-1.6-1.1-2.4c-1.6-3.4-3.1-6.8-4.8-10
	c-4.6-8.7-10.4-16.5-17.7-23.1c-11.8-10.7-25.8-16.1-41.8-16.6c-3.9-0.1-7.8,0-11.8,0c-0.6,3.4-1.8,6.3-5.2,7.7
	c0.2,0.4,0.3,0.6,0.4,0.8c4.5,7.3,0.5,15.1-8.1,15.7c-3.1,0.2-6.2,0.3-9.3,0.5c-11,0.6-22,1.8-32.7,4.7c-9.1,2.5-17.9,5.7-25.9,11
	c-8.6,5.6-14.5,13.3-17.6,23c-2.9,9.1-3,18.4-1.2,27.6c1.4,7.3,3.6,14.4,5.5,21.9c0.4-0.8,0.7-1.5,1.1-2.1
	c4.4-7.4,10.7-11.5,19.6-11.4c2.5,0,5-0.1,7.4-0.1c28.6,0,57.1-0.1,85.7-0.1c10.1,0,20.2-0.1,30.2-0.1c6.8,0,13.6-0.3,20.4-0.1
	c14.2,0.4,24.7,12.9,22.4,26.8c-1.7,10-4,20-5.8,30c-1.5,8.4-9.8,16.8-20.5,16.6c-13.4-0.1-26.9,0-40.3,0c-1.5,0-3,0-4.6,0
	c-10.2-0.4-17.5-6.1-20.3-15.8c-0.2-0.5-0.3-1.1-0.4-1.6c-0.7-3.1-1.4-6.3-2.1-9.4c-0.7,1.2-0.9,2.5-1.2,3.7
	c-0.4,2.1-0.7,4.2-1.3,6.3c-3,10.7-10.9,16.7-22.1,16.8c-14.1,0.1-28.2,0-42.2,0.2c-10.6,0.1-20.4-8.1-22.2-18.3
	c-0.7-3.8-1.4-7.6-2.2-11.4c-1-5.4-2.1-10.7-2.9-16.1C391.6,1222.2,391.8,1219.1,391.6,1215.8z M437.8,1380.9
	c16.4,14.7,32.7,29.2,49,43.8c18.1-13,35.9-25.9,53.9-39c-6.1-5.8-10.2-12.7-14.3-19.6c-12.5,6.3-25.6,9.8-39.4,9.9
	c-13.9,0-27-3.6-39.4-9.7C444.3,1371.3,441.2,1376,437.8,1380.9z M501.6,1217.4c0.5,1.9,1,3.5,1.3,5.1c1.6,8,3.2,15.9,4.7,23.9
	c0.9,4.6,0.9,4.7,5.7,4.7c12.1,0,24.1,0,36.2,0.1c0.9,0,1.8-0.1,2.6-0.1c1.4,0,2.2-0.7,2.6-2c0.1-0.5,0.3-1.1,0.4-1.6
	c1.6-8.5,3.1-17.1,4.7-25.6c0.1-0.5,0.2-1.1,0.2-1.6c0-1.7-0.3-2.1-1.9-2.5c-1.2-0.2-2.4-0.3-3.6-0.3c-16.8,0-33.6,0-50.4,0
	C503.3,1217.4,502.6,1217.4,501.6,1217.4z M470.2,1217.6c-0.3-0.1-0.5-0.1-0.6-0.1c-17.7,0-35.5,0-53.2,0.1c-0.7,0-1.4,0.1-2.1,0.3
	c-1.8,0.4-2.2,1-2.2,2.8c0,0.5,0.1,0.9,0.1,1.4c1.6,8.4,3.2,16.9,4.8,25.3c0.7,3.8,0.8,3.8,4.6,3.8c12.5,0,25.1,0,37.6,0
	c0.7,0,1.4,0,2.2-0.1c1.4,0,2.2-0.7,2.5-2.1c0.1-0.6,0.3-1.2,0.4-1.8c1.2-6.9,2.4-13.8,3.7-20.7
	C468.7,1223.5,469.5,1220.6,470.2,1217.6z"/>
<path class="st1" d="M340.6,1568c0.3,0.7,0.6,1.4,0.8,2.2c0.5,2.8,2.1,4.6,4.6,6c1.1,0.6,2.2,1.2,3.3,1.8c-2.9,0-5.8,0-8.6,0
	C340.6,1574.7,340.6,1571.4,340.6,1568z"/>
<path class="st0" d="M683.4,1564.4c0-5.5,4.5-10,10-10c4,0,8,0,11.9,0c6.7,0,13.5,0.2,20.2-0.3c8.7-0.6,14.4-6.7,15.1-15.4
	c0.1-1,0.1-2.1,0.1-3.1c0-81.2,0-329.4,0-410.6c0-10-4.6-16.5-13-18.3c-2-0.4-4.1-0.4-6.1-0.4c-39.3,0-78.6,0-117.9,0l0,0
	c-3.1,0-5.6-2.5-5.6-5.6v-17.9c0-2.6,2.1-4.7,4.7-4.7l0,0c45.2,0,90.3,0.2,135.5-0.1c16.5-0.1,31.8,11.6,31.7,31.5
	c-0.4,91.5-0.2,350-0.2,441.4c0,3.3-0.2,6.8-0.9,10c-2.7,11.3-13.3,20.7-25.2,21.1c-19.5,0.6-39,0.3-58.5,0.4l0,0
	c-1,0-1.8-0.8-1.8-1.8L683.4,1564.4z"/>
<path class="st0" d="M639.1,1148.4L639.1,1148.4c0-7.6,6.2-13.8,13.8-13.8H710c7.6,0,13.8,6.2,13.8,13.8l0,0
	c0,7.6-6.2,13.8-13.8,13.8h-57.2C645.2,1162.2,639.1,1156.1,639.1,1148.4z"/>
<path class="st0" d="M724,1204.7L724,1204.7c0,7.6-6.2,13.8-13.8,13.8h-57.2c-7.6,0-13.8-6.2-13.8-13.8l0,0
	c0-7.6,6.2-13.8,13.8-13.8h57.2C717.8,1190.9,724,1197.1,724,1204.7z"/>
<path class="st0" d="M724,1261.1L724,1261.1c0,7.6-6.2,13.8-13.8,13.8H653c-7.6,0-13.8-6.2-13.8-13.8v0c0-7.6,6.2-13.8,13.8-13.8
	h57.2C717.8,1247.3,724,1253.5,724,1261.1z"/>
<path class="st0" d="M724,1375.4L724,1375.4c0,7.6-6.2,13.8-13.8,13.8h-29c-7.6,0-13.8-6.2-13.8-13.8v0c0-7.6,6.2-13.8,13.8-13.8h29
	C717.8,1361.6,724,1367.8,724,1375.4z"/>
<path class="st1" d="M-154.6,1063c1.8,0.3,3.6,0.7,5.4,0.8c25.6,2,45.8,13.8,61.7,33.3c6,7.3,11,15.3,14.9,23.9
	c0.8,1.7,1.8,2.7,3.6,3.3c4.9,1.5,8.9,4.5,11.6,8.8c4.3,6.7,8.4,13.4,12.3,20.3c2.9,5.1,2.8,10.7,1.5,16.2
	c-1.4,6.1-3.1,12.1-4.6,18.1c-0.1,0.5-0.2,0.9-0.4,1.5c0.6,0.4,1.1,0.9,1.7,1.3c7.4,5.2,11.4,12.5,12.3,21.3
	c1.2,11.8-1.3,23.1-5.7,34c-4.6,11.2-10.8,21.3-19.8,29.6c-1.5,1.4-2.6,3.2-3.4,5.1c-6,13.5-13.3,26.3-22.7,37.8
	c-5.9,7.2-12.8,13.5-19.8,19.6c-1.1,1-2.2,2-3.4,3.1c0.4,0.7,0.6,1.4,1,2c2.3,3.4,4.6,6.8,6.9,10.2c2.4,3.6,5.8,5.8,9.9,7.1
	c9.7,3,19.4,5.9,29,9c22.9,7.4,45.8,14.9,68.2,24c11,4.5,21.4,10,31.4,16.3c3.2,2,5.8,4.7,8,7.8c2.1,3,2.2,6.2,0.3,9.4
	c-2.3,4-7.1,6.3-11.4,5.1c-1.3-0.4-2.8-1-3.7-2c-5.7-5.3-12.4-9.2-19.5-12.4c-18-8-36.4-15.1-55.1-21.2c-14.6-4.8-29.4-9.3-44-14.1
	c-2.8-0.9-5-0.4-7.3,1.3c-20.8,15.1-41.7,30.1-62.6,45.2c-1.4,1-2.7,1.9-4.2,2.7c-3.6,2-7.2,1.7-10.6-0.6c-0.9-0.6-1.8-1.4-2.6-2.1
	c-17.8-15.9-35.6-31.8-53.4-47.7c-0.3-0.3-0.6-0.5-0.9-0.8c-1.4-1.5-3-1.7-5-1.1c-7.4,2.5-14.9,4.8-22.3,7.3
	c-17.9,5.9-35.8,11.7-53.5,18c-10.5,3.7-20.8,8.2-31,12.7c-5.5,2.4-10.7,5.7-16,8.6c-1.3,0.7-1.5,1.7-1.6,3
	c-0.3,4.7-0.6,9.5-0.9,14.2c-0.9,14-1.9,28-2.8,42.1c-0.8,12.8-1.4,25.7-2.1,38.6c-0.3,5.9-0.5,11.8-0.7,17.8c0,0.5,0,1.1,0,1.8
	c0.5,0.1,0.9,0.3,1.4,0.3c12.3,0.2,24.6,0.7,36.9,0.4c20.2-0.6,40.3-0.4,60.5-0.4c49.4-0.1,98.7-0.1,148.1-0.1
	c27.8,0,55.5-0.1,83.3-0.1c2.2,0,4.5,0.1,6.7,0.6c4.4,0.9,6.9,3.8,7.5,8.2c0.5,4-1.4,7.7-5,9.7c-0.9,0.5-1.7,1.1-2.6,1.6
	c-116.8,0-233.6,0-350.4,0c-1.1-0.6-2.2-1.2-3.3-1.8c-2.4-1.3-4.1-3.2-4.6-6c-0.1-0.8-0.5-1.5-0.8-2.2c0-0.3,0-0.6,0-0.9
	c0.3-1.9,0.7-3.7,0.9-5.6c0.3-4,0.5-8,0.7-12.1c0.7-11.2,1.5-22.4,2.2-33.6c0.7-11.2,1.4-22.4,2.1-33.6c0.9-14.4,1.9-28.8,2.7-43.3
	c0.3-4.9,2.2-8.7,5.9-11.9c6.7-5.5,14.1-9.8,22.1-13.1c22.7-9.6,45.7-18.5,69.2-26.1c12.2-4,24.6-7.6,36.9-11.3
	c10.8-3.2,17.4-10.7,21.6-20.7c-0.6-0.6-1.2-1.2-1.8-1.7c-2.2-2-4.4-3.9-6.6-5.9c-12.9-12-23.8-25.6-31.4-41.5c-2-4.1-4-8.3-6-12.4
	c-0.9-1.8-2-3.4-3.5-4.7c-4.8-4.3-8.8-9.3-12.3-14.8c-5.9-9.4-9.6-19.7-12.1-30.5c-1.6-7-1.9-14.1-0.4-21.1c1.6-7.1,4.9-13,11-17.2
	c4.1-2.8,3.6-2.1,2.6-6.9c-2.4-11.1-3.6-22.3-1.7-33.6c3.6-21.2,14.6-37.1,34.1-46.9c5.1-2.6,10.6-4.4,15.9-6.6
	c0.7-0.3,1.4-0.6,2.5-1c-0.9-0.4-1.5-0.7-2-0.9c-3.9-1.9-5.8-5.1-5.9-9.3c-0.1-1.9,0.7-3.3,2.2-4.5c0.5-0.4,1.1-0.9,1.3-1.5
	c0.8-1.9,2.2-2.8,4.1-3.2c1.1-0.2,2.1-0.7,3.2-1c1.3-0.4,2.5-1,3.8-1.3c2.3-0.5,4.7-0.9,7.1-1.3c2-0.3,3.8-1.1,5.3-2.6
	c2.2-2.2,4.9-3.6,8-4c5.8-0.7,11.6-1.6,17.4-2c7.2-0.5,14.4-0.6,21.6-0.9c1.2-0.1,2.3-0.3,3.5-0.5C-161,1063-157.8,1063-154.6,1063z
	 M-262,1200.8c-2.2,2.9-5,4.1-8.3,4.5c-0.5,0.1-0.9,0.2-1.4,0.3c-2.9,0.7-4.7,2.5-5.7,5.2c-1.2,3.3-1.6,6.6-0.9,10
	c1,4.6,1.9,9.1,3.2,13.6c3.4,11.2,9.3,20.9,18.7,28.3c2,1.5,3,3.6,3.9,5.9c6.4,16.7,16,31.4,28.1,44.6c7.4,8.1,15.9,14.9,25.9,19.6
	c6.6,3.2,13.6,5.1,20.6,7c4.8,1.4,9.8,1.6,14.7,1.2c12.8-1.1,24.5-5.2,35.3-12c12.5-7.9,22.4-18.3,30.8-30.1
	c6.2-8.7,11.1-18.1,15.2-27.9c1.6-3.8,3.8-7,6.8-9.9c2.5-2.4,4.9-5,7.1-7.7c9.1-11.3,13-24.5,13-38.8c0-5.2-2.1-7.6-7.1-9
	c-1.2-0.3-2.5-0.6-3.7-1.1c-3.8-1.6-6-4.4-6.2-8.5c-0.1-1.5,0.3-3,0.7-4.4c2.1-7.8,4.3-15.5,6.6-23.3c1.2-4.2,1-8.1-1.5-11.8
	c-2.5-3.7-4.9-7.4-7.3-11.1c-1-1.6-2.4-2.3-4.4-2.5c-5.1-0.3-8.7-2.9-10.9-7.4c-0.4-0.8-0.7-1.6-1.1-2.4c-1.6-3.4-3.1-6.8-4.8-10
	c-4.6-8.7-10.4-16.5-17.7-23.1c-11.8-10.7-25.8-16.1-41.8-16.6c-3.9-0.1-7.8,0-11.8,0c-0.6,3.4-1.8,6.3-5.2,7.7
	c0.2,0.4,0.3,0.6,0.4,0.8c4.5,7.3,0.5,15.1-8.1,15.7c-3.1,0.2-6.2,0.3-9.3,0.5c-11,0.6-22,1.8-32.7,4.7c-9.1,2.5-17.9,5.7-25.9,11
	c-8.6,5.6-14.5,13.3-17.6,23c-2.9,9.1-3,18.4-1.2,27.6c1.4,7.3,3.6,14.4,5.5,21.9c0.4-0.8,0.7-1.5,1.1-2.1
	c4.4-7.4,10.7-11.5,19.6-11.4c2.5,0,5-0.1,7.4-0.1c28.6,0,57.1-0.1,85.7-0.1c10.1,0,20.2-0.1,30.2-0.1c6.8,0,13.6-0.3,20.4-0.1
	c14.2,0.4,24.7,12.9,22.4,26.8c-1.7,10-4,20-5.8,30c-1.5,8.4-9.8,16.8-20.5,16.6c-13.4-0.1-26.9,0-40.3,0c-1.5,0-3,0-4.6,0
	c-10.2-0.4-17.5-6.1-20.3-15.8c-0.2-0.5-0.3-1.1-0.4-1.6c-0.7-3.1-1.4-6.3-2.1-9.4c-0.7,1.2-0.9,2.5-1.2,3.7
	c-0.4,2.1-0.7,4.2-1.3,6.3c-3,10.7-10.9,16.7-22.1,16.8c-14.1,0.1-28.2,0-42.2,0.2c-10.6,0.1-20.4-8.1-22.2-18.3
	c-0.7-3.8-1.4-7.6-2.2-11.4c-1-5.4-2.1-10.7-2.9-16.1C-262,1207.2-261.8,1204.1-262,1200.8z M-215.8,1365.9
	c16.4,14.7,32.7,29.2,49,43.8c18.1-13,35.9-25.9,53.9-39c-6.1-5.8-10.2-12.7-14.3-19.6c-12.5,6.3-25.6,9.8-39.4,9.9
	c-13.9,0-27-3.6-39.4-9.7C-209.3,1356.3-212.4,1361-215.8,1365.9z M-152,1202.4c0.5,1.9,1,3.5,1.3,5.1c1.6,8,3.2,15.9,4.7,23.9
	c0.9,4.6,0.9,4.7,5.7,4.7c12.1,0,24.1,0,36.2,0.1c0.9,0,1.8-0.1,2.6-0.1c1.4,0,2.2-0.7,2.6-2c0.1-0.5,0.3-1.1,0.4-1.6
	c1.6-8.5,3.1-17.1,4.7-25.6c0.1-0.5,0.2-1.1,0.2-1.6c0-1.7-0.3-2.1-1.9-2.5c-1.2-0.2-2.4-0.3-3.6-0.3c-16.8,0-33.6,0-50.4,0
	C-150.3,1202.4-151.1,1202.4-152,1202.4z M-183.4,1202.6c-0.3-0.1-0.5-0.1-0.6-0.1c-17.7,0-35.5,0-53.2,0.1c-0.7,0-1.4,0.1-2.1,0.3
	c-1.8,0.4-2.2,1-2.2,2.8c0,0.5,0.1,0.9,0.1,1.4c1.6,8.4,3.2,16.9,4.8,25.3c0.7,3.8,0.8,3.8,4.6,3.8c12.5,0,25.1,0,37.6,0
	c0.7,0,1.4,0,2.2-0.1c1.4,0,2.2-0.7,2.5-2.1c0.1-0.6,0.3-1.2,0.4-1.8c1.2-6.9,2.4-13.8,3.7-20.7
	C-184.9,1208.5-184.1,1205.6-183.4,1202.6z"/>
<path class="st1" d="M106,1492.9c-0.2,0.5-0.4,1-0.5,1.5c-1.4,6.4-5,11-11.1,13.6c-9,3.8-18,7.7-27.1,11.5c-1.7,0.7-3.6,1.3-5.5,1.6
	c-4.2,0.7-8-1.8-9.2-5.8c-1.3-4.1,0.3-8.1,4.3-9.9c8.9-4,17.9-7.9,26.9-11.8c0.8-0.3,1.6-0.7,2.8-1.3c-1.1-0.5-1.8-0.9-2.5-1.2
	c-8.1-3.5-16.1-6.9-24.2-10.4c-1.3-0.6-2.6-1.2-3.8-2c-3.2-2.2-4.5-6.2-3.2-9.9c0.7-2,2-3.4,4-4.2c3.3-1.4,6.6-1.4,10,0.1
	c8.5,3.7,16.9,7.4,25.4,11.2c2,0.9,3.9,1.9,5.8,2.8c4.2,2.1,6.5,5.6,7.4,10.2c0.1,0.6,0.4,1.2,0.6,1.7
	C106,1491.3,106,1492.1,106,1492.9z"/>
<path class="st1" d="M-384.4,1553c0.3,0.7,0.6,1.4,0.8,2.2c0.5,2.8,2.1,4.6,4.6,6c1.1,0.6,2.2,1.2,3.3,1.8c-2.9,0-5.8,0-8.6,0
	C-384.4,1559.7-384.4,1556.4-384.4,1553z"/>
<path class="st1" d="M37.1,1454.8c-0.2,0.8-0.5,2.3-1,3.8c-4.1,11.9-8.2,23.7-12.4,35.6c-4.7,13.4-9.4,26.8-14.2,40.2
	c-0.7,2-1.8,4.1-3.1,5.8c-2.3,3-6.4,3.8-10,2.3c-3.7-1.6-5.7-4.8-5.1-8.7c0.4-2.6,1.2-5.2,2.1-7.8c8.4-23.7,16.8-47.3,25.2-71
	c1.1-3.2,3-5.7,5.4-8c1-1,2.4-1.2,3.7-1.4C33,1445.2,37.2,1448.9,37.1,1454.8z"/>
<path class="st1" d="M-58.8,1492.1c1.1,0.5,1.8,0.8,2.5,1.1c8.3,3.5,16.6,7,24.9,10.5c1.3,0.6,2.6,1.2,3.8,2
	c3.6,2.5,4.6,6.6,2.7,10.5c-1.9,3.8-5.9,5.7-9.9,4.6c-1.4-0.4-2.8-0.8-4.1-1.4c-9.6-4.2-19-8.7-28.7-12.5
	c-11.2-4.3-13.3-21.2-3.2-28.3c1.4-1,2.8-1.8,4.4-2.4c9.2-3.9,18.3-7.8,27.5-11.6c1.6-0.7,3.3-1.1,5-1.4c4-0.6,7.7,1.7,9.1,5.4
	c1.4,3.7,0,7.5-3.4,9.7c-0.8,0.5-1.7,0.9-2.6,1.3c-8.4,3.8-16.9,7.5-25.4,11.2C-57,1491.2-57.8,1491.6-58.8,1492.1z"/>
<path class="st0" d="M723.8,1317.5L723.8,1317.5c0,7.6-6.2,13.8-13.8,13.8h-57.2c-7.6,0-13.8-6.2-13.8-13.8l0,0
	c0-7.6,6.2-13.8,13.8-13.8H710C717.6,1303.7,723.8,1309.9,723.8,1317.5z"/>
<path class="st0" d="M-1671.6,1386.7c2.4-7.7,8.2-9.8,15.5-9.8c26.3,0,52.7-0.1,79,0.1c10.4,0,14.9,4,15.4,13c0.5,10-4.1,15-14.7,15
	c-21.2,0.2-42.3,0.1-63.5,0.1c-5.3,0-10.7-0.1-16,0c-7.3,0.2-13.1-1.9-15.7-9.5C-1671.6,1392.7-1671.6,1389.7-1671.6,1386.7z"/>
<path class="st0" d="M-1671.6,1250.7c3.1-8.3,9.3-11.2,17.9-11.1c25.6,0.3,51.2,0,76.9,0.1c10.8,0,17.7,9.3,14.1,18.8
	c-2.1,5.7-6.4,9.1-12.5,9.1c-27.6,0.1-55.2,0.1-82.8,0c-6.9,0-10.5-4.7-13.6-10C-1671.6,1255.4-1671.6,1253.1-1671.6,1250.7z"/>
<path class="st0" d="M-1671.6,1524.7c3.4-8.1,9.6-10.9,18.2-10.8c24.5,0.3,49,0.1,73.5,0.1c1.2,0,2.3,0,3.5,0
	c8.6,0.4,14.6,6.2,14.6,14c0,7.8-6,13.9-14.5,14c-27,0.2-54,0-81,0.1c-7.3,0-11.4-4.4-14.4-10.4
	C-1671.6,1529.4-1671.6,1527.1-1671.6,1524.7z"/>
<path class="st0" d="M-1622.5,1551.1c6,0,11.3,0,16.6,0c11.2,0,22.3,0.2,33.5-0.1c12.8-0.4,22.6-10.7,22.8-23.3
	c0.2-12.8-9.4-23.7-22.4-24.1c-14.6-0.5-29.3-0.2-44-0.2c-2,0-3.9,0-6.2,0c0-29.5,0-58.4,0-88.2c1.9,0,3.8,0,5.7,0
	c14.8-0.1,29.7,0.2,44.5-0.3c9.7-0.3,16.6-5.6,20.4-14.4c3.7-8.7,2.4-17.1-3.6-24.4c-5.3-6.5-12.7-8.8-20.9-8.8c-13.5,0-27,0-40.5,0
	c-1.8,0-3.6,0-5.6,0c0-30,0-59.4,0-89.4c1.8-0.1,3.6-0.2,5.4-0.2c14.3,0,28.7,0.1,43-0.1c12.1-0.2,21.3-7.6,23.9-18.9
	c2.5-10.5-2.6-21.7-12.5-26.3c-3.6-1.7-8-2.5-12-2.6c-14-0.3-28-0.1-42-0.1c-1.8,0-3.6,0-5.1,0c-0.4-0.8-0.7-1-0.7-1.3
	c0.1-15.6-0.9-31.4,0.7-46.9c2.8-27.3,26-47.4,53.6-47.6c54.5-0.2,109-0.1,163.5-0.1c62.7,0,125.3,0,188,0
	c26.7,0,47.9,16.3,54.2,41.6c1.2,4.6,1.7,9.5,1.7,14.3c0.1,132.8,0.1,265.6,0.1,398.4c0,33.1-23.6,56.6-56.7,56.6
	c-115.8,0-231.6,0-347.4,0c-34.2,0-57.7-23.6-57.7-57.9C-1622.5,1575.2-1622.5,1563.5-1622.5,1551.1z M-1590.4,1197.7
	c7.3,0,14.1-0.2,20.9,0c30.9,1.1,56,30.5,52.2,61.2c-3.7,30.3-27.7,51.6-58.1,51.8c-4.9,0-9.9,0-14.9,0c0,8.2,0,15.8,0,24.1
	c6.5,0,12.9-0.4,19.1,0.1c21.3,1.7,37.9,11.6,47.5,30.9c9.7,19.3,8.1,38.5-3.8,56.4c-10.8,16.3-26.7,24.1-46.1,24.6
	c-5.6,0.1-11.2,0-16.6,0c0,8.6,0,16.4,0,24.8c6.6,0,12.9-0.3,19.2,0c33.4,1.6,58.1,34.3,50.9,67c-5.8,26.1-27.1,43.7-53.8,44.4
	c-5.8,0.1-11.6,0-17.2,0c-2.2,17.9,7.4,29.1,24.3,29.1c116.7,0,233.3,0,350,0c15,0,24.4-9.4,24.4-24.3
	c0.4-132.2,0.8-264.3,1.2-396.5c0-16.6-9-25.6-25.6-25.6c-88.8,0-177.7,0-266.5,0c-27.8,0-55.7,0-83.5,0c-12.2,0-21.7,8.1-23.3,19.8
	C-1590.8,1189.2-1590.4,1193.1-1590.4,1197.7z"/>
<path class="st0" d="M-1429.4,1370.2c-30-36-20.5-80.6,6.7-104.8c28.6-25.3,71.7-25.2,100.4,0.4c28,25,35.3,70.8,7.3,104
	c9.1,7.3,18.6,14,27.1,21.9c28.9,27.1,45.4,60.6,50.5,99.9c1.5,11.6,0.3,22.2-7,31.7c-5.2,6.9-12.1,10.7-20.7,11.5
	c-2.5,0.2-5,0.3-7.5,0.3c-66.5,0-133,0-199.4,0c-23.3,0-37.9-15.4-35.6-38.6c5.1-51.8,29.5-92.5,72.4-122c1.6-1.1,3.3-2.2,5-3.3
	C-1430,1371-1429.8,1370.7-1429.4,1370.2z M-1475.5,1502.2c69.3,0,137.9,0,206.8,0c-0.4-4.2-0.7-8-1.2-11.8
	c-6-47.3-39.7-93.9-101-106.2c-0.9-0.2-2-0.3-2.9-0.1c-18.5,4-36.1,10.3-51.5,21.9C-1456.9,1430.1-1473.2,1462.2-1475.5,1502.2z
	 M-1329.7,1324.1c0.2-22.6-15.3-41.2-35.3-44.3c-22.3-3.5-42.5,8.5-49.1,29.2c-6.3,19.8,3.1,41.3,22.2,50.8
	c5.5,2.7,11.1,5.3,16.7,7.7c1.5,0.6,3.6,0.8,5,0.2c6.1-2.6,12.3-5.2,18.1-8.4C-1337.6,1351.2-1330.6,1338.4-1329.7,1324.1z"/>
<path class="st0" d="M1413.8,1397.8c10.4,2.4,20.6,3.9,30.2,7.1c45.8,15.3,76.7,55.6,79.2,103.6c1,20.3,0.5,40.8,0.3,61.1
	c-0.1,8.5-4.9,12.6-14.2,12.6c-39.6,0-79.2,0-118.9,0c-61.5,0-123,0-184.6,0c-12.4,0-16.1-3.6-16-16c0.2-21.5-0.9-43.2,1.2-64.5
	c5.2-54.5,49.5-97.4,103.9-102.5c1.5-0.1,2.9-0.4,5.1-0.7c-1.1-1.6-1.7-2.6-2.5-3.5c-13.8-15.5-20.5-33.6-20.7-54.2
	c-0.2-20-0.2-40,0-60c0.4-37,28.1-64.3,65.2-64.4c26.5-0.1,53,0,79.4,0c11,0,15.1,4.1,15.2,15.2c0,35.4-0.1,70.9,0,106.3
	c0.1,22.1-6.5,41.5-21.5,58C1414.7,1396.4,1414.3,1397.1,1413.8,1397.8z M1212.9,1559c96.1,0,191.8,0,287.7,0
	c0-16.3,0.5-32.1-0.1-47.9c-1.5-43.9-33.9-80.5-77.2-88.2c-3.5-0.6-5.6,0.2-7.9,2.6c-15.7,15.9-31.5,31.6-47.3,47.3
	c-8.8,8.8-13.9,8.9-22.6,0.1c-15.9-15.9-31.7-31.9-47.8-47.6c-1.6-1.6-5-2.6-7.3-2.2c-22.1,3.5-40.4,14.1-55,31
	c-12.1,14-19.4,30.2-21.7,49.4c3.1,0,5.7,0,8.3,0c26.3,0,52.6,0,78.9,0c1.7,0,3.4-0.1,5.1,0.1c7,0.8,11.7,5.7,11.4,11.9
	c-0.3,6.4-5.1,10.8-12.4,10.8c-28.4,0.1-56.8,0.1-85.2,0.1c-2.2,0-4.4,0-6.9,0C1212.9,1537.6,1212.9,1548.1,1212.9,1559z
	 M1413.9,1311.9c-14,9.7-28.5,8.8-43,8.8c-21.5-0.1-43,0-64.5,0c-2,0-4.1,0-6.8,0c0,6.9,0,13.1,0,19.3c0.1,15.5,4.9,29.2,15.7,40.5
	c14.2,14.8,31.8,21,51.9,17c21.1-4.2,35.7-17,43.1-37.4C1415.9,1344.9,1412.9,1329.1,1413.9,1311.9z M1300,1297
	c0.7,0.3,1,0.6,1.3,0.6c29.1,0,58.3,0.2,87.4-0.2c10.8-0.1,21.6-8.6,23.3-19.5c2-12.6,1.6-25.6,2.3-38.5c-26.4,0-51.3-0.2-76.2,0.1
	c-8.6,0.1-16.3,3.4-23,8.8C1299,1261.3,1298.8,1279,1300,1297z M1356.3,1450.2c9.4-9.4,19-19,28.1-28.2c-18.2,0-37.4,0-56.4,0
	C1337.7,1431.6,1347.3,1441.1,1356.3,1450.2z"/>
<path class="st0" d="M1316.6,1516.2c5.9,0.2,11.3,5.7,11.1,11.6c-0.1,6.1-5.5,11.1-11.6,11c-6.1-0.1-11.3-5.5-11.1-11.5
	C1305.2,1521.4,1310.7,1516.1,1316.6,1516.2z"/>
<path class="st0" d="M1530.6,1115.8c31.5-0.1,59.3,20.2,68.8,50.1c9.4,29.8-1.3,62.1-27.1,80.1c-6.7,4.7-9.8,10.3-9.5,18.3
	c0.2,5.9,0.2,12-0.9,17.8c-3.1,15.6-17.9,26.2-33.7,24.8c-15.9-1.4-28.5-14.8-29-30.9c-0.1-4.1-0.2-8.3,0-12.4
	c0.4-7.7-2.8-13.1-9.1-17.5c-20.6-14.5-30.8-34.7-30.7-59.9C1459.6,1147.7,1492,1115.8,1530.6,1115.8z M1546.7,1259
	c3.1-14.6,5.2-17.8,17-26.5c13.7-10.1,21.4-23.8,22.9-40.8c2.2-26.4-15.2-51.1-40.5-58c-25.9-7.1-53,4.9-65,28.9
	c-11.9,23.7-5.6,52.8,15.9,68.7c9.7,7.2,17,15.1,18,27.6c2.8,0,5.2,0,8,0c0-15.8,0.1-31.4-0.1-47c0-1.1-1.6-2.6-2.8-3.3
	c-7.8-4.4-12.4-11-12.9-20c-0.7-11.9,7.6-22.3,19.5-24.7c10.9-2.2,22.2,4.1,26.5,14.7c4.4,10.9,0.2,23.4-10.2,29.2
	c-3.1,1.7-4.2,3.4-4,6.8c0.3,6,0.1,11.9,0.1,17.9c0,8.7,0,17.5,0,26.4C1541.8,1259,1544.1,1259,1546.7,1259z M1546.7,1275.5
	c-10.7,0-21.1,0-31.4,0c-0.7,7.5,6.8,15.7,15.7,15.6C1539.5,1291,1546,1284.7,1546.7,1275.5z M1531.1,1195.4
	c4.3-0.1,7.9-3.8,7.8-8.1c-0.1-4.3-3.8-7.9-8.1-7.8c-4.3,0.1-7.9,3.8-7.8,8.1C1523.1,1191.9,1526.8,1195.5,1531.1,1195.4z"/>
<path class="st0" d="M1207.3,1279.6c-2.3,6.7-4.4,12.9-6.6,19.3c-14.3,0-28.6,0-43.3,0c-2.1-6.2-4.3-12.6-6.7-19.3
	c-5.4,2.7-10.3,5.3-15.5,7.5c-1.4,0.6-4,0.3-5-0.7c-8.8-8.5-17.4-17.3-26.2-25.9c-1.9-1.8-2.1-3.3-0.9-5.6c2.6-4.8,4.9-9.7,7.6-15.2
	c-6.6-2.3-12.9-4.5-19.5-6.7c0-13.7-0.1-27.3,0.1-40.9c0-1.2,1.8-2.9,3.2-3.4c5.1-2,10.3-3.5,16.2-5.5c-2.6-5.1-4.8-10-7.4-14.7
	c-1.6-2.8-1.1-4.6,1.2-6.8c8.3-8.1,16.6-16.3,24.6-24.6c2.5-2.6,4.4-2.6,7.3-1c4.5,2.5,9.1,4.6,14.2,7.2c2.3-6.7,4.5-13,6.7-19.3
	c14.5,0,28.8,0,43.3,0c2.1,6.3,4.3,12.5,6.6,19.4c5.1-2.6,10-4.9,14.7-7.5c2.6-1.4,4.2-1.4,6.4,0.9c8.3,8.6,16.8,17,25.3,25.4
	c2,2,2.3,3.5,1,6c-2.6,4.8-4.9,9.7-7.5,15c5.7,1.9,11,3.6,16.2,5.6c1.3,0.5,3.1,2.2,3.1,3.4c0.2,13.6,0.1,27.2,0.1,40.9
	c-6.5,2.2-12.7,4.4-19.5,6.7c2.6,5.2,4.9,10.1,7.5,14.9c1.2,2.3,1.4,4-0.7,6c-8.7,8.4-17.3,17-25.7,25.7c-2.1,2.1-3.7,2-6,0.8
	C1217.4,1284.5,1212.5,1282.2,1207.3,1279.6z M1222.9,1153.9c-0.5,0-0.7-0.1-0.8-0.1c-4.5,2.2-8.9,4.4-13.4,6.6
	c-4.8,2.4-12.8-0.9-14.6-6c-1.7-4.8-2.2-11.6-5.6-13.9c-3.7-2.5-10.2-0.8-15.5-0.9c-0.3,0-0.8-0.1-1,0c-1.4,1-3.5,1.7-4.1,3
	c-1.7,3.8-2.7,7.8-4.1,11.7c-1.7,5-9.7,8.3-14.6,6c-4.6-2.2-9.7-6.7-13.7-5.9c-4.4,0.9-7.6,6.8-11.6,10.3c-2.3,2.1-3,3.8-1.2,6.7
	c2,3.2,3.5,6.8,5.2,10.2c2.4,4.8-0.9,12.8-5.9,14.6c-4.8,1.7-11.6,2.1-13.9,5.6c-2.5,3.7-0.8,10.2-0.9,15.5c0,0.3-0.1,0.8,0,1
	c1,1.4,1.7,3.5,3,4.1c3.8,1.7,7.8,2.7,11.7,4.1c5.1,1.7,8.3,9.7,6,14.6c-2.2,4.6-6.7,9.7-5.9,13.7c0.9,4.4,6.9,7.6,10.3,11.6
	c2.3,2.8,4.3,2.7,7.2,1c3.1-1.9,6.5-3.4,9.7-5c4.8-2.3,12.8,0.9,14.6,5.9c1.7,4.8,2.1,11.6,5.6,13.9c3.7,2.5,10.2,0.8,15.5,0.9
	c0.3,0,0.8,0.1,1,0c1.4-1,3.5-1.7,4.1-3c1.7-3.9,2.8-8.1,4.2-12.2c1.5-4.3,9.8-7.7,13.9-5.7c4.7,2.3,9.5,4.7,14.7,7.2
	c3.9-4,7.5-8.1,11.5-11.8c2.3-2.1,2.3-3.9,0.8-6.3c-1.9-3.3-3.5-6.8-5.1-10.2c-2.3-4.8,1-12.8,5.9-14.6c4.8-1.7,11.6-2.2,13.9-5.6
	c2.5-3.7,0.8-10.2,0.9-15.5c0-0.3,0.1-0.8,0-1c-1-1.4-1.7-3.5-3-4.1c-3.9-1.7-8.1-2.8-12.2-4.2c-4.3-1.5-7.7-9.7-5.7-13.9
	c2.2-4.8,6.9-10,6.1-14.2c-0.9-4.5-6.9-8-10.7-11.9C1224.4,1155.3,1223.5,1154.5,1222.9,1153.9z"/>
<path class="st0" d="M1362.9,1073.7c30.7,0,55.8,25,55.8,55.7c0,30.7-25,55.8-55.7,55.9c-30.7,0-55.8-25.1-55.8-55.7
	C1307.2,1098.9,1332.3,1073.7,1362.9,1073.7z M1363.2,1089.6c-22-0.1-40,17.8-40,39.8c0,21.8,17.7,39.7,39.4,39.9
	c22,0.2,40.1-17.6,40.3-39.5C1403,1107.8,1385.2,1089.7,1363.2,1089.6z"/>
<path class="st0" d="M1218.9,1211.5c0,21.9-18.1,39.8-40.1,39.7c-21.9-0.1-39.8-18.2-39.6-40.2c0.1-21.7,18-39.5,39.8-39.5
	C1201,1171.6,1218.9,1189.5,1218.9,1211.5z M1179.1,1187.5c-13,0-23.8,10.6-23.9,23.6c-0.1,13.2,10.7,24.2,23.9,24.2
	c13,0,23.8-10.6,23.9-23.6C1203.1,1198.4,1192.3,1187.5,1179.1,1187.5z"/>
<path class="st0" d="M1355,1154.9c-6.6-6.6-13.6-13.6-20.7-20.7c3.2-3.2,6.7-6.6,11.1-11c2.8,3.7,5.6,7.4,9.3,12.3
	c5.3-5.8,9.3-10.4,13.5-14.8c4.1-4.4,8.2-8.6,12.6-13.2c3.8,4.3,7.2,8.1,10.3,11.6C1379.4,1130.6,1367.1,1142.8,1355,1154.9z"/>
<path class="st2" d="M1894.8,1255.7c-5.6-5.5-10.9-11.5-16.8-16.6c-16.9-14.7-13.2-37.8,0.2-50.4c6.5-6.1,12.3-12.7,18.9-18.7
	c10.4-9.5,22.6-12.8,36-7.6c3.9,1.5,7.4,4.3,10.6,7.2c5.8,5.3,11.2,11.1,16.8,16.7c0.7,0.7,1.4,1.3,1.8,1.7
	c8.7-4.2,16.9-8.6,25.6-12.1c8.5-3.6,17.4-6.3,26.5-9.5c0-4.2-0.1-8.9,0-13.5c0.1-6.4-0.4-12.8,0.6-19.1c2-13.2,13.9-24,27.9-25.6
	c6.6-0.8,13.4-0.6,20.1-0.5c7,0.1,14.2-0.2,21.1,1.1c13.9,2.5,26.5,15,26,32c-0.3,8,0,16-0.1,24c0,1.4,0.2,2.2,1.8,2.6
	c17.3,4.5,33.7,11.4,49.1,20.5c0.2,0.1,0.5,0.2,1.3,0.9c1.4-1.6,2.7-3.4,4.2-4.9c4.2-4.3,8.7-8.3,12.7-12.8
	c14-15.8,36-13.2,48.9-0.4c6.5,6.4,13,12.8,19.3,19.4c4.5,4.6,7.7,9.9,9.3,16.2c2.9,11.9,0.5,22.3-8.3,31
	c-6.2,6.2-12.5,12.4-18.8,18.7c1.5,2.7,3,5.3,4.4,7.9c7.1,13.2,12.6,27.1,16.4,41.7c0.4,1.7,1.1,2.4,3,2.3
	c7.9-0.1,15.8,0.2,23.8-0.1c14.4-0.5,26.4,8.7,31,22c1.3,3.9,2,8.2,2.1,12.4c0.3,9.1,0.1,18.2,0.1,27.4
	c-0.1,16.2-10.9,30.3-25.6,33.3c-2.3,0.5-4.8,0.6-7.2,0.6c-8.1,0.1-16.2,0.1-24.3,0c-1.7,0-2.4,0.5-2.8,2.1
	c-4.4,16.8-11,32.7-19.8,47.7c-0.9,1.5-0.7,2.3,0.5,3.5c5.6,5.5,10.9,11.3,16.7,16.5c13.3,12.1,13.2,31.7,2.5,44.3
	c-7.6,9-16.3,17-24.8,25.1c-4.6,4.4-10.3,6.8-16.6,7.8c-10.5,1.7-19.8-0.8-27.5-8.4c-5.9-5.8-11.7-11.7-17.5-17.5
	c-0.6-0.6-1.2-1.2-2-1.9c-16.2,9.6-33.4,16.7-51.7,21.4c0,5.9,0,11.7,0,17.4c0,4,0.2,7.9-0.1,11.9c-1,14.9-12.4,27-27.9,29.4
	c-3.9,0.6-7.9,0.6-11.8,0.6c-9,0-18.1,0.4-27.1-0.6c-15.3-1.6-29.4-14.7-28.7-32.9c0.3-7.9,0-15.8,0-23.8c0-1.3-0.1-2.2-1.7-2.6
	c-17.6-4.5-34.2-11.6-50.6-21.3c-0.7,1-1.4,2.2-2.4,3.2c-5,5.1-10.3,10-15.1,15.2c-12.8,14-33.1,12.8-45.2,2.2
	c-8.8-7.8-17.3-16.1-24.9-25c-10.9-12.7-10.9-32.6,2-44.4c5.7-5.2,11-10.9,16.5-16.4c0.7-0.7,1.6-1.1,1.7-1.2
	c-4.8-10.2-9.4-19.5-13.4-29.1c-2.9-6.9-4.9-14.1-7.1-21.3c-0.5-1.7-1.2-2.3-3-2.3c-7.8,0.1-15.7-0.1-23.5,0.1
	c-17.5,0.5-29.1-11.9-32.4-25.7c-0.6-2.6-1-5.3-1-7.9c-0.1-9.6-0.1-19.3,0-28.9c0.2-15.7,11.3-29.7,25.9-32.6c2-0.4,4.1-0.5,6.2-0.5
	c8.3-0.1,16.7,0,25,0c1.4,0,2.3-0.2,2.8-1.9c4.5-17.3,11.4-33.7,20.5-49.1C1894.6,1256.4,1894.7,1256.1,1894.8,1255.7z
	 M2094.3,1555.7C2094.3,1555.7,2094.3,1555.7,2094.3,1555.7c0-5.8-0.1-11.5,0.1-17.3c0.1-4.6,2.3-7.3,6.4-8.2
	c20.5-4.5,39.5-12.4,57.2-23.6c4.1-2.6,7.5-2.2,10.9,1.2c7.6,7.6,15.3,15.2,22.8,22.8c3.9,3.9,8.6,5.7,13.9,4.4
	c3.6-0.9,7.4-2.4,10.1-4.8c7.5-6.7,14.6-13.9,21.4-21.3c7.3-7.9,6.7-17.5-0.8-25c-7-7.1-14.1-14.1-21.1-21.2
	c-4.1-4.2-4.5-7.1-1.3-12.1c10.8-17.2,18.5-35.7,23-55.5c1.2-5.3,3.7-7.3,9.2-7.3c10.4,0,20.8,0.1,31.2-0.1c2.4,0,5.1-0.4,7.2-1.4
	c6.7-3.2,9.8-9.2,10-16.3c0.3-9.7,0.3-19.5,0-29.2c-0.3-11-7.7-17.7-18.7-17.6c-10.1,0.1-20.1,0.1-30.2,0c-5,0-7.7-2.3-8.8-7
	c-4.5-20.1-12.2-38.8-23.2-56.2c-2.9-4.6-2.5-7.9,1.4-11.7c7.6-7.6,15.2-15.2,22.8-22.8c2.4-2.4,3.8-5.3,4.2-8.6
	c0.7-6.4-1.6-11.7-6-16.1c-6.5-6.6-12.9-13.1-19.6-19.5c-6.6-6.4-18-8.6-25.7,0c-6.8,7.5-14.3,14.4-21.5,21.6
	c-3.9,3.9-7.1,4.2-11.8,1.2c-17-10.7-35.4-18.4-55-23c-6.5-1.5-8.2-3.7-8.2-10.4c0-10.4,0-20.8,0-31.2c0-4.3-1.6-7.9-4.6-10.8
	c-2.9-2.8-6.3-4.9-10.2-5c-11.2-0.3-22.4-0.9-33.5-0.1c-10.9,0.8-16.1,7.6-16.1,18.6c0,10,0,20,0,30c0,4.8-2.2,7.8-6.7,8.8
	c-20.4,4.5-39.3,12.5-56.9,23.6c-4.1,2.6-7.5,2.2-10.9-1.3c-7.3-7.3-14.9-14.3-21.8-22c-7.5-8.3-18.6-6.3-24.1-1.1
	c-7.9,7.3-15.6,14.8-22.8,22.8c-6.7,7.4-5.8,17.1,1.3,24.1c7.3,7.3,14.7,14.6,22,21.9c3.4,3.4,3.7,6.7,1.3,10.7
	c-0.5,0.9-1.1,1.8-1.6,2.6c-10.2,16.6-17.4,34.3-21.8,53.2c-1.4,6-3.7,7.9-9.8,7.9c-10.6,0-21.2,0-31.8,0c-4.8,0-8.6,2-11.7,5.6
	c-3,3.6-4.6,7.7-4.6,12.3c-0.1,9.5-0.2,18.9,0,28.4c0.3,11.5,7.7,18.4,19.2,18.2c10-0.1,20-0.1,30,0c4.9,0,7.5,2.2,8.6,6.9
	c4.5,20,12.2,38.7,23.1,56c3.2,5.1,2.8,8.1-1.5,12.3c-7.4,7.4-14.9,14.8-22.3,22.2c-3.3,3.3-4.8,7.3-4.5,11.9
	c0.2,4.3,1.6,8.3,4.5,11.3c7.4,7.7,14.8,15.4,22.7,22.6c5.7,5.2,16.6,7.1,24.1-1.2c6.8-7.4,14.2-14.3,21.3-21.4
	c4.1-4.1,7.2-4.4,12.2-1.3c17.1,10.7,35.6,18.4,55.3,22.9c5.7,1.3,7.7,3.7,7.7,9.5c0,10.6-0.1,21.2,0.1,31.8c0,2.2,0.4,4.5,1.3,6.5
	c3.2,6.8,9.1,9.8,16.2,10.1c9.7,0.4,19.5,0.3,29.2,0c10.9-0.3,17.6-7.6,17.6-18.3C2094.3,1564.8,2094.3,1560.2,2094.3,1555.7z"/>
<path class="st2" d="M2205.4,1355.4c-0.1,79.7-64.3,143.4-144.3,143.3c-78.8-0.1-142.6-64.8-142.4-144.4
	c0.2-78.4,64.9-142.5,143.8-142.3C2141.5,1212.3,2205.6,1276.6,2205.4,1355.4z M2189.9,1355.1c-0.1-70.7-57.4-127.5-128.5-127.5
	c-69.4,0-127,57.6-127,127c0,71.3,57,128.6,127.8,128.5C2132.8,1483.1,2189.9,1425.9,2189.9,1355.1z"/>
<path class="st2" d="M2019.5,1312.6c0.1-23.8,19.3-42.5,43.4-42.4c23.1,0.1,41.9,19.5,41.8,42.9c-0.1,23.7-19.3,42.4-43.3,42.3
	C2038.3,1355.2,2019.4,1336,2019.5,1312.6z M2089.2,1312.9c0-15.2-12.1-27.2-27.2-27.2c-14.9,0-27,12.2-26.9,27.2
	c0,14.8,12.2,27,26.9,27C2077,1339.9,2089.2,1327.8,2089.2,1312.9z"/>
<path class="st2" d="M2066.4,1371c5-1,9.9-2,15.1-3.1c0.8,4.6,1.5,9.3,2.3,14c1.7,10.7,3.3,21.4,5.2,32.1c0.7,4.3-0.2,7.6-3.7,10.5
	c-5.9,5-11.5,10.3-17.3,15.5c-3.9,3.5-7.8,3.6-11.7,0c-6.3-5.8-12.5-11.6-18.7-17.4c-1.9-1.8-2.8-4.1-2.6-6.7
	c0.1-0.8,0.2-1.5,0.3-2.3c2.6-15.2,5.2-30.3,7.7-45.5c5.1,1,10,2,15.2,3c-0.9,5.2-1.7,10.4-2.6,15.6c-1.4,8.5-2.9,16.9-4.3,25.4
	c-0.1,0.7,0,1.9,0.5,2.3c3.4,3.3,6.8,6.5,10.4,9.8c3.4-3.1,6.7-5.9,9.8-9c0.7-0.6,0.8-2.2,0.7-3.2c-2.1-13.5-4.2-27-6.4-40.5
	C2066.3,1371.3,2066.4,1371.2,2066.4,1371z"/>
<path class="st2" d="M2092.4,1363.2c4.7-4.4,9.4-8.8,14.2-13c0.6-0.5,2.1-0.5,3-0.2c13.6,4.4,23.6,13.2,30.5,25.6
	c4.9,8.8,7.3,18.3,7.3,28.4c0,7.5,0,15,0,22.5c0,0.9,0,2.1-0.6,2.6c-4.6,4.8-9.4,9.5-14.1,14.2c-0.3-0.1-0.5-0.3-0.8-0.4
	c0-0.9,0-1.8,0-2.7c0-12.4,0.2-24.8-0.1-37.2c-0.4-13.5-5.8-24.8-16.7-33.1c-5.9-4.4-12.6-6.7-19.9-6.8
	C2094.1,1363.1,2093.1,1363.2,2092.4,1363.2z"/>
<path class="st2" d="M2032,1363.1c-11.7-0.5-21.5,3.8-29.2,12.8c-6.8,7.9-10.1,17.1-10.3,27.5c-0.2,12.3-0.1,24.6-0.1,36.9
	c0,0.8,0,1.7-0.6,2.9c-3.4-3.1-6.6-6.4-10.1-9.3c-3.8-3.2-5.2-6.9-4.9-11.9c0.5-8.3,0-16.7,0.6-25c1.7-21.2,17.3-40.6,37.1-46.9
	c1.7-0.5,2.6-0.4,4,1C2022.9,1355.1,2027.5,1359.1,2032,1363.1z"/>
<g>
	<path class="st3" d="M3044.1,1289.5c-2.9,8.2-7.6,14.8-16.6,16.9c-3.1,0.7-6.5,0.9-9.7,0.6c-4.2-0.3-6.3,0.9-7.5,5.3
		c-1.6,5.8-3.7,11.6-6.8,16.6c-3.3,5.2-2.2,8.2,2.1,11.8c4.5,3.7,7.4,8.6,8.1,14.6c0.8,7.1-1.5,13.1-6.5,18.2
		c-4.1,4.2-8.2,8.4-12.4,12.4c-10.3,10-22.5,10-32.8,0c-6-5.8-5.9-5.6-13.5-2.2c-5.6,2.5-11.4,4.7-17.3,6.6c-2.6,0.9-3.7,2-3.4,4.8
		c0.2,2.3,0.1,4.6,0,6.8c-0.6,12.3-9.4,21-21.7,21.3c-6.3,0.2-12.7,0.1-19,0c-13.1-0.2-21.9-8.9-22.5-22.1
		c-0.4-9.5-0.5-9.4-9.2-12.8c-6.3-2.5-12.5-5.4-19-8.2c-2.5,2.4-5.1,5.1-7.9,7.5c-8.5,7.4-20,7.6-28.5,0.2
		c-5.3-4.6-10.2-9.6-15-14.7c-8.9-9.5-8.7-21.5,0.2-31.1c6.3-6.9,6.2-6.8,2.4-15.5c-2.2-5-4.3-10.2-5.9-15.5c-1-3.3-2.5-4.3-5.8-4.1
		c-3.4,0.2-6.9,0.2-10.2-0.4c-9.9-2-16.7-10.3-17.2-21c-0.3-6.7-0.3-13.4,0-20c0.5-11.9,8.2-19.9,20.1-21.3c1.6-0.2,3.3-0.5,4.9-0.3
		c5.2,0.8,7.7-1.1,9.1-6.4c1.5-5.7,4-11.4,7-16.6c2.4-4.2,1.9-6.7-1.7-9.4c-1.5-1.2-2.8-2.7-4.1-4.2c-7-8.2-7.3-19.6-0.2-27.7
		c5.2-6,10.9-11.6,16.9-16.9c7.7-6.8,18.9-6.7,26.9-0.2c3.2,2.5,5.9,5.5,8.6,8c9.1-3.5,18-6.9,26.8-10.5c0.9-0.4,1.5-2.3,1.7-3.5
		c0.4-3.9,0.1-7.8,0.8-11.6c1.7-9.1,8.8-15.9,18-16.7c7.9-0.7,16-0.9,23.9-0.2c12.6,1,20.3,9.8,20.6,22.3c0.2,9,0.3,8.9,8.7,12.1
		c6.5,2.5,12.8,5.5,20.5,8.8c1.5-1.8,3.2-4.4,5.4-6.5c9.8-9.4,22-9.4,31.7-0.1c4.2,4,8.4,8.2,12.4,12.4c9.7,10.1,9.7,22.3,0,32.5
		c-5.9,6.2-5.8,6.1-2.2,14c2.4,5.5,4.6,11.1,6.5,16.8c0.9,2.5,2,3.6,4.8,3.6c4.2,0,8.5,0,12.6,1.1c8.7,2.2,13.2,8.9,15.8,17
		C3044.1,1271.3,3044.1,1280.4,3044.1,1289.5z M2978.3,1374.5c5.2-5.4,9.9-10,14.3-15c0.6-0.7,0-3.4-1-4.4
		c-3.2-3.6-6.9-6.9-10.2-10.5c-4.3-4.5-5-8.4-1.7-13.7c6.8-11,11.6-22.8,14.7-35.4c1.4-5.8,4.6-8,10.5-8.2c5-0.1,10.1-0.1,15.1,0
		c2.6,0,3.9-0.9,3.8-3.7c-0.1-5.4,0.2-10.8-0.2-16.1c-0.1-1.2-2.1-3.2-3.4-3.3c-4.7-0.4-9.4-0.1-14.1-0.2c-7-0.1-10.4-2.3-12-9
		c-3-12.3-7.7-23.7-14.4-34.5c-3.4-5.5-2.7-9.4,1.7-14.1c3.4-3.5,6.8-7,10.3-10.4c1.9-1.9,2-3.4,0.1-5.3c-3.8-3.6-7.5-7.3-11-11
		c-1.9-2-3.4-2-5.3,0c-3.4,3.5-6.8,7-10.3,10.4c-4.7,4.5-8.7,5.2-14.1,1.8c-10.7-6.6-22.1-11.5-34.5-14.3c-6.7-1.5-9-4.9-9.1-11.9
		c-0.1-4.6-0.2-9.1,0-13.7c0.1-3.2-1.2-4.3-4.3-4.2c-4.9,0.2-9.8,0.2-14.6,0c-3.3-0.1-4.3,1.3-4.2,4.4c0.1,4.6,0.1,9.1,0,13.7
		c-0.2,6.8-2.5,9.9-9,11.5c-12.3,3-23.8,7.6-34.5,14.4c-5.4,3.4-9.4,2.7-14.1-1.7c-3.5-3.4-7-6.8-10.3-10.4
		c-1.8-1.9-3.3-2.2-5.3-0.2c-3.6,3.8-7.3,7.5-11,11c-2.3,2.1-1.9,3.7,0.2,5.6c3.3,3.1,6.5,6.4,9.7,9.6c5,5.1,5.7,9,2,14.9
		c-6.7,10.7-11.3,22.2-14.3,34.5c-1.5,6.1-4.8,8.6-11.2,8.7c-4.9,0.1-9.8,0.1-14.6,0c-2.7-0.1-3.8,1-3.7,3.7
		c0.1,5.2,0.1,10.4,0,15.6c-0.1,2.7,1.1,3.8,3.8,3.7c4.7-0.1,9.4-0.1,14.2,0c7,0.2,10.2,2.5,11.8,9.3c2.9,12.1,7.5,23.4,14.2,34
		c3.6,5.8,2.9,9.6-1.8,14.5c-3.3,3.4-6.6,6.8-10,10c-2.1,2-2.4,3.6-0.2,5.6c3.7,3.5,7.3,7,10.7,10.7c2.3,2.5,3.9,2,6-0.2
		c3-3.2,6.1-6.3,9.3-9.3c5.3-5.2,9.1-5.9,15.2-2.1c10.5,6.5,21.6,11.1,33.6,14c7.1,1.7,9.3,4.8,9.4,12.1c0.1,4.6,0.1,9.1,0,13.7
		c-0.1,2.5,0.6,4,3.5,4c5.4-0.1,10.8,0.2,16.1-0.2c1.2-0.1,3.2-2.1,3.3-3.4c0.4-4.4,0.1-8.8,0.2-13.2c0.1-8.3,2.3-11.5,10.5-13.4
		c11.3-2.7,21.9-7.1,31.8-13.2c7-4.3,10.6-3.8,16.4,2C2970.2,1365.8,2973.9,1369.8,2978.3,1374.5z"/>
	<path class="st3" d="M2544.1,1372.5c3.8-9.1,7.7-18.2,11.5-27.2c7.2-16.9,20.8-22.5,37.7-15.6c4.2,1.7,8.8,5.2,12.6,4.5
		c3.4-0.7,5.7-6.2,8.8-9.2c7-6.8,14-13.6,21.3-20c2.3-2.1,3.1-3.5,1.7-6.5c-2.2-4.7-4.2-9.5-5.7-14.5c-3.6-11.7,1.4-24.5,12.4-29.9
		c9.9-4.8,20.2-9,30.6-12.6c11.1-3.8,23.9,1.3,29.2,11.8c4.4,8.5,7.8,17.5,11.3,26.4c2,5.3-0.5,10.6-5.3,12.7
		c-5,2.2-10.5,0.3-13-5.2c-3.2-6.8-5.8-13.8-8.7-20.6c-2.7-6.3-5-7.2-11.4-4.7c-6.9,2.8-13.9,5.6-20.7,8.5
		c-5.4,2.3-6.5,4.9-4.3,10.4c2.5,6.3,5.2,12.6,7.8,18.9c2.9,7.1,2.1,10.9-4,15.3c-14.4,10.2-26.6,22.3-36.7,36.7
		c-4.3,6.1-8.3,7-15.2,4.2c-6.3-2.6-12.6-5.3-18.9-7.8c-5.6-2.2-8.2-1.2-10.5,4.1c-3.1,7.2-6.1,14.4-9,21.6c-2.2,5.4-1,8,4.4,10.4
		c6.1,2.6,12.3,5.1,18.5,7.7c7.5,3.1,9.1,6.5,8.5,14.4c-0.9,12.3-1.6,24.6-1.8,36.9c-0.1,4.7,1.1,9.3,1.8,14c1,7.7-0.8,11.1-8,14.1
		c-6.3,2.7-12.6,5.2-18.9,7.9c-5.4,2.3-6.5,4.9-4.3,10.4c2.9,7.2,5.8,14.5,8.9,21.6c2.2,5.2,4.8,6.3,10,4.2c6.5-2.6,12.9-5.3,19.4-8
		c6.7-2.7,10.8-1.9,14.9,3.9c10.2,14.5,22.5,26.9,37.1,37.1c6,4.2,6.8,8,4,14.8c-2.6,6.5-5.4,12.9-8,19.4c-2.2,5.5-1.1,8,4.4,10.4
		c7.2,3.1,14.4,6.1,21.6,9c5.2,2.1,7.8,1,10-4.1c2.8-6.4,5.3-12.9,8.1-19.4c2.9-6.8,6-8.9,13.3-7.7c17.7,2.8,35.3,2.8,52.9,0
		c7.1-1.2,10,0.9,12.9,7.6c2.7,6.4,5.3,12.9,8.1,19.3c2.3,5.5,4.8,6.5,10.4,4.3c7.2-2.9,14.5-5.9,21.6-8.9c5.1-2.2,6.2-4.9,4.1-10.1
		c-2.6-6.5-5.4-12.9-8-19.4c-2.7-6.8-1.9-10.8,4-14.9c14.6-10.2,26.9-22.5,37.1-37.1c4.1-5.8,8.2-6.7,14.9-4
		c6.3,2.5,12.6,5.2,18.9,7.8c5.9,2.4,8.3,1.4,10.8-4.3c2.9-6.9,5.8-13.8,8.6-20.7c2.5-6.2,1.5-8.7-4.9-11.3
		c-6.1-2.6-12.3-5.1-18.4-7.7c-6.9-3-9.6-8.1-7.3-13.7c2.4-5.7,7.9-7.6,14.8-4.9c6.8,2.7,13.6,5.5,20.3,8.4
		c14.9,6.6,20.6,20.3,14.8,35.4c-3.1,7.9-6.3,15.7-9.7,23.4c-6.4,14.6-20.2,20.3-35.1,14.7c-4.9-1.8-10.2-6.1-14.3-5.1
		c-4.1,0.9-6.9,7.2-10.5,10.8c-7.3,7.2-14.7,14.2-22.6,21.7c1.6,3.9,3.5,8.4,5.3,12.8c6.5,16,0.7,30.1-15,36.8
		c-7.3,3.1-14.7,6.2-22.1,9.1c-15.5,6.1-29.3,0.3-36-15.1c-1.5-3.6-3.1-7.1-4.5-10.8c-0.8-2.3-1.9-3-4.6-3
		c-13.3,0.3-26.6,0.3-39.9,0c-2.6,0-3.7,0.5-4.7,2.8c-1.9,4.8-3.8,9.7-6.2,14.3c-5.9,11.4-18.4,17-30.5,12.8
		c-10.3-3.5-20.4-7.7-30.1-12.5c-11-5.4-16-18.2-12.4-29.9c1.9-6.2,4.6-12.1,6.7-17.7c-7.8-7.5-15.5-14.8-23-22.1
		c-1.5-1.5-2.8-3.1-4.2-4.8c-5.3-6.5-5.2-6.5-13.3-3.2c-3.5,1.4-6.9,2.9-10.5,3.9c-13.1,3.8-25.9-2.7-31.6-16.1
		c-4.1-9.5-7.9-19.1-11.9-28.7c0-3.3,0-6.5,0-9.8c3.2-12,11.5-18.7,22.9-22.4c1.5-0.5,2.9-1.5,4.5-1.8c3.6-0.8,4.1-3,4-6.4
		c-0.3-11.8-0.7-23.7-0.1-35.4c0.3-5.1-0.9-7.6-5.8-9.1c-12.1-3.8-22.2-10-25.5-23.5C2544.1,1379,2544.1,1375.7,2544.1,1372.5z"/>
	<path class="st3" d="M2739.6,1513.8c-51.8-0.1-89.8-41.3-85.9-88.8c3.4-41.6,38-74.3,79.6-75.3c7-0.2,11.6,3.5,11.9,9.5
		c0.3,5.8-4,10.2-11,10.5c-33.1,1.4-55.3,26.1-59.5,51.7c-5.4,32.9,16.1,64.6,48.5,71.1c33.4,6.7,65.7-14.3,72.9-47.6
		c1-4.4,1.1-9,1.7-13.5c0.8-6.7,4.8-10.5,10.7-10.1c5.7,0.4,9.2,4.6,9.2,11.1c0.3,35.2-24.5,68.3-58.5,77.8
		C2751.5,1512.3,2743.6,1513.1,2739.6,1513.8z"/>
	<path class="st3" d="M2956.1,1275.6c-0.1,32.9-27.2,59.8-60.1,59.7c-32.8-0.1-59.6-27-59.6-59.8c0-32.9,27.1-60.1,59.9-60
		C2929.2,1215.6,2956.2,1242.7,2956.1,1275.6z M2896.2,1315.2c21.9,0,39.7-17.8,39.7-39.7c0.1-21.8-17.8-39.8-39.6-39.9
		c-22-0.1-40.1,18-40,40C2856.5,1297.5,2874.3,1315.3,2896.2,1315.2z"/>
</g>
<path class="st1" d="M-2012,1453c0,2.4,0,4.2,0,6c0,12.5,0,25,0,37.5c0,5.5,0.4,11.2-5.8,13.9c-6.5,2.8-10.4-1.8-14.4-5.8
	c-15.7-15.8-31.6-31.5-47.2-47.4c-2.9-3-5.9-4.3-10.1-4.3c-30.8,0.2-61.5,0.1-92.3,0.1c-26.3,0-44-17.7-44-43.9
	c0-66.1,0-132.2,0-198.3c0-25,18.1-43.2,43.2-43.2c66.1,0,132.2,0,198.3,0c26.2,0,43.9,17.7,43.9,44c0,66.1,0,132.2,0,198.3
	c0,25.2-18.1,43.1-43.2,43.1C-1992.9,1453-2002.1,1453-2012,1453z M-2032.3,1477.7c0.4-0.1,0.8-0.3,1.3-0.4c0-10.4,0-20.8,0-31.2
	c0-8.7,3.2-11.8,12-11.8c11.5,0,23,0.1,34.5,0c15.9-0.1,25.2-9.5,25.2-25.3c0-65.6,0-131.2,0-196.8c0-16-9.2-25.4-25.1-25.4
	c-65.9,0-131.9,0-197.8,0c-15.3,0-24.7,9.3-24.7,24.7c0,65.8,0,131.5,0,197.3c0,16.4,9,25.5,25.4,25.5c32.1,0.1,64.3,0.2,96.4-0.1
	c6.6-0.1,11.5,1.8,16,6.6C-2057,1453.3-2044.5,1465.4-2032.3,1477.7z"/>
<path class="st1" d="M-2366.8,1573c-9.8,0-18.8,0-27.7,0c-25.8,0-43.9-18-43.9-43.7c0-66.1,0-132.2,0-198.4
	c0-25.5,17.9-43.6,43.4-43.6c51.2-0.1,102.5,0,153.7,0c1.9,0,3.7-0.1,5.6,0.2c4.9,0.7,8.4,4.6,8.4,9.3c0,4.8-3.8,8.9-8.8,9.4
	c-1.5,0.2-3,0.1-4.6,0.1c-50.7,0-101.5,0-152.2,0c-17.6,0-26.6,8.9-26.6,26.5c0,64.9,0,129.9,0,194.8c0,17.3,9,26.3,26.2,26.3
	c11.2,0,22.3,0,33.5,0c8.7,0,12,3.2,12,11.9c0,10.4,0,20.8,0,32.8c5.5-5.5,10-9.9,14.5-14.4c8.6-8.6,17.3-17.1,25.8-25.9
	c3-3.1,6.4-4.5,10.8-4.5c33,0.1,66,0.1,98.9,0.1c16.7,0,25.8-9,25.8-25.6c0-11.5,0-23,0-34.5c0-4.3,1.7-7.7,5.7-9.4
	c3.7-1.6,7.6-1.2,10.2,2c1.6,1.9,2.8,4.8,2.9,7.2c0.3,13.2,0.5,26.4,0,39.6c-0.7,22-19.1,39.5-41.6,39.7c-31.6,0.2-63.2,0.1-94.9,0
	c-4,0-6.9,1.1-9.7,4c-16.2,16.5-32.7,32.8-49.1,49.2c-3.5,3.5-7.2,6.4-12.5,4.2c-5.3-2.2-6.1-6.6-6-11.7c0.1-13,0-26,0-39.1
	C-2366.8,1577.6-2366.8,1575.6-2366.8,1573z"/>
<path class="st1" d="M-2231.7,1502.3c-0.1,6.5-3.7,10.9-8.6,11.9c-5.1,1-10.2-1.6-12.2-6.8c-4.8-12.8-9.4-25.7-14.1-38.6
	c-1.3-3.5-2.8-6.9-3.8-10.5c-0.9-3.2-2.7-4-5.9-4c-13,0.2-26,0.2-39,0c-3.2,0-4.7,1-5.8,4c-5.5,15.6-11.1,31.2-16.9,46.7
	c-1.1,3-3.3,6.1-5.8,7.9c-3.7,2.6-8.2,2-11.8-0.9c-3.9-3.2-5.1-7.4-3.4-12.3c5-14,10.1-28,15.2-41.9c12.4-34.1,24.8-68.3,37.1-102.4
	c1.6-4.4,3.8-7.9,8.6-9.1c5.7-1.4,10.8,1.7,13.2,8.2c5.7,15.7,11.4,31.4,17.1,47.2c11.2,31,22.5,61.9,33.7,92.9
	C-2233.1,1497.5-2232.3,1500.5-2231.7,1502.3z M-2311.6,1432.3c11,0,21,0,31.8,0c-5.2-14.5-10.3-28.4-15.9-43.8
	C-2301.3,1403.9-2306.3,1417.8-2311.6,1432.3z"/>
<path class="st1" d="M-2086.7,1321.5c16.2-17.9,30.2-36.5,42.8-57.5c-2.9,0-4.7,0-6.5,0c-33,0-65.9,0-98.9,0
	c-7.8,0-12.8-4.9-12.2-11.7c0.5-6,4.8-9.8,11.4-9.9c16.7-0.1,33.5-0.1,50.2-0.1c1.8,0,3.6,0,5.3,0c1.8-12.5,4.4-16.1,11.4-16.1
	c6.7,0,9.1,3.3,11.5,16.1c2,0,4.2,0,6.3,0c15.9,0,31.8,0,47.7,0c7.9,0,12.7,3.9,12.9,10.5c0.2,6.3-3.9,10.2-11.7,11.3
	c-1.4,0.2-3.1,1.3-3.8,2.6c-14.3,25.3-31.4,48.5-51.4,70.6c5.7,5.3,11.1,10.8,17,15.8c8.4,7.1,17,14,25.5,20.8
	c6.1,4.9,7.6,10.9,3.8,16.2c-3.9,5.4-10.7,6.2-16.9,1c-13.5-11.2-26.8-22.7-40.2-34.1c-1.4-1.2-2.7-2.5-4.2-3.9
	c-7.9,6.9-15.4,13.9-23.3,20.5c-7.4,6.2-14.9,12.1-22.7,17.8c-6,4.4-12.6,3.6-16.2-1.3c-3.8-5.3-2.3-11.5,3.6-16.3
	c12.6-10.3,25-20.7,37.4-31.1c1.9-1.6,3.7-3.4,5.9-5.4c-1.5-1.8-2.7-3.1-3.8-4.5c-11.5-15-23.1-30-34.3-45.2
	c-1.9-2.6-2.8-6.6-2.7-9.8c0.2-4.6,3.6-7.5,8.2-8.5c5.3-1.1,8.9,1.4,12,5.6c10.1,13.7,20.5,27.3,30.8,40.9
	C-2090.3,1317.6-2088.7,1319.2-2086.7,1321.5z"/>
<path class="st0" d="M3635.4,1172c6.6,1.6,13.3,2.8,19.6,5c8.9,3.1,16.7,8,22.1,16.2c3.4,5.2,4.7,10.9,4.8,17c0.1,3-1.1,5.1-3.4,7.1
	c-5.4,4.6-10.4,9.5-15.6,14.3c-1,0.9-2,1.7-3.2,2.8c-0.4-0.9-0.8-1.5-0.8-2c-0.8-15.9-15-29-32.3-29c-0.8,0-1.6,0-2.4,0
	c-96.4,0-192.8,0-289.1,0c-9.1,0-17.4,1.9-24.4,8.1c-5.9,5.3-9.4,11.7-10.6,19.5c-0.4,2.4-0.4,4.8-0.4,7.2c0,101.7,0,203.4,0,305.1
	c0,8.8,2,16.8,7.9,23.6c5.3,6.1,11.9,9.7,19.8,10.7c2.9,0.4,5.8,0.4,8.8,0.4c96.2,0,192.5,0,288.7,0c16.8,0,29.4-8.9,33.2-23.8
	c0.9-3.6,1.1-7.4,1.1-11.1c0.1-47.7,0.1-95.3,0-143c0-3.4,0.8-5.9,3.3-8.5c8.9-9.3,17.6-18.9,26.3-28.4c0.4-0.4,0.9-0.8,2.2-2
	c0,2.5,0,4,0,5.5c0,58.8,0,117.7,0,176.5c0,27.6-12,48-36.9,60.2c-6,2.9-12.9,4.1-19.3,6c-103.6,0-207.1,0-310.7,0
	c-1.3-0.4-2.5-0.8-3.8-1.1c-20.4-4.1-35.8-15.2-45.1-33.8c-3.3-6.5-4.7-14-7-21c0-108.6,0-217.3,0-325.9c0.4-1.3,0.8-2.5,1.1-3.8
	c4.1-20.3,15-35.6,33.5-44.9c6.6-3.3,14.2-4.9,21.3-7.2C3427.7,1172,3531.6,1172,3635.4,1172z"/>
<path class="st0" d="M3768,1255.1c-4.4,9-12.4,14.8-19.1,21.6c-51.3,51.4-102.8,102.6-154.2,153.9c-23.9,23.8-47.8,47.7-71.7,71.6
	c-6.7,6.7-16.2,6.8-23.1-0.1c-17.8-17.9-35.6-35.9-53.4-53.8c-25.4-25.5-50.9-51-76.3-76.6c-2.4-2.4-5-4.8-7.2-7.5
	c-5.7-6.6-5.9-15,0.2-21.2c10.8-11.2,21.8-22.2,33-33c6.7-6.4,15.8-5.9,22.5,0.9c29.8,29.9,59.5,59.8,89.2,89.7
	c1.1,1.1,2.3,2.2,3.8,3.6c4.5-4.4,8.8-8.6,13.1-12.9c34.5-34.5,69-69,103.6-103.5c26.4-26.4,52.8-52.8,79.3-79.2
	c7.5-7.4,16.5-7.5,24-0.1c10.3,10.2,20.6,20.4,30.7,30.7c2.3,2.4,3.8,5.7,5.7,8.6C3768,1250.3,3768,1252.7,3768,1255.1z"/>
<path class="st0" d="M-2994.9,1493.4c-49.5-0.4-98.9-2.5-148.1-6.9c-6.7-0.6-8.4-2.5-7.7-9.4c3-30.8,16.4-56.7,38.5-78.1
	c8.9-8.6,18.8-16,30.2-20.8c5.8-2.5,12.4-3.8,18.7-4.3c6.3-0.5,11.1,2.8,14.2,8.8c15,29.2,30.1,58.4,45.3,87.5
	c1.4,2.7,3.4,5.4,5.7,7.5c4.1,3.6,6.8,2.9,9.3-2c11.9-22.7,23.7-45.5,35.6-68.3c3.8-7.2,7.5-14.5,11.3-21.7
	c6.5-12.3,14.3-15.5,27.3-10.6c17.6,6.6,32.2,17.5,44.6,31.4c18.1,20.5,28.9,44.2,31.3,71.6c0.5,6-0.9,7.9-6.9,8.3
	c-23.7,1.7-47.4,3.6-71.1,4.7C-2942.7,1492.3-2968.8,1492.7-2994.9,1493.4z"/>
<path class="st0" d="M-3186.4,1530.7c5.3-0.7,7.3,0.4,7.8,5.1c0.4,4.1,2,8.4,4.2,11.9c3.4,5.6,10.1,6.3,15.1,2.4
	c6.6-5.2,8.9-16.1,5.4-25.9c-3.6-9.9-11.2-15.9-20.1-15.7c-5.9,0.2-10.5,3-14.4,7.3c-12.6,13.8-14.9,41.9-4.6,57.5
	c6.6,10,15.7,15.4,27.9,14.3c24.1-2.1,48.1-4.2,72.2-6.4c22-2,44-4,66.1-6c1.5,3.8,0.3,6.9-1.6,9.9c-3.3,4.9-8.2,7.3-13.9,8
	c-3.5,0.5-7.2,0.7-10.7,0.6c-33.1-0.9-65.9,1.4-98.7,5.7c-7.7,1-15.7,1.1-23.5,0.4c-16.2-1.4-26.7-10.7-31.5-25.9
	c-5.9-18.7-5.8-37.6,0.6-56.2c5.9-16.9,17.3-25.1,35.2-24.5c17.8,0.6,35.6,2.1,53.3,3.3c25.8,1.8,51.5,3.8,77.3,5.4
	c6.7,0.4,10.6,3,12.9,9.3c5.2,14.2,7.8,28.7,7.1,43.8c-0.4,8.1-2.5,10.5-10.6,11.3c-15.8,1.6-31.6,3-47.4,4.4
	c-24.9,2.3-49.8,4.8-74.6,7c-4.9,0.4-9.9,0.7-14.9,0.4c-12.1-0.7-20.2-7.9-20.6-20.1C-3188.9,1549.1-3187.2,1539.8-3186.4,1530.7z"
	/>
<path class="st0" d="M-2825.2,1154.5c-15.7,4.1-31.5,8.1-47.2,12.2c-34.3,8.9-68.7,17.6-103,26.7c-13,3.5-25.8,3.5-38.8,0
	c-47.1-12.4-94.3-24.6-141.4-36.9c-2.9-0.8-5.6-2.3-8.4-3.5c0.1-0.5,0.2-0.9,0.3-1.4c8.6-1.6,17.2-3.2,25.8-4.9
	c43.9-8.5,87.8-16.9,131.7-25.4c11.6-2.2,22.8,0.1,34.1,2.2c46.5,9,93,18,139.4,27c2.6,0.5,5.1,1.6,7.6,2.5
	C-2825.1,1153.5-2825.2,1154-2825.2,1154.5z"/>
<path class="st0" d="M-2952.4,1502.3c17.1-1.2,33.9-2.3,50.7-3.5c26.5-1.8,52.9-3.6,79.4-5.3c4.8-0.3,9.7-0.2,14.4,0.5
	c8.8,1.3,15,6.6,19.5,14c6.5,10.7,8.9,22.7,8.8,34.9c-0.1,10.4-1.6,20.9-3.1,31.2c-1,6.7-4.5,8.7-11.3,8
	c-48.1-4.6-96.2-9.3-144.3-13.9c-1.6-0.2-3.6,0-4.8-0.9c-1.5-1-3.4-3-3.2-4.4c1.7-20.1-0.4-39.7-6.1-59
	C-2952.5,1503.6-2952.4,1503.1-2952.4,1502.3z"/>
<path class="st0" d="M-2914.2,1238c3.8,11.5,4.5,22.9,3,34.3c-8.6,65.5-72.9,88.1-118.5,67.8c-32.2-14.3-53.1-50.9-49.2-86
	c0.4-3.4,0.8-6.9,1.2-10.3c0.7-5.2,2.5-6,6.8-3c13.2,9.5,27.6,16.2,43.4,19.8c40.2,9.2,77.5,2.8,111.3-21.5
	C-2915.8,1238.9-2915.3,1238.7-2914.2,1238z"/>
<path class="st0" d="M-2907.1,1182.7c-0.2,3.5-0.4,6.7-0.5,9.8c-0.5,8-0.8,16-1.4,24c-0.6,8.8-5.3,15.1-12.6,19.8
	c-17.7,11.7-37.2,18.7-58.3,20.9c-29.6,3.1-57.4-2.5-83.2-17.5c-10.6-6.1-17-14.3-17.4-27.1c-0.3-10.3-1.8-20.6-2.8-31.4
	c10,2.8,19.5,5.4,29.1,8.1c16.9,4.6,33.8,9.3,50.7,13.8c7.1,1.9,14,1.4,21.2-0.6c23.7-6.6,47.4-12.7,71.2-19
	C-2910,1183.2-2908.8,1183-2907.1,1182.7z"/>
<path class="st0" d="M-3023.7,1502c19.7,0,38.8,0,57.8,0c4.2,0,6,2.9,7.2,6.4c4.6,13,6.7,26.4,6.6,40.2c-0.1,12.5-2.1,24.7-6,36.6
	c-1.1,3.5-3.3,5.3-6.9,5.3c-18.5-0.1-37-0.1-55.5-0.2c-0.4,0-0.8-0.2-1.5-0.4C-3010.7,1560.6-3011.1,1531.5-3023.7,1502z"/>
<path class="st0" d="M-2994.5,1353.8c2.5,0,5-0.1,7.5,0c6.1,0.4,10.7,4.4,11.5,10c0.9,5.8-2,10.7-8.1,12.8c-2.7,1-3.7,2.6-3.8,5.2
	c-0.6,7.9,0.7,15.4,4.3,22.5c1.7,3.3,3.5,6.6,5.2,9.9c3.9,7.3,4.4,14.8,1.1,22.3c-4.2,9.5-8.7,18.8-13.1,28.1
	c-0.6,1.2-1.5,2.3-2.5,3.2c-2.7,2.5-4.4,2.1-6-1.3c-4.8-10.1-9.5-20.2-14.4-30.3c-3.3-6.9-3.1-13.6,0.2-20.3
	c2.6-5.3,5.7-10.5,7.8-16c1.8-4.6,2.8-9.5,3.4-14.4c0.6-4.2-1-7.6-5.6-9.4c-5.1-2-7.9-7.3-7.1-12.3c0.9-5.5,5.3-9.7,11-10.2
	C-3000.4,1353.5-2997.4,1353.7-2994.5,1353.8C-2994.5,1353.7-2994.5,1353.8-2994.5,1353.8z"/>
<path class="st0" d="M-2790.9,1592.5c-7.9,5-15.3,7.3-23,7.2c-11.6-0.1-23.2-0.6-34.7-1.8c-30.1-3-60.3-4.8-90.5-4.9
	c-2.7,0-5.6-0.1-8.2-0.8c-5.3-1.3-6.8-6.3-3.4-10.6c2.9-3.6,6.9-4.4,11.2-4.1c12.3,0.8,24.5,1.7,36.7,2.8
	c31.2,2.9,62.4,5.8,93.6,8.8c4.5,0.4,9.1,0.9,13.6,1.6C-2794.4,1590.9-2793.2,1591.6-2790.9,1592.5z"/>
<path class="st0" d="M-2861.3,1168.2c0,12.3,0,24.5,0,36.8c0,3.9-0.4,7.8,0.1,11.6c0.4,2.9,1.3,6.1,3.1,8.3c2.4,2.9,3.1,5.7,1.3,8.7
	c-3.9,6.7-3.2,13.3-1.2,20.4c2.3,7.9,4.1,16,6,24.1c0.3,1.2,0.5,2.4,0.9,4.4c-8.1,0-15.7,0.1-23.4-0.1c-2.4,0-3.3-1.9-2.9-4.1
	c1-5.1,2-10.3,3.1-15.4c1.1-5,2.8-9.9,3.4-14.9c0.5-4,0.3-8.4-0.9-12.2c-1.4-4.2-0.3-7.3,1.3-11c1.6-3.7,2.9-7.8,3-11.7
	c0.3-11.2-0.1-22.4-0.1-33.5c0-2.3,0-4.8,0.7-7c0.6-1.8,2.1-3.4,3.3-5C-2862.8,1167.7-2862,1167.9-2861.3,1168.2z"/>
<path class="st0" d="M-3023.4,1597.7c4-0.4,7.8-1,11.5-1c13.9-0.1,27.9,0.1,41.8,0c5.8,0,9.6,2.6,11.8,7.9c2.3,5.6,5.1,11,4.6,17.9
	c-5.4-2.7-10.4-5.2-15.4-7.8c-3.3-1.7-6.6-3.4-10-5.1c-5.6-2.8-7.5-2.2-10.7,3.3c-3.1,5.5-6.1,11.1-9.6,17.4
	c-1.2-2.3-2.3-3.9-2.8-5.6c-3.1-11.7-9.9-20.5-20.8-25.9C-3023,1598.8-3023.1,1598.5-3023.4,1597.7z"/>
<path class="st1" d="M-3825.9,1264c-9.2,1.9-16.9-3.3-25.1-5.6c-10.3-2.9-20.4-6.5-30.5-9.8c-5.8-1.9-8.3-4.7-8.3-9.1
	c0-4.4,2.5-7.3,8.3-9.2c50.1-16.3,100.1-32.5,150.2-48.8c17.9-5.8,35.7-11.8,53.7-17.3c3.2-1,7.3-1,10.6,0
	c67.4,21.6,134.7,43.5,202,65.3c7.4,2.4,10.4,5.1,10.2,9.9c-0.2,6.5-5.1,8.3-10.3,9.8c-4.2,1.2-8.2,2.8-12.4,3.9
	c-3,0.8-3.9,2.2-3.9,5.3c0.2,26,0.1,52,0.1,78.1c0,0.4,0,0.8,0,1.2c-0.4,2.7,0.6,4.5,2.8,6.4c2.4,2.1,3.8,5.4,5.4,8.3
	c1.4,2.5,2.1,5.5,3.6,7.9c7.5,11.8,7.6,24,0.9,35.8c-3.7,6.5-8.9,12.2-13.8,17.9c-2.7,3.1-6.7,3.4-9.5,0.8
	c-9.1-8.4-16.6-17.9-18.9-30.5c-1.6-9,0.5-17.1,5.6-24.7c1.1-1.6,1.9-3.6,2.2-5.5c0.7-4.6,2.8-8,6.4-10.9c1.1-0.8,2.1-2.5,2.1-3.8
	c0.1-26.3,0.1-52.6,0.1-78.9c0-0.4-0.1-0.8-0.3-1.7c-4.6,1.4-9,2.8-13.5,4.3c-7.3,2.4-14.6,4.9-22,7c-3.1,0.9-4.2,2.2-4.2,5.6
	c0.2,24.3,0,48.5,0.2,72.8c0,4.4-1.4,7.3-4.8,9.9c-31,23.6-65.2,39.4-104.1,44.4c-37,4.7-72.6-0.8-107.2-14.4
	c-19.5-7.7-37.8-17.5-54.9-29.7c-3.7-2.7-5.2-5.7-5.1-10.2c0.2-24.1,0-48.2,0.2-72.4c0-3.3-0.6-5.2-4.2-6c-3.5-0.7-6.9-2-10.2-3.4
	C-3825.5,1266.5-3825.6,1264.9-3825.9,1264c1.3-1.2,2.6-2.3,4-3.3c-0.7-0.5,4.6-4.7-1.4-4.2c2.2-0.2,4.7-1.1,6.7-0.4
	c46.9,15.1,93.7,30.3,140.6,45.4c2.1,0.7,4.8,0.7,7,0.1c56-18,112-36.2,167.9-54.4c7.5-2.4,14.9-4.9,23.3-7.7
	c-1.6-0.6-2.2-0.9-2.8-1.1c-63-20.5-126.1-40.9-189.2-61.3c-1.8-0.6-4-0.4-5.8,0.2c-62.3,20.1-124.6,40.3-186.9,60.5
	c-1.3,0.4-2.5,1-4.5,1.7c13.8,4.5,26.6,8.7,39.4,12.9c-0.4,1.1-0.7,1.9-1,2.8c2,0.5,3.7,0.9,5.4,1.3c-0.5,1.3-1.1,2.6-1.6,3.9
	C-3825.2,1261.5-3825.5,1262.7-3825.9,1264z M-3712,1366.9c-1.3,1.9-2.6,3.7-4.5,6.4c-1.4-0.5-3.6-1.4-5.9-2.1
	c-1.3-0.4-2.7-0.7-4.1-1c-1.1-0.2-2.4,0-3.4-0.4c-3-1.3-5.9-3-9-4c-2.3-0.7-5.1-0.1-7.3-0.9c-16.5-6-32.1-13.7-46.9-23.1
	c-1.2-0.7-2.4-1.4-3.6-2.1c-1.8,6.1,0,10,5.2,12.8c10.8,5.8,21.5,12,32.3,18c6,3.3,12.1,6.4,18.1,9.6c0.5,0.2,1,0.4,1.5,0.5
	c4.1,0.7,8.4,1.1,12.4,2.3c27.3,8,54.9,11.1,83.2,7.3c33.9-4.5,64-18.3,91.8-38c4.7-3.3,5.6-6.9,4.5-11.9c-0.4,0-0.7-0.1-0.9,0
	c-1.5,0.9-2.9,1.9-4.4,2.9c-20.9,14-43.4,24.5-67.9,30.3c-13,3.1-26,5.5-39.6,5c-10-0.4-20,0.7-29.9-1c0.6-0.9,1.7-1.8,1.7-2.7
	c0-2.6-0.4-5.2-0.6-7.2c1.4-0.5,2.4-0.8,3.3-1.1c1-0.2,2.1-0.6,3.1-0.5c3.8,0.6,7.6,1.5,11.4,1.9c1.6,0.1,4.2-1.8,5-1.2
	c4.2,3.5,7.6-0.2,11.3-0.5c38.8-3.1,73.1-17.5,104.3-40.3c2.7-1.9,3.8-4,3.7-7.4c-0.2-11.8-0.1-23.6-0.1-35.4c0-2.2,0-4.5,0-7.1
	c-2.3,0.6-4,1-5.6,1.6c-37.7,12.2-75.4,24.5-113.1,36.8c-4.3,1.4-8.3,1.4-12.6,0c-33-10.8-66.1-21.5-99.2-32.3
	c-6.2-2-12.5-4-19.1-6.1c-0.1,1.8-0.2,3-0.2,4.2c0,13,0.1,26-0.1,39c0,2.9,0.9,4.7,3.3,6.3c15.4,10.5,31.8,19.1,49.1,25.9
	c1.2,0.5,2.4,1,3.7,1.6c-0.5,1.7-0.9,3-1.3,4.3c2.3,0.2,4.5,0.4,6.8,0.7c1.7-0.3,3.4-0.9,5.1-0.9c1.2,0,3.6,0.7,3.6,1
	c-0.3,4.4,3.6,3,5.4,4.6c0.4-1.3,0.6-2.2,0.6-2.3c2.5,0.5,4.5,0.9,6.5,1.2c1.4,0.3,2.7,0.5,4.1,0.8c-0.5,1.5-1,3-1.5,4.6l0,0
	L-3712,1366.9z M-3495.8,1369.3c-5.4,8.5-2.1,21.9,8,30.8c11.1-10.3,13.5-25,8-30.8C-3485.3,1369.3-3490.2,1369.3-3495.8,1369.3z"/>
<path class="st1" d="M-3524.1,1489.6c16.2,2,32.4,4.9,48.7,5.7c34.2,1.7,56.5,35.3,45,69.3c-11.5,34.4-49.6,51.1-84.6,36.1
	c-31.3-13.4-63.3-24.7-95.9-34.3c-13-3.8-26.1-7.1-39.2-10.6c-0.2,0.4-0.5,0.7-0.7,1.1c2.5,2.3,5,4.8,7.6,7
	c16.4,13.9,34.6,23.4,56.5,24.2c3.3,0.1,6.6,0,9.9-0.3c4.4-0.5,7.8,0.8,9,5.2c1.1,4.2-1.1,7-4.8,8.8c-23,10.7-46.7,18.4-72.3,18.8
	c-0.5,0-1,0.2-1.9,0.3c-1.1,9.3-0.2,18,7.1,24.9c3,2.8,4.5,5.9,2.4,9.7c-2,3.6-5.3,3.9-9.1,3.3c-30.9-5-53.3-22.2-68.8-48.6
	c-5.4-9.3-9.5-19.3-14.4-29.4c-6.5,3.4-12,8.7-16.6,14.8c-11.8,15.7-16.5,33.9-18.4,53.1c-0.1,1-0.2,2.1-0.2,3.1
	c-0.1,3.7-1.6,6.5-5.3,7.4c-3.6,0.9-6.4-0.6-8.3-3.8c-7-11.6-12.1-23.9-13.5-37.6c-0.2-1.9-0.4-3.7-0.7-6.4
	c-7.3,3.4-11.8,8.4-14.3,15.1c-1.3,3.7-2.1,7.7-2.6,11.7c-0.5,4.3-2,7.6-6.6,8c-4.9,0.4-7-2.7-7.9-7.2c-6.7-33.3,1.6-62.5,23.7-87.9
	c5.3-6.1,11.5-11.6,17.8-18c-4.7-0.2-9-0.6-13.4-0.5c-35.9,1-71.7,2.2-107.6,3.3c-6.6,0.2-9.5-1.3-10.4-6.8
	c-5.5-33.9-5.7-67.5,7.9-99.7c5.2-12.2,12.7-23.5,19.8-34.9c3.6-5.8,6.5-6,12.3-2.8c39.1,21.1,80.6,36.5,122.6,50.4
	c2.1,0.7,4.8,0.4,6.9-0.4c14.9-5.4,30.1-8.6,46.1-6.8c17.8,2,31.8,10.4,42,25.3c1.2,1.8,3.9,3.5,6.1,3.7
	c46.2,4.6,92.5,5.4,138.8,1.4c7.8-0.7,15.5-2.2,23.3-3.2c1.9-0.2,3.8-0.2,5.7-0.2c4.3,0.1,7,2.4,7.2,6.7c0.3,4-2,6.6-6,7.3
	c-6,1-12.1,1.8-18.1,2.5c-9.2,1-17.3,4.8-25,9.5C-3524.1,1488.6-3524.1,1489.1-3524.1,1489.6z M-3745.9,1538.2
	c-0.7-1.5-1.4-2.9-2.5-5.1c-1.7,1.5-3,2.7-4.3,3.8c-2.1,0.1-4.2,0.2-6.2,0.4c-1.3,0.1-2.8-0.4-3.7,0.2
	c-24.5,15.7-42.6,36.3-48.1,65.9c-0.2,0.9,0,1.8,0,3.3c7.1-6.4,14.8-10.2,23.6-11.6c8.1-1.3,11.6,2.2,10,10.2
	c-1.4,6.7-1,13.2,1.5,21c0.9-3,1.4-4.6,1.9-6.2c6.6-22.1,17.8-40.8,38.4-52.6c0.9-0.5,2.2-2,2-2.5c-2-5.3,0.9-12.6-6.7-15.7
	c-1-0.4-1.4-2.6-2-4c-1-2.3-2-4.7-3-7C-3745.3,1538.2-3745.6,1538.2-3745.9,1538.2z M-3876.9,1406.9
	c-20.7,22.3-33.7,86.2-23.5,113.1c43.6-0.7,86.8-1.4,130.3-2.1c-5.6-21.9-1.8-43,10.6-62.8
	C-3799.8,1440.8-3839.4,1426.2-3876.9,1406.9z M-3540.5,1481.9c-1.9-0.1-3-0.1-4-0.1c-31.2-0.7-62.3-1.1-93.5-2.4
	c-19.2-0.8-19.6-1.3-29,15.9c-5.7,10.4-8.9,21.3-5.5,33.1c1.6,5.5,4.5,8.9,10.7,10.5c29.5,7.6,58.8,15.9,88.2,24.1
	c7.1,2,14,4.7,21.4,7.3C-3567.2,1538.2-3566.2,1508.8-3540.5,1481.9z M-3719.8,1449.3c-8.1,2.6-14.2,4.4-20.3,6.6
	c-1.7,0.6-3.4,1.8-4.5,3.3c-9.8,13-14.8,27.7-13.3,44c0.7,8.2,1.2,16.8,8,23.1c16.8,15.5,40.4,18.6,60.6,7.6c1.2-0.7,2.2-3.3,2-4.7
	c-2-10.6-1.3-21.1,3.3-30.7c4.1-8.6,9.3-16.7,14.6-24.6c1.9-2.9,2-4.6,0-7.2c-7-9.2-15.8-15.4-27.3-16.7
	C-3704.9,1449-3713.2,1449.4-3719.8,1449.3z M-3609.6,1600.6c-10.5-5.6-21.6-10.7-31.8-17.1c-14.3-9-25.6-21.4-35.9-34.7
	c-1-1.3-3.7-2.6-4.8-2.1c-12.1,5.6-24.6,8.5-37.9,7.8c0.1,32.7,36.8,84.6,58.5,85.2c0.6-9,0.8-17.9,1.8-26.8
	c0.5-5.1,3.9-7.2,9.3-6.8C-3636.2,1607-3622.4,1604.6-3609.6,1600.6z M-3503.3,1530.8c1.3,0.3,2.7,0.6,4,0.8
	c12.2,1.8,24.4,3.5,36.7,5.4c6,0.9,8,3.9,7.1,9.9c-2.4,16.2-16.9,26.5-34,24.1c-14.3-2-28.6-4.2-42.8-6.3c-1.6-0.2-3.3-0.3-5-0.5
	c0.1,0.9,0,1.2,0.2,1.5c0.3,0.6,0.8,1.2,1.1,1.7c7.1,10.3,17.1,16.7,28.6,20.9c24.4,9,53.3,0.3,63.3-27.8
	c8.2-23.1-4.4-46.3-27.1-50.3C-3486.7,1507.6-3500.7,1516.5-3503.3,1530.8z M-3506.1,1506.4c-10.4-1.5-20.2-3-30-4.2
	c-1.2-0.2-3.2,1.1-3.9,2.2c-7.9,12.7-8.8,26.5-6,40.8c0.2,1.2,1.6,3,2.7,3.2c9.2,1.6,18.4,2.8,27.8,4.2
	C-3520.7,1530.5-3519.6,1525-3506.1,1506.4z M-3472.1,1550.1c-10.1-1.5-19.7-2.8-29.8-4.3
	C-3496.9,1557.6-3478.3,1561.2-3472.1,1550.1z"/>
<path class="st1" d="M-3691.2,1376.8c-4.5-0.5-9-1-13.5-1.6c-1.8-0.2-3.7-1-5.5-1c-4.4-0.1-5.1-1-3.5-5.3c0.3-0.9,0.6-1.8,1-2.7
	c0,0,0.1,0.1,0.1,0.1s0,0,0,0c0.8,0.1,1.7,0.2,2.4,0.4c1.3,0.5,2.5,1.6,3.7,1.6c0.7,0,1.3-1.9,1.8-3c0.3-0.6,0.1-1.3,0.2-2.2
	c3.9-1,3.4,1.8,3.4,4.1c1.8-0.9,3.5-1.6,5-2.5c3.1-1.7,3.7-0.1,3.8,2.7C-3692.1,1370.6-3691.5,1373.7-3691.2,1376.8z"/>
<path d="M-4714.2,1224.2c113.7-0.6,207.8,93.7,206.1,209.3c-1.7,112.1-94.9,204.9-210.2,202.8c-111.9-2.1-204.6-95.3-202-210.9
	C-4917.8,1314.2-4826,1223.6-4714.2,1224.2z M-4532.9,1430.1c-0.1-99.6-82.4-181.7-181.5-181.3c-99.7,0.5-181.1,81.3-181,181.1
	c0.1,100.2,80.4,180.9,181.1,181.5C-4615,1612-4532.8,1529.5-4532.9,1430.1z"/>
<path d="M-4714.5,1539.2c-34.3,0-68.7,0-103,0c-1.3,0-2.7,0-4,0c-10.9-0.4-16.4-6-16.4-17c0-56.2,0-112.3,0-168.5c0-5.5,0-11,0-16.5
	c0.1-9.5,5.4-15.2,14.9-15.9c1.3-0.1,2.7-0.1,4-0.1c69.8,0,139.7,0,209.5,0c1.7,0,3.3,0,5,0.2c8.7,0.9,13.8,6.5,13.9,15.3
	c0.1,12.8,0,25.7,0,38.5c0,48.7,0,97.3,0,146c0,12.5-5.4,18-17.9,18C-4643.8,1539.2-4679.2,1539.2-4714.5,1539.2z M-4605.8,1361.5
	c-72.6,0-144.6,0-216.7,0c0,54.2,0,108.1,0,162c72.4,0,144.5,0,216.7,0C-4605.8,1469.4-4605.8,1415.7-4605.8,1361.5z
	 M-4669.8,1350.8c5.4,0,10-4.6,9.9-9.8c-0.1-5.1-4.6-9.4-9.7-9.5c-5.4,0-10,4.5-9.9,9.8C-4679.5,1346.4-4675,1350.8-4669.8,1350.8z
	 M-4632.8,1341.3c0.1-5.4-4.5-9.8-9.9-9.8c-5.3,0.1-9.5,4.3-9.5,9.5c-0.1,5.3,4,9.6,9.3,9.8
	C-4637.5,1351-4632.8,1346.6-4632.8,1341.3z M-4605.6,1341.2c0-5.4-4.5-9.8-10-9.6c-5.2,0.1-9.4,4.4-9.4,9.7c0,5.3,4.2,9.5,9.5,9.6
	C-4610.1,1350.9-4605.6,1346.6-4605.6,1341.2z"/>
<path d="M-4771.2,1438c11.1,4.4,21.3,8.7,31.7,12.4c4.1,1.5,5.4,3.6,5,7.6c-0.3,3-0.1,6-0.1,9.6c-1.7-0.6-3.1-1-4.4-1.5
	c-15.2-6.6-30.4-13.3-45.8-19.7c-3.2-1.3-4.1-3.1-4-6.4c0.5-10.7-1.9-7.6,8.1-12.1c13.6-6.1,27.4-11.9,41.1-17.8
	c1.3-0.6,2.7-1,4.8-1.9c0,4.8,0.3,9.1-0.2,13.3c-0.1,1.2-2,2.8-3.4,3.3c-9.2,3.7-18.6,7.2-27.9,10.8
	C-4767.5,1436.3-4769,1437-4771.2,1438z"/>
<path d="M-4693.4,1467.8c-0.3-0.8-0.4-1-0.4-1.1c-1-13.8-1-13.8,11.7-18.8c8-3.1,16.1-6.3,25.2-9.9c-5.9-2.3-10.9-4.3-15.9-6.3
	c-5.9-2.3-11.7-4.7-17.7-6.8c-2.6-0.9-3.7-2.2-3.5-5c0.2-3.6,0.1-7.3,0.1-11.7c3.6,1.5,6.6,2.8,9.6,4.1
	c13.4,5.8,26.8,11.6,40.3,17.3c3,1.3,3.9,2.9,4.3,6.2c0.8,6.7-1.8,9.8-8.1,12.3C-4663,1454.2-4677.9,1461.1-4693.4,1467.8z"/>
<path d="M-4728.1,1471.1c2-8.4,4.2-18,6.5-27.5c3-12.4,6-24.9,9-37.3c0.5-1.9,1.1-3.8,1.7-5.7c1.1-3.3,3.6-4.1,6.7-3.4
	c3.3,0.7,4.3,3.1,3.7,6c-1.7,7.8-3.5,15.6-5.4,23.3c-3.7,15.2-7.2,30.4-11.2,45.5c-0.6,2.3-2.8,5.1-4.9,5.9
	C-4725.9,1479.3-4728.5,1476.7-4728.1,1471.1z"/>
<path class="st0" d="M4240,1542.2c-70.8,0-141.6,0-212.3,0c-2.7,0-5.5,0.1-8.2,0c-22.6-0.7-33.8-12.3-33.9-35.1
	c0-115.8,0-231.6,0-347.3c0-11.3-0.1-22.7,0-34c0.2-19.7,11.2-31.3,30.8-32.9c2.7-0.2,5.5-0.2,8.2-0.2c144,0,287.9,0,431.9,0
	c3.4,0,6.9,0.1,10.3,0.4c17.9,1.9,28.5,13.5,28.7,31.5c0.2,26.5,0.1,52.9,0.1,79.4c0,100.3,0,200.6,0,301c0,25.8-11.1,37.1-37,37.1
	C4385.7,1542.3,4312.9,1542.2,4240,1542.2z M4464.1,1176c-149.6,0-298.1,0-446.8,0c0,111.8,0,222.9,0,333.9c149.3,0,297.9,0,446.8,0
	C4464.1,1398.4,4464.1,1287.6,4464.1,1176z M4332.1,1153.9c11,0.1,20.6-9.4,20.4-20.2c-0.2-10.5-9.4-19.5-20.1-19.5
	c-11.1-0.1-20.6,9.4-20.4,20.3C4312.2,1144.8,4321.5,1153.8,4332.1,1153.9z M4408.5,1134.3c0.1-11-9.2-20.3-20.4-20.2
	c-10.8,0.1-19.5,8.8-19.7,19.6c-0.1,10.9,8.3,19.8,19.1,20.1C4398.8,1154.2,4408.4,1145.3,4408.5,1134.3z M4464.4,1134
	c0-11.2-9.3-20.1-20.6-19.9c-10.8,0.2-19.5,9.1-19.4,19.9c0,10.8,8.6,19.6,19.5,19.9C4455.2,1154.2,4464.4,1145.2,4464.4,1134z"/>
<path class="st0" d="M4123,1333.7c22.9,9.1,44,18,65.4,25.6c8.4,3,11.1,7.4,10.3,15.7c-0.6,6.1-0.1,12.3-0.1,19.7
	c-3.6-1.2-6.4-2-9-3.1c-31.4-13.6-62.8-27.4-94.3-40.6c-6.5-2.7-8.5-6.3-8.2-13.1c1-22-3.8-15.7,16.7-24.9
	c28.1-12.6,56.5-24.5,84.8-36.7c2.8-1.2,5.6-2.2,10-3.8c0,9.9,0.5,18.7-0.3,27.3c-0.3,2.6-4.2,5.7-7.1,6.9
	c-19,7.7-38.3,14.9-57.4,22.3C4130.6,1330.2,4127.7,1331.6,4123,1333.7z"/>
<path class="st0" d="M4283.6,1395.2c-0.6-1.7-0.8-2-0.8-2.3c-2.1-28.5-2.1-28.5,24-38.7c16.6-6.5,33.1-13,51.9-20.3
	c-12.2-4.8-22.4-8.9-32.7-12.9c-12.1-4.7-24.2-9.7-36.4-14c-5.4-1.9-7.7-4.5-7.3-10.4c0.5-7.5,0.1-15,0.1-24.1
	c7.4,3.2,13.6,5.9,19.8,8.5c27.7,11.9,55.3,24,83.1,35.6c6.3,2.6,8,6,8.8,12.8c1.6,13.9-3.6,20.3-16.6,25.4
	C4346.1,1367,4315.3,1381.3,4283.6,1395.2z"/>
<path class="st0" d="M4212,1401.9c4.1-17.4,8.7-37.1,13.4-56.7c6.2-25.7,12.4-51.3,18.6-76.9c1-4,2.3-7.9,3.5-11.8
	c2.3-6.9,7.4-8.5,13.9-7.1c6.8,1.4,9,6.4,7.7,12.4c-3.4,16.1-7.3,32.1-11.1,48.1c-7.5,31.3-14.9,62.7-23.1,93.8
	c-1.2,4.7-5.7,10.6-10,12.2C4216.4,1418.9,4211.2,1413.4,4212,1401.9z"/>
<path class="st4" d="M5020.7,1122.4c124.1-0.6,226.8,102.3,224.9,228.5c-1.9,122.3-103.6,223.7-229.4,221.3
	c-122.1-2.3-223.3-104.1-220.5-230.2C4798.4,1220.7,4898.6,1121.8,5020.7,1122.4z M5218.5,1347.2c-0.2-108.7-89.9-198.4-198.1-197.9
	c-108.9,0.5-197.7,88.8-197.6,197.7c0.1,109.4,87.7,197.4,197.7,198.1C5128.9,1545.7,5218.7,1455.7,5218.5,1347.2z"/>
<path class="st2" d="M-5361.8,1173.7c0,6.3,0.1,12.1,0,17.9c0,2.3-1.7,2.8-3.8,2.8c-11.7,0-23.4,0-35.2,0c-1.5,0-3,0-4.5,0.1
	c-4.2,0.4-6.6,2.9-6.9,7.1c-0.1,2.1,0,4.1,0,6.2c0,125.8,0,251.7,0,377.5c0,4,0.8,7.6,4.8,9.3c1.7,0.7,3.8,0.9,5.7,0.9
	c78.3,0,156.6,0,234.9,0c15.9,0,31.9,0,47.8,0c6.6,0,9.8-3.1,9.8-9.8c0-127.4,0-254.9,0-382.3c0-6.6-3.3-9.8-10.2-9.8
	c-12,0-24-0.1-36,0c-2.5,0-3.5-0.5-3.4-3.2c0.2-4.8,0.1-9.6,0-14.3c0-1.7,0.6-2.3,2.3-2.3c13.5,0.1,27-0.2,40.5,0.2
	c10.2,0.3,22,8.8,25,18.9c0.9,3.1,1.7,6.4,1.7,9.5c0.1,128.7,0.1,257.3,0.1,386c0,11.9-9.4,23.7-21.3,26.3c-2.7,0.6-5.5,0.9-8.3,0.9
	c-94.6,0-189.2,0-283.8,0.1c-12.5,0-21.6-5.6-26.8-16.8c-1.5-3.3-2.5-7.2-2.5-10.8c-0.1-128.4,0-256.7-0.2-385.1
	c0-15.3,13.8-29.4,29.2-29.1c12.4,0.2,24.8,0,37.1,0C-5364.7,1173.7-5363.5,1173.7-5361.8,1173.7z"/>
<path class="st2" d="M-5170.3,1212.5c-10.5,0-20.3,0-30.2,0c-49.5,0-99-0.1-148.5,0c-2.7,0-3.4-0.8-3.4-3.5
	c0.1-15.6,0.1-31.1,0.1-46.7c0-5.4,3.7-9,9.2-9c12.3,0,24.6-0.1,36.8,0c2.2,0,3.1-0.7,3.9-2.8c5.9-16.1,17.2-26.8,34-29.6
	c13.7-2.3,26.7,0.5,37.1,11.3c5.5,5.7,10.2,11.6,12.7,19.2c0.7,2.2,2.7,1.8,4.3,1.8c11.7,0.1,23.4,0.1,35.2,0c2.4,0,4.3,0.8,6,2.4
	c1.9,1.8,2.8,3.8,2.7,6.4c-0.1,15.7,0,31.3,0,47C-5170.3,1210.1-5170.3,1211.1-5170.3,1212.5z M-5248.7,1157.2
	c0-6.9-5.1-12.1-11.8-12.1c-7.1,0-12.3,5.1-12.3,12.1c0,6.8,5.2,11.5,12.1,11.9C-5253.8,1169.6-5248,1164.2-5248.7,1157.2z"/>
<path class="st2" d="M-5216.8,1270.3c23.7,0,47.4,0,71.1,0c3.9,0,7.2,2.3,8.4,5.8c1.2,3.2,0.2,6.3-2.7,9c-2.2,2-4.7,2.8-7.7,2.8
	c-27.1-0.1-54.2-0.1-81.3-0.1c-19.1,0-38.2,0-57.4,0.1c-3.2,0-5.8-1.1-8.1-3.3c-2.6-2.5-3.6-5.2-2.2-8.6c1.5-3.4,4-5.3,7.7-5.7
	c1-0.1,2.1,0,3.1,0C-5262.8,1270.3-5239.8,1270.3-5216.8,1270.3z"/>
<path class="st2" d="M-5217.4,1360.3c23.7,0,47.4,0,71.1,0.1c1.8,0,3.8,0.4,5.3,1.3c2.9,1.6,4.6,4.3,4.2,7.7
	c-0.5,3.7-2.8,6.3-6.3,7.6c-1.6,0.6-3.5,0.9-5.2,0.9c-45.9,0-91.8,0-137.7,0.1c-3.1,0-5.8-0.7-7.9-2.9c-2.4-2.5-4.2-5.3-2.6-9.1
	c1.5-3.6,4.3-5.6,8.5-5.6C-5264.5,1360.3-5241,1360.3-5217.4,1360.3z"/>
<path class="st2" d="M-5216.7,1540.3c23.7,0,47.4,0,71.2,0c4.7,0,8.8,3.8,8.8,8.3c0,4.4-4.1,8.4-8.9,8.4c-47.8,0-95.6,0-143.5,0
	c-3.9,0-8.1-4.2-8.1-8.2c-0.1-4.1,4.1-8.4,8.1-8.4C-5264.9,1540.3-5240.8,1540.3-5216.7,1540.3z"/>
<path class="st2" d="M-5216.8,1467c-23.8,0-47.6,0-71.4,0c-4.2,0-7.9-3-8.8-7.2c-0.6-2.8,2-7.5,5.2-8.9c0.9-0.4,2-0.5,3-0.5
	c48,0,96,0,144,0c4.4,0,7.3,3,7.2,7.5c0,1.7,0.1,3.7-0.7,5.2c-1.3,2.6-3.5,4.1-6.8,4.1C-5169,1466.9-5192.9,1467-5216.8,1467z"/>
<path class="st2" d="M-5386.7,1449.7c0.6-4.1,3.1-6.4,6.1-7.8c2.8-1.3,6-0.9,8.4,1.3c3.2,2.9,6.2,6,9.2,9c2.9,2.8,3.5,2.9,6.4-0.1
	c8.7-8.8,17.5-17.5,26.2-26.3c2.5-2.5,6.7-3.3,9.5-2c3.1,1.5,5.8,5.6,5.2,8.9c-0.3,1.9-1.2,4.1-2.6,5.4
	c-11.6,11.9-23.3,23.6-35.1,35.3c-3.8,3.7-9,3.8-12.9,0.1c-6-5.8-11.9-11.7-17.6-17.8C-5385.2,1454.2-5385.7,1451.7-5386.7,1449.7z"
	/>
<path class="st2" d="M-5360.7,1386.6c-1.8-1-3.9-1.6-5.3-3c-5.9-5.6-11.6-11.4-17.3-17.3c-4-4.1-3.8-8.9,0.2-12.8
	c3.1-3,7.7-3.3,11.1-0.2c3.2,2.8,6.2,6,9.2,9c2.6,2.6,3.4,2.6,6,0c8.7-8.7,17.3-17.4,26-26c5.5-5.4,12.8-3.5,15,3.6
	c1.1,3.6-0.4,6.4-2.9,8.8c-7.5,7.5-15,15-22.4,22.5c-3.9,3.9-7.8,7.8-11.7,11.7c-2.6,2.6-3.9,3-7.5,3
	C-5360.4,1386.2-5360.6,1386.4-5360.7,1386.6z"/>
<path class="st2" d="M-5359.9,1295.8c-2.7,0.6-4.7-0.6-6.5-2.5c-5.4-5.5-10.9-10.8-16.2-16.4c-1.5-1.6-2.8-3.8-3.3-6
	c-0.8-3.9,1.4-7.2,5-9.1c2.6-1.4,6.8-0.7,9.4,1.8c3.1,3,6.2,6,9.1,9.1c1.8,1.9,3.4,1.8,5.2,0c8.4-8.5,16.9-17,25.4-25.5
	c1.1-1.1,2.3-2.3,3.7-3c4-2.2,7.9-1.2,10.7,2.5c2.8,3.6,2.8,7.8-0.5,11.2c-7,7.3-14.2,14.4-21.4,21.6c-4.4,4.4-8.9,8.8-13.3,13.4
	C-5354.7,1295-5356.8,1296.6-5359.9,1295.8z"/>
<path class="st2" d="M-5376.8,1530.6c1.9,1,3.9,1.8,5.5,3.2c2.6,2.2,4.9,4.9,7.4,7.3c4,4.1,4.2,4.1,8.2,0.1
	c8.3-8.4,16.8-16.6,24.9-25.2c3.5-3.7,10.2-3.8,13.3,0.3c2.4,3.1,2.9,6.3,0.6,9.5c-1.3,1.8-2.9,3.4-4.5,5
	c-10.6,10.7-21.3,21.4-32,32c-4.4,4.3-8.8,4.5-13.2,0.2c-5.6-5.5-11.2-11-16.7-16.7c-4.6-4.8-3.5-11.2,2.3-14.3
	c1.1-0.6,2.5-0.6,3.7-0.9C-5377.1,1531-5377,1530.8-5376.8,1530.6z"/>
<path class="st5" d="M257.1,13C392.6,12.8,504,124,502,261.9c-2,133.6-112.1,243.2-249.1,241.1C119.4,500.9,9.8,390.8,12,253.7
	C14.2,120.7,123.1,12.7,257.1,13z M478.6,257.9C479,137.4,381.4,38.6,261.3,36.3C137.7,34,37.6,133.1,35.3,253.7
	c-2.3,123.8,97.1,223.9,217.7,226C377.7,481.7,479.2,380.4,478.6,257.9z"/>
<path class="st0" d="M158.1,219.3c-9.3-2.8-18.5-5.7-27.7-8.5c-6.6-2-13.2-4.1-19.7-6.1c-3.2-1-5.5-2.8-5.6-6.4
	c-0.1-3.7,2.2-5.5,5.4-6.5c13.5-4.1,27.1-8.2,40.6-12.4c23.5-7.2,47.1-14.5,70.6-21.7c14.9-4.6,29.8-9.2,44.8-13.7
	c1.3-0.4,2.9-0.3,4.2,0.1c51,15.8,101.9,31.6,152.9,47.4c0.4,0.1,0.8,0.2,1.1,0.3c3.5,0.9,6.7,2.1,6.6,6.6c-0.1,4.2-3.2,5.3-6.5,6.3
	c-51,15.6-102,31.3-153,46.9c-2,0.6-4.6,0.8-6.6,0.2c-22.8-6.9-45.6-14-68.3-21.1c-0.5-0.2-0.9-0.4-2.1-0.9c3.3-1.8,6-3.8,9-4.8
	c15.3-5.1,30.6-10.2,46-14.8c6.7-2,13.8-2.5,20.5-4.2c2.5-0.7,5.5-2.7,6.5-4.9c1-2,0.3-5.4-0.8-7.6c-1.5-2.9-4.7-3.7-8-3
	c-15.6,3.6-31.3,6.8-46.7,11c-13.3,3.6-25.9,9.3-37.5,16.9c-7.7,5.1-14.5,11.1-19,19.4c-1.5,2.8-2.1,5.2-0.1,8.3
	c3.6,5.8,2.4,13.2-2.7,17.8c-2.1,1.9-2.5,3.7-2.3,6.2c1.4,20.4,1,40.8-3.5,60.9c-2.5,11.1-6.2,21.6-14.1,30.2
	c-6.5,7-14.4,9.6-23.7,7.6c-9.3-1.9-24-11.4-28.4-18.3c7.4-7.3,14.9-14.4,21.9-21.9c15.4-16.7,24.3-36.6,29-58.7
	c0.6-3.1,0.4-5.6-1.7-8.5c-5.3-7.4-2.6-17,5.6-21.8c1.7-1,3.3-2.6,4.3-4.3C152.2,230.3,155,224.9,158.1,219.3z"/>
<path class="st0" d="M190.9,245.6c22.5,6.9,44.6,13.7,66.7,20.6c7.1,2.2,13.8,2.4,21,0.1c21.8-6.9,43.8-13.4,65.7-20.1
	c0.9-0.3,1.7-0.5,3.2-0.8c3.8,12.9,9.5,25.2,9.4,38.8c0,4.3-1.9,9.4-4.6,12.7c-5.4,6.6-11.4,13.1-18.3,17.9
	c-15.2,10.4-31.7,18-50.3,20.2c-33.2,3.9-63.2-3.8-89-25.4c-7.4-6.2-14.1-13.7-14.7-24.1c-0.3-5.6,1-11.3,2.1-16.8
	C183.5,260.6,186.2,252.9,190.9,245.6z"/>
<path class="st6" d="M-731.4,2841.4c2.3-4,5.7-5.1,10.2-5c9.4,0.3,18.8,0.1,28.9,0.1c0-2.4,0-4.4,0-6.5c0-85.6,0-171.2,0-256.8
	c0-21.7,12.6-34.3,34.2-34.3c29,0,57.9,0,86.9,0c2.1,0,4.3,0.1,6.2,0.7c3.6,1.2,5,4,4.6,7.7c-0.4,3.5-2.6,5.6-6,6.1
	c-1.6,0.2-3.2,0.1-4.9,0.1c-29,0-57.9,0-86.9,0c-13.3,0-19.5,6.1-19.5,19.4c0,85.9,0,171.8,0,257.8c0,1.8,0,3.5,0,5.6
	c8.5,0,16.5,0,24,0c0.8-7.6,0.8-15.1,2.4-22.2c7-31.7,38.1-52.3,70.2-47.2c1.6,0.3,4.4-0.6,5.1-1.8c9.6-15.9,30.6-27.5,54.3-20.1
	c0.4,0.1,1,0.1,1.8,0.2c1.9-11,7-20.1,16.2-26.7c7.1-5.1,15.1-7.3,23.9-7c18.5,0.7,31.6,12.5,36.8,32.6c8-0.3,16-1.6,23.7-0.7
	c13.8,1.7,24.4,9.3,31.8,21.1c1.4,2.3,2.8,3,5.5,2.5c40.6-6.4,75.7,26.3,72,67c-0.1,0.6,0,1.3,0,2.2c8.1,0,16.2,0,24.8,0
	c0-1.8,0-3.6,0-5.3c0-86.1,0-172.2,0-258.3c0-12.9-6.2-19.1-19.2-19.1c-29.1,0-58.3,0-87.4,0c-1.6,0-3.7,0.5-4.8-0.3
	c-2.3-1.7-4.8-3.8-5.7-6.3c-1.1-3.2,0.9-6.1,4.2-7.3c1.9-0.7,4.1-0.8,6.2-0.8c29.1,0,58.3-0.1,87.4,0c21.3,0,33.9,12.8,33.9,34.1
	c0,85.8,0,171.5,0,257.3c0,1.9,0,3.8,0,6.3c10,0,19.6,0,29.1,0c7.7,0,10,2.3,10,9.8c0,4.6,0.1,9.1,0,13.7
	c-0.4,12.2-9.8,21.8-22,22.4c-1.9,0.1-3.9,0.1-5.9,0.1c-147.9,0-295.8,0-443.8,0c-16.4,0-21.9-3.6-28.3-18.6
	C-731.4,2856.4-731.4,2848.9-731.4,2841.4z M-325.1,2836.5c0.3-3.1,0.8-5.8,0.8-8.5c-0.1-31.3-30-53.9-60.2-45.5
	c-8,2.2-9.7,1.4-13.1-6.3c-8.5-18.9-30.9-24.8-47.9-12.5c-3.3,2.4-6.5,3.9-10.2,1.3c-3.4-2.4-3.4-5.7-2.5-9.6
	c2.4-10-1.3-19.7-9.5-25.3c-8.1-5.6-19-5.6-27.1-0.1c-8.3,5.6-12.1,15.3-9.7,25.2c1,4,1.1,7.5-2.7,10c-3.8,2.5-7,0.8-10.2-1.6
	c-16.9-12.2-39.4-6.1-47.8,12.9c-3.2,7.3-5.1,8.1-12.8,6.1c-19.3-5-35.9-0.1-49,14.8c-9.7,11-13.2,24.2-10.6,39.1
	c5.5,0,10.5-0.2,15.6,0.1c4.1,0.2,6.6,2.7,6.8,6.8c0.2,4.2-2.2,6.7-6.2,7.5c-1.6,0.3-3.2,0.2-4.9,0.2c-28.3,0-56.6,0-85,0
	c-1.7,0-3.5,0-5.1,0c-1.6,11.5-0.2,16.8,13.8,16.8c147.6-0.2,295.2-0.1,442.9-0.1c2,0,3.9,0.1,5.9-0.1c4.2-0.5,6.9-3,7.5-7.2
	c0.4-3,0.1-6,0.1-9.4c-2.5,0-4.4,0-6.3,0c-111.3,0-222.7,0-334,0c-1.9,0-4,0.2-5.8-0.2c-3.8-0.8-6.1-3.4-5.9-7.3
	c0.1-4,2.5-6.6,6.7-7c1.6-0.2,3.3-0.1,4.9-0.1c85.1,0,170.2,0,255.4,0C-329.4,2836.5-327.4,2836.5-325.1,2836.5z"/>
<path class="st6" d="M-442.8,2648.7c-5,5.9-7.9,11.6-4.7,19.3c2.1,5,2.9,10.6,4.1,16c1.5,6.8-1.3,10.5-8.3,10.5
	c-19.8,0.1-39.7,0.1-59.5,0c-7,0-9.8-3.7-8.3-10.5c1.2-5.4,2-11,4.1-16c3.2-7.7,0.3-13.4-4.7-19.2c-8.5,4.8-17.1,9.6-25.7,14.5
	c-8.1,4.5-16.1,9.2-24.2,13.6c-7.3,4-12.6,1-12.8-7.3c-0.1-6.8-0.1-13.7,0-20.5c0.1-8.3,3.1-15.4,8.5-21.8
	c10.4-12.3,20.7-24.6,30.9-37.2c1.4-1.7,2.2-4.7,2-6.9c-8-63.5,8.9-119,53.2-165.7c5-5.3,8.6-5.3,13.6,0
	c39.3,40.9,57.1,89.9,54.9,146.3c-0.3,6.6-1.5,13.2-1.8,19.9c-0.1,2.2,0.7,4.8,2,6.5c9.9,12.3,20,24.4,30.3,36.4
	c6.4,7.4,9.4,15.7,9.2,25.5c-0.2,6,0.1,12-0.1,18.1c-0.2,7.6-5.6,10.8-12.3,7C-409.1,2667.8-425.8,2658.3-442.8,2648.7z
	 M-481.2,2490.9c-10.9,0-21.8,0.1-32.7-0.1c-2.7,0-4,0.6-4.9,3.3c-17.1,52.4-12.6,102.7,14.2,151c1.5,2.7,3.3,3.5,6.2,3.4
	c11.4-0.2,22.8-0.2,34.1,0c3,0,4.7-0.9,6.2-3.5c26.7-48.1,31.2-98.3,14.2-150.6c-0.9-2.8-2.2-3.8-5.1-3.7
	C-459.8,2491-470.5,2490.9-481.2,2490.9z M-451.5,2476c-7.9-16.5-17.5-31.1-30-44.3c-12.4,13.3-22.2,27.8-29.9,44.3
	C-491.2,2476-471.6,2476-451.5,2476z M-526.5,2635.6c-3.6-10.2-7-19.6-10.6-29.5c-1.2,1.4-2.3,2.5-3.3,3.6c-7,8.3-13.6,17-21,25
	c-6.4,6.9-7.5,14.7-6.3,24.1C-553.7,2650.9-540.1,2643.2-526.5,2635.6z M-436.3,2635.6c13.8,7.7,27.4,15.4,41.5,23.3
	c0.1-7.7,1.2-14.5-3.5-20.2c-8.8-10.7-17.6-21.2-26.5-31.8c-0.2-0.3-0.8-0.3-1.1-0.3C-429.4,2616.2-432.7,2625.6-436.3,2635.6z
	 M-459.6,2679.8c-1.3-5.2-2.2-9.8-3.6-14.3c-0.3-1-2.4-2.1-3.6-2.1c-9.7-0.2-19.5-0.2-29.2,0c-1.2,0-3.2,0.8-3.5,1.7
	c-1.5,4.7-2.5,9.6-3.8,14.7C-488.4,2679.8-474.4,2679.8-459.6,2679.8z"/>
<path class="st6" d="M-481.2,2577c-17,0.1-30.8-13.3-31-30.3c-0.3-17,13.8-31.2,30.8-31.2c16.8,0,30.7,13.8,30.8,30.7
	C-450.5,2563.1-464.2,2576.9-481.2,2577z M-481.5,2562.3c9,0,16.2-7,16.2-16c0-8.8-7.2-16.2-16-16.3c-8.8-0.1-16.1,7.2-16.2,16.1
	C-497.6,2555.1-490.5,2562.3-481.5,2562.3z"/>
</svg>
