<?xml version="1.0" encoding="utf-8"?>
<!-- Generator: Adobe Illustrator 21.1.0, SVG Export Plug-In . SVG Version: 6.00 Build 0)  -->
<svg version="1.1" id="Слой_1" xmlns="http://www.w3.org/2000/svg" xmlns:xlink="http://www.w3.org/1999/xlink" x="0px" y="0px"
	 viewBox="0 0 512 512" style="enable-background:new 0 0 512 512;" xml:space="preserve">
<style type="text/css">
	.st0{fill:#8CDDFF;stroke:#8CDDFF;stroke-width:10;stroke-miterlimit:10;}
</style>
<title>my-telegram</title>
<path class="st0" d="M54.2,12.8c0-3.7,3-6.7,6.7-6.7h0c98.5,0,196.9,0,295.4-0.1c5.8,0,9.4,2.1,13.8,8.9
	c20,30.5,45.7,56.7,76.2,76.6c7.2,4.7,9.6,7.8,9.6,13.6c-0.1,131.8-0.1,263.5-0.1,395.3l0,0c0,3.1-2.5,5.7-5.7,5.7H70.5
	c-9,0-16.3-7.3-16.3-16.3V12.8z M86,490.5h337.7c9,0,16.3-7.3,16.3-16.3V117.1H364c-10.7,0-19.3-8.6-19.3-19.3V22.1H86
	c-9,0-16.3,7.3-16.3,16.3v435.9C69.7,483.2,77,490.5,86,490.5z M360.7,28.3v55.9c0,9.3,7.5,16.9,16.9,16.9h56.2
	C409.3,76.7,385.1,52.5,360.7,28.3z"/>
<path class="st0" d="M260.6,380.7c-9.8,4.7-18.9,8.9-27.9,13.4c-3.4,1.7-5.5,1.4-8.3-1.4c-20.3-20.6-40.8-41.1-61.4-61.4
	c-2.7-2.6-3-4.7-1.4-7.9c4.4-8.7,8.5-17.5,13.1-27c-9.2-0.1-16.7,2.8-23.9,6.9c-2,1.2-3.9,2.7-5.8,4c-8.2,5.8-16.5,5.3-23.6-1.5
	c-6.8-6.5-13.4-13.2-20-20c-7.1-7.4-7.2-17,0.1-24.2c15.6-15.4,31.1-30.9,47.2-45.7c3.3-3.1,9-4.9,13.7-5
	c21.2-0.5,42.3-0.1,63.5-0.4c2.7,0,6-1.4,7.9-3.3c37.1-38.4,82.2-56.5,135.5-54.6c6,0.2,11.9,0.6,17.8,1.3
	c8.5,0.9,13.6,5.7,14.6,14.2c6.9,59.3-9.1,110.9-52.5,153c-3,2.9-4.2,5.7-4.2,9.8c0.2,20.8,0,41.6,0.1,62.4c0,6.2-2.1,11.1-6.4,15.5
	c-14.7,14.5-29.2,29.2-43.8,43.7c-9.5,9.4-18.2,9.4-27.7-0.1c-5.4-5.4-10.8-10.7-16.1-16.1c-8.2-8.3-8.8-16.2-1.7-25.5
	C256,402.2,260.2,392.6,260.6,380.7z M231.5,377.8c14.6-7.4,28.9-14.6,43.4-21.9c4.3,24.8,1.1,47.5-14.1,65.8
	c7.5,7.5,14.3,14.4,21.4,21.5c14.9-14.9,30.4-30.4,45.7-46c1.3-1.3,1.6-3.9,1.6-6c0.1-22.3,0.2-44.5,0-66.8c0-4.5,1.3-7.6,4.7-10.7
	c26-23.6,43.9-52.1,50.5-87.1c3.6-18.8,3.8-37.6,1.5-56.7c-15.6-2.1-30.7-2-45.8-0.2c-39.9,4.9-72.5,23.5-99.1,53.1
	c-2.5,2.8-5,4-8.8,4c-22.6-0.2-45.2-0.2-67.9,0.1c-2.7,0-5.9,1.4-7.9,3.3c-13.8,13.1-27.3,26.4-40.9,39.7c-1.4,1.3-2.6,2.8-3.4,3.6
	c7.6,7.7,14.8,14.9,22.3,22.5c18.5-16,41.1-17,65.1-14.3c-1.1,2.2-1.8,4-2.7,5.7c-5.7,11.3-11.5,22.6-16.9,34
	c-0.7,1.4-0.5,4.4,0.6,5.5C197.5,343.8,214.3,360.5,231.5,377.8z"/>
<path class="st0" d="M269.9,252.4c0-18.7,15.1-33.9,33.7-33.8c18.4,0.1,33.5,15.2,33.6,33.6c0.1,18.6-15.2,33.8-33.9,33.7
	C284.7,285.8,270,271,269.9,252.4z M303.4,270.3c9.9,0,17.8-7.9,17.8-17.9c0-10-7.7-17.9-17.7-18c-10.2-0.1-18.3,8-18.2,18.1
	C285.5,262.4,293.6,270.4,303.4,270.3z"/>
</svg>
