<?xml version="1.0" encoding="utf-8"?>
<!-- Generator: Adobe Illustrator 21.1.0, SVG Export Plug-In . SVG Version: 6.00 Build 0)  -->
<svg version="1.1" id="Слой_1" xmlns="http://www.w3.org/2000/svg" xmlns:xlink="http://www.w3.org/1999/xlink" x="0px" y="0px"
	 viewBox="0 0 512 512" style="enable-background:new 0 0 512 512;" xml:space="preserve">
<style type="text/css">
	.st0{fill:#8CDDFF;stroke:#8CDDFF;stroke-width:10;stroke-miterlimit:10;}
</style>
<title>my-telegram</title>
<path class="st0" d="M434.4,310.7c0,2.4,0,4.2,0,6c0,12.5,0,25,0,37.5c0,5.5,0.4,11.2-5.8,13.9c-6.5,2.8-10.4-1.8-14.4-5.8
	c-15.7-15.8-31.6-31.5-47.2-47.4c-2.9-3-5.9-4.3-10.1-4.3c-30.8,0.2-61.5,0.1-92.3,0.1c-26.3,0-44-17.7-44-43.9
	c0-66.1,0-132.2,0-198.3c0-25,18.1-43.2,43.2-43.2c66.1,0,132.2,0,198.3,0c26.2,0,43.9,17.7,43.9,44c0,66.1,0,132.2,0,198.3
	c0,25.2-18.1,43.1-43.2,43.1C453.5,310.7,444.3,310.7,434.4,310.7z M414.1,335.4c0.4-0.1,0.8-0.3,1.3-0.4c0-10.4,0-20.8,0-31.2
	c0-8.7,3.2-11.8,12-11.8c11.5,0,23,0.1,34.5,0c15.9-0.1,25.2-9.5,25.2-25.3c0-65.6,0-131.2,0-196.8c0-16-9.2-25.4-25.1-25.4
	c-65.9,0-131.9,0-197.8,0c-15.3,0-24.7,9.3-24.7,24.7c0,65.8,0,131.5,0,197.3c0,16.4,9,25.5,25.4,25.5c32.1,0.1,64.3,0.2,96.4-0.1
	c6.6-0.1,11.5,1.8,16,6.6C389.4,311,401.9,323.1,414.1,335.4z"/>
<path class="st0" d="M79.6,430.7c-9.8,0-18.8,0-27.7,0c-25.7,0-43.9-18-43.9-43.7c0-66.1,0-132.2,0-198.4
	c0-25.5,17.9-43.6,43.4-43.6c51.2-0.1,102.5,0,153.7,0c1.9,0,3.7-0.1,5.6,0.2c4.9,0.7,8.4,4.6,8.4,9.3c0,4.8-3.8,8.9-8.8,9.4
	c-1.5,0.2-3,0.1-4.6,0.1c-50.7,0-101.5,0-152.2,0c-17.6,0-26.6,8.9-26.6,26.5c0,64.9,0,129.9,0,194.8c0,17.3,9,26.3,26.2,26.3
	c11.2,0,22.3,0,33.5,0c8.7,0,12,3.2,12,11.9c0,10.4,0,20.8,0,32.8c5.5-5.5,10-9.9,14.5-14.4c8.6-8.6,17.3-17.1,25.8-25.9
	c3-3.1,6.4-4.5,10.8-4.5c33,0.1,66,0.1,98.9,0.1c16.7,0,25.8-9,25.8-25.6c0-11.5,0-23,0-34.5c0-4.3,1.7-7.7,5.7-9.4
	c3.7-1.6,7.6-1.2,10.2,2c1.6,1.9,2.8,4.8,2.9,7.2c0.3,13.2,0.5,26.4,0,39.6c-0.7,22-19.1,39.5-41.6,39.7c-31.6,0.2-63.2,0.1-94.9,0
	c-4,0-6.9,1.1-9.7,4c-16.2,16.5-32.7,32.8-49.1,49.2c-3.5,3.5-7.2,6.4-12.5,4.2c-5.3-2.2-6.1-6.6-6-11.7c0.1-13,0-26,0-39.1
	C79.6,435.3,79.6,433.3,79.6,430.7z"/>
<path class="st0" d="M214.7,360c-0.1,6.5-3.7,10.9-8.6,11.9c-5.1,1-10.2-1.6-12.2-6.8c-4.8-12.8-9.4-25.7-14.1-38.6
	c-1.3-3.5-2.8-6.9-3.8-10.5c-0.9-3.2-2.7-4-5.9-4c-13,0.2-26,0.2-39,0c-3.2,0-4.7,1-5.8,4c-5.5,15.6-11.1,31.2-16.9,46.7
	c-1.1,3-3.3,6.1-5.8,7.9c-3.7,2.6-8.2,2-11.8-0.9c-3.9-3.2-5.1-7.4-3.4-12.3c5-14,10.1-28,15.2-41.9c12.4-34.1,24.8-68.3,37.1-102.4
	c1.6-4.4,3.8-7.9,8.6-9.1c5.7-1.4,10.8,1.7,13.2,8.2c5.7,15.7,11.4,31.4,17.1,47.2c11.2,31,22.5,61.9,33.7,92.9
	C213.3,355.2,214.1,358.2,214.7,360z M134.8,290.1c11,0,21,0,31.8,0c-5.2-14.5-10.3-28.4-15.9-43.8
	C145.1,261.6,140.1,275.5,134.8,290.1z"/>
<path class="st0" d="M359.7,179.2c16.2-17.9,30.2-36.5,42.8-57.5c-2.9,0-4.7,0-6.5,0c-33,0-65.9,0-98.9,0c-7.8,0-12.8-4.9-12.2-11.7
	c0.5-6,4.8-9.8,11.4-9.9c16.7-0.1,33.5-0.1,50.2-0.1c1.8,0,3.6,0,5.3,0c1.8-12.5,4.4-16.1,11.4-16.1c6.7,0,9.1,3.3,11.5,16.1
	c2,0,4.2,0,6.3,0c15.9,0,31.8,0,47.7,0c7.9,0,12.7,3.9,12.9,10.5c0.2,6.3-3.9,10.2-11.7,11.3c-1.4,0.2-3.1,1.3-3.8,2.6
	c-14.3,25.3-31.4,48.5-51.4,70.6c5.7,5.3,11.1,10.8,17,15.8c8.4,7.1,17,14,25.5,20.8c6.1,4.9,7.6,10.9,3.8,16.2
	c-3.9,5.4-10.7,6.2-16.9,1c-13.5-11.2-26.8-22.7-40.2-34.1c-1.4-1.2-2.7-2.5-4.2-3.9c-7.9,6.9-15.4,13.9-23.3,20.5
	c-7.4,6.2-14.9,12.1-22.7,17.8c-6,4.4-12.6,3.6-16.2-1.3c-3.8-5.3-2.3-11.5,3.6-16.3c12.6-10.3,25-20.7,37.4-31.1
	c1.9-1.6,3.7-3.4,5.9-5.4c-1.5-1.8-2.7-3.1-3.8-4.5c-11.5-15-23.1-30-34.3-45.2c-1.9-2.6-2.8-6.6-2.7-9.8c0.2-4.6,3.6-7.5,8.2-8.5
	c5.3-1.1,8.9,1.4,12,5.6c10.1,13.7,20.5,27.3,30.8,40.9C356.1,175.3,357.7,176.9,359.7,179.2z"/>
</svg>
