<?xml version="1.0" encoding="utf-8"?>
<!-- Generator: Adobe Illustrator 21.1.0, SVG Export Plug-In . SVG Version: 6.00 Build 0)  -->
<svg version="1.1" id="Слой_1" xmlns="http://www.w3.org/2000/svg" xmlns:xlink="http://www.w3.org/1999/xlink" x="0px" y="0px"
	 viewBox="0 0 512 512" style="enable-background:new 0 0 512 512;" xml:space="preserve">
<style type="text/css">
	.st0{fill:#8CDDFF;stroke:#8CDDFF;stroke-width:8;stroke-miterlimit:10;}
</style>
<title>my-telegram</title>
<g>
	<path class="st0" d="M506,170.1c-2.9,8.2-7.6,14.8-16.6,16.9c-3.1,0.7-6.5,0.9-9.7,0.6c-4.2-0.3-6.3,0.9-7.5,5.3
		c-1.6,5.8-3.7,11.6-6.8,16.6c-3.3,5.2-2.2,8.2,2.1,11.8c4.5,3.7,7.4,8.6,8.1,14.6c0.8,7.1-1.5,13.1-6.5,18.2
		c-4.1,4.2-8.2,8.4-12.4,12.4c-10.3,10-22.5,10-32.8,0c-6-5.8-5.9-5.6-13.5-2.2c-5.6,2.5-11.4,4.7-17.3,6.6c-2.6,0.9-3.7,2-3.4,4.8
		c0.2,2.3,0.1,4.6,0,6.8c-0.6,12.3-9.4,21-21.7,21.3c-6.3,0.2-12.7,0.1-19,0c-13.1-0.2-21.9-8.9-22.5-22.1
		c-0.4-9.5-0.5-9.4-9.2-12.8c-6.3-2.5-12.5-5.4-19-8.2c-2.5,2.4-5.1,5.1-7.9,7.5c-8.5,7.4-20,7.6-28.5,0.2
		c-5.3-4.6-10.2-9.6-15-14.7c-8.9-9.5-8.7-21.5,0.2-31.1c6.3-6.9,6.2-6.8,2.4-15.5c-2.2-5-4.3-10.2-5.9-15.5c-1-3.3-2.5-4.3-5.8-4.1
		c-3.4,0.2-6.9,0.2-10.2-0.4c-9.9-2-16.7-10.3-17.2-21c-0.3-6.7-0.3-13.4,0-20c0.5-11.9,8.2-19.9,20.1-21.3c1.6-0.2,3.3-0.5,4.9-0.3
		c5.2,0.8,7.7-1.1,9.1-6.4c1.5-5.7,4-11.4,7-16.6c2.4-4.2,1.9-6.7-1.7-9.4c-1.5-1.2-2.8-2.7-4.1-4.2c-7-8.2-7.3-19.6-0.2-27.7
		c5.2-6,10.9-11.6,16.9-16.9c7.7-6.8,18.9-6.7,26.9-0.2c3.2,2.5,5.9,5.5,8.6,8c9.1-3.5,18-6.9,26.8-10.5c0.9-0.4,1.5-2.3,1.7-3.5
		c0.4-3.9,0.1-7.8,0.8-11.6c1.7-9.1,8.8-15.9,18-16.7c7.9-0.7,16-0.9,23.9-0.2c12.6,1,20.3,9.8,20.6,22.3c0.2,9,0.3,8.9,8.7,12.1
		c6.5,2.5,12.8,5.5,20.5,8.8c1.5-1.8,3.2-4.4,5.4-6.5c9.8-9.4,22-9.4,31.7-0.1c4.2,4,8.4,8.2,12.4,12.4c9.7,10.1,9.7,22.3,0,32.5
		c-5.9,6.2-5.8,6.1-2.2,14c2.4,5.5,4.6,11.1,6.5,16.8c0.9,2.5,2,3.6,4.8,3.6c4.2,0,8.5,0,12.6,1.1c8.7,2.2,13.2,8.9,15.8,17
		C506,151.8,506,161,506,170.1z M440.2,255c5.2-5.4,9.9-10,14.3-15c0.6-0.7,0-3.4-1-4.4c-3.2-3.6-6.9-6.9-10.2-10.5
		c-4.3-4.5-5-8.4-1.7-13.7c6.8-11,11.6-22.8,14.7-35.4c1.4-5.8,4.6-8,10.5-8.2c5-0.1,10.1-0.1,15.1,0c2.6,0,3.9-0.9,3.8-3.7
		c-0.1-5.4,0.2-10.8-0.2-16.1c-0.1-1.2-2.1-3.2-3.4-3.3c-4.7-0.4-9.4-0.1-14.1-0.2c-7-0.1-10.4-2.3-12-9c-3-12.3-7.7-23.7-14.4-34.5
		c-3.4-5.5-2.7-9.4,1.7-14.1c3.4-3.5,6.8-7,10.3-10.4c1.9-1.9,2-3.4,0.1-5.3c-3.8-3.6-7.5-7.3-11-11c-1.9-2-3.4-2-5.3,0
		c-3.4,3.5-6.8,7-10.3,10.4c-4.7,4.5-8.7,5.2-14.1,1.8C402.4,65.9,391,61,378.7,58.2c-6.7-1.5-9-4.9-9.1-11.9
		c-0.1-4.6-0.2-9.1,0-13.7c0.1-3.2-1.2-4.3-4.3-4.2c-4.9,0.2-9.8,0.2-14.6,0c-3.3-0.1-4.3,1.3-4.2,4.4c0.1,4.6,0.1,9.1,0,13.7
		c-0.2,6.8-2.5,9.9-9,11.5c-12.3,3-23.8,7.6-34.5,14.4c-5.4,3.4-9.4,2.7-14.1-1.7c-3.5-3.4-7-6.8-10.3-10.4
		c-1.8-1.9-3.3-2.2-5.3-0.2c-3.6,3.8-7.3,7.5-11,11c-2.3,2.1-1.9,3.7,0.2,5.6c3.3,3.1,6.5,6.4,9.7,9.6c5,5.1,5.7,9,2,14.9
		c-6.7,10.7-11.3,22.2-14.3,34.5c-1.5,6.1-4.8,8.6-11.2,8.7c-4.9,0.1-9.8,0.1-14.6,0c-2.7-0.1-3.8,1-3.7,3.7
		c0.1,5.2,0.1,10.4,0,15.6c-0.1,2.7,1.1,3.8,3.8,3.7c4.7-0.1,9.4-0.1,14.2,0c7,0.2,10.2,2.5,11.8,9.3c2.9,12.1,7.5,23.4,14.2,34
		c3.6,5.8,2.9,9.6-1.8,14.5c-3.3,3.4-6.6,6.8-10,10c-2.1,2-2.4,3.6-0.2,5.6c3.7,3.5,7.3,7,10.7,10.7c2.3,2.5,3.9,2,6-0.2
		c3-3.2,6.1-6.3,9.3-9.3c5.3-5.2,9.1-5.9,15.2-2.1c10.5,6.5,21.6,11.1,33.6,14c7.1,1.7,9.3,4.8,9.4,12.1c0.1,4.6,0.1,9.1,0,13.7
		c-0.1,2.5,0.6,4,3.5,4c5.4-0.1,10.8,0.2,16.1-0.2c1.2-0.1,3.2-2.1,3.3-3.4c0.4-4.4,0.1-8.8,0.2-13.2c0.1-8.3,2.3-11.5,10.5-13.4
		c11.3-2.7,21.9-7.1,31.8-13.2c7-4.3,10.6-3.8,16.4,2C432,246.4,435.8,250.4,440.2,255z"/>
	<path class="st0" d="M6,253.1c3.8-9.1,7.7-18.2,11.5-27.2c7.2-16.9,20.8-22.5,37.7-15.6c4.2,1.7,8.8,5.2,12.6,4.5
		c3.4-0.7,5.7-6.2,8.8-9.2c7-6.8,14-13.6,21.3-20c2.3-2.1,3.1-3.5,1.7-6.5c-2.2-4.7-4.2-9.5-5.7-14.5c-3.6-11.7,1.4-24.5,12.4-29.9
		c9.9-4.8,20.2-9,30.6-12.6c11.1-3.8,23.9,1.3,29.2,11.8c4.4,8.5,7.8,17.5,11.3,26.4c2,5.3-0.5,10.6-5.3,12.7
		c-5,2.2-10.5,0.3-13-5.2c-3.2-6.8-5.8-13.8-8.7-20.6c-2.7-6.3-5-7.2-11.4-4.7c-6.9,2.8-13.9,5.6-20.7,8.5
		c-5.4,2.3-6.5,4.9-4.3,10.4c2.5,6.3,5.2,12.6,7.8,18.9c2.9,7.1,2.1,10.9-4,15.3c-14.4,10.2-26.6,22.3-36.7,36.7
		c-4.3,6.1-8.3,7-15.2,4.2c-6.3-2.6-12.6-5.3-18.9-7.8c-5.6-2.2-8.2-1.2-10.5,4.1c-3.1,7.2-6.1,14.4-9,21.6c-2.2,5.4-1,8,4.4,10.4
		c6.1,2.6,12.3,5.1,18.5,7.7c7.5,3.1,9.1,6.5,8.5,14.4c-0.9,12.3-1.6,24.6-1.8,36.9c-0.1,4.7,1.1,9.3,1.8,14c1,7.7-0.8,11.1-8,14.1
		c-6.3,2.7-12.6,5.2-18.9,7.9c-5.4,2.3-6.5,4.9-4.3,10.4c2.9,7.2,5.8,14.5,8.9,21.6c2.2,5.2,4.8,6.3,10,4.2c6.5-2.6,12.9-5.3,19.4-8
		c6.7-2.7,10.8-1.9,14.9,3.9c10.2,14.5,22.5,26.9,37.1,37.1c6,4.2,6.8,8,4,14.8c-2.6,6.5-5.4,12.9-8,19.4c-2.2,5.5-1.1,8,4.4,10.4
		c7.2,3.1,14.4,6.1,21.6,9c5.2,2.1,7.8,1,10-4.1c2.8-6.4,5.3-12.9,8.1-19.4c2.9-6.8,6-8.9,13.3-7.7c17.7,2.8,35.3,2.8,52.9,0
		c7.1-1.2,10,0.9,12.9,7.6c2.7,6.4,5.3,12.9,8.1,19.3c2.3,5.5,4.8,6.5,10.4,4.3c7.2-2.9,14.5-5.9,21.6-8.9c5.1-2.2,6.2-4.9,4.1-10.1
		c-2.6-6.5-5.4-12.9-8-19.4c-2.7-6.8-1.9-10.8,4-14.9c14.6-10.2,26.9-22.5,37.1-37.1c4.1-5.8,8.2-6.7,14.9-4
		c6.3,2.5,12.6,5.2,18.9,7.8c5.9,2.4,8.3,1.4,10.8-4.3c2.9-6.9,5.8-13.8,8.6-20.7c2.5-6.2,1.5-8.7-4.9-11.3
		c-6.1-2.6-12.3-5.1-18.4-7.7c-6.9-3-9.6-8.1-7.3-13.7c2.4-5.7,7.9-7.6,14.8-4.9c6.8,2.7,13.6,5.5,20.3,8.4
		c14.9,6.6,20.6,20.3,14.8,35.4c-3.1,7.9-6.3,15.7-9.7,23.4c-6.4,14.6-20.2,20.3-35.1,14.7c-4.9-1.8-10.2-6.1-14.3-5.1
		c-4.1,0.9-6.9,7.2-10.5,10.8c-7.3,7.2-14.7,14.2-22.6,21.7c1.6,3.9,3.5,8.4,5.3,12.8c6.5,16,0.7,30.1-15,36.8
		c-7.3,3.1-14.7,6.2-22.1,9.1c-15.5,6.1-29.3,0.3-36-15.1c-1.5-3.6-3.1-7.1-4.5-10.8c-0.8-2.3-1.9-3-4.6-3
		c-13.3,0.3-26.6,0.3-39.9,0c-2.6,0-3.7,0.5-4.7,2.8c-1.9,4.8-3.8,9.7-6.2,14.3c-5.9,11.4-18.4,17-30.5,12.8
		c-10.3-3.5-20.4-7.7-30.1-12.5c-11-5.4-16-18.2-12.4-29.9c1.9-6.2,4.6-12.1,6.7-17.7c-7.8-7.5-15.5-14.8-23-22.1
		c-1.5-1.5-2.8-3.1-4.2-4.8c-5.3-6.5-5.2-6.5-13.3-3.2c-3.5,1.4-6.9,2.9-10.5,3.9c-13.1,3.8-25.9-2.7-31.6-16.1
		c-4.1-9.5-7.9-19.1-11.9-28.7c0-3.3,0-6.5,0-9.8c3.2-12,11.5-18.7,22.9-22.4c1.5-0.5,2.9-1.5,4.5-1.8c3.6-0.8,4.1-3,4-6.4
		c-0.3-11.8-0.7-23.7-0.1-35.4c0.3-5.1-0.9-7.6-5.8-9.1c-12.1-3.8-22.2-10-25.5-23.5C6,259.6,6,256.3,6,253.1z"/>
	<path class="st0" d="M201.5,394.4c-51.8-0.1-89.8-41.3-85.9-88.8c3.4-41.6,38-74.3,79.6-75.3c7-0.2,11.6,3.5,11.9,9.5
		c0.3,5.8-4,10.2-11,10.5c-33.1,1.4-55.3,26.1-59.5,51.7c-5.4,32.9,16.1,64.6,48.5,71.1c33.4,6.7,65.7-14.3,72.9-47.6
		c1-4.4,1.1-9,1.7-13.5c0.8-6.7,4.8-10.5,10.7-10.1c5.7,0.4,9.2,4.6,9.2,11.1c0.3,35.2-24.5,68.3-58.5,77.8
		C213.4,392.9,205.4,393.7,201.5,394.4z"/>
	<path class="st0" d="M418,156.2c-0.1,32.9-27.2,59.8-60.1,59.7c-32.8-0.1-59.6-27-59.6-59.8c0-32.9,27.1-60.1,59.9-60
		C391.1,96.1,418.1,123.2,418,156.2z M358.1,195.8c21.9,0,39.7-17.8,39.7-39.7c0.1-21.8-17.8-39.8-39.6-39.9c-22-0.1-40.1,18-40,40
		C318.4,178.1,336.2,195.8,358.1,195.8z"/>
</g>
</svg>
