<?xml version="1.0" encoding="utf-8"?>
<!-- Generator: Adobe Illustrator 21.1.0, SVG Export Plug-In . SVG Version: 6.00 Build 0)  -->
<svg version="1.1" id="Слой_1" xmlns="http://www.w3.org/2000/svg" xmlns:xlink="http://www.w3.org/1999/xlink" x="0px" y="0px"
	 viewBox="0 0 512 512" style="enable-background:new 0 0 512 512;" xml:space="preserve">
<style type="text/css">
	.st0{fill:#8CDDFF;}
</style>
<title>my-telegram</title>
<path class="st0" d="M373.4,15.2c6.6,1.6,13.3,2.8,19.6,5c8.9,3.1,16.7,8,22.1,16.2c3.4,5.2,4.7,10.9,4.8,17c0.1,3-1.1,5.1-3.4,7.1
	c-5.4,4.6-10.4,9.5-15.6,14.3c-1,0.9-2,1.7-3.2,2.8c-0.4-0.9-0.8-1.5-0.8-2c-0.8-15.9-15-29-32.3-29c-0.8,0-1.6,0-2.4,0
	c-96.4,0-192.8,0-289.1,0c-9.1,0-17.4,1.9-24.4,8.1C42.7,60,39.2,66.4,38,74.2c-0.4,2.4-0.4,4.8-0.4,7.2c0,101.7,0,203.4,0,305.1
	c0,8.8,2,16.8,7.9,23.6c5.3,6.1,11.9,9.7,19.8,10.7c2.9,0.4,5.8,0.4,8.8,0.4c96.2,0,192.5,0,288.7,0c16.8,0,29.4-8.9,33.2-23.8
	c0.9-3.6,1.1-7.4,1.1-11.1c0.1-47.7,0.1-95.3,0-143c0-3.4,0.8-5.9,3.3-8.5c8.9-9.3,17.6-18.9,26.3-28.4c0.4-0.4,0.9-0.8,2.2-2
	c0,2.5,0,4,0,5.5c0,58.8,0,117.7,0,176.5c0,27.6-12,48-36.9,60.2c-6,2.9-12.9,4.1-19.3,6c-103.6,0-207.1,0-310.7,0
	c-1.3-0.4-2.5-0.8-3.8-1.1C37.8,447.6,22.3,436.6,13,418c-3.3-6.5-4.7-14-7-21C6,288.3,6,179.7,6,71.1c0.4-1.3,0.8-2.5,1.1-3.8
	c4.1-20.3,15-35.6,33.5-44.9c6.6-3.3,14.2-4.9,21.3-7.2C165.7,15.2,269.6,15.2,373.4,15.2z"/>
<path class="st0" d="M506,98.2c-4.4,9-12.4,14.8-19.1,21.6C435.5,171.3,384,222.5,332.6,273.8c-23.9,23.8-47.8,47.7-71.7,71.6
	c-6.7,6.7-16.2,6.8-23.1-0.1c-17.8-17.9-35.6-35.9-53.4-53.8c-25.4-25.5-50.9-51-76.3-76.6c-2.4-2.4-5-4.8-7.2-7.5
	c-5.7-6.6-5.9-15,0.2-21.2c10.8-11.2,21.8-22.2,33-33c6.7-6.4,15.8-5.9,22.5,0.9c29.8,29.9,59.5,59.8,89.2,89.7
	c1.1,1.1,2.3,2.2,3.8,3.6c4.5-4.4,8.8-8.6,13.1-12.9c34.5-34.5,69-69,103.6-103.5c26.4-26.4,52.8-52.8,79.3-79.2
	c7.5-7.4,16.5-7.5,24-0.1c10.3,10.2,20.6,20.4,30.7,30.7c2.3,2.4,3.8,5.7,5.7,8.6C506,93.4,506,95.8,506,98.2z"/>
</svg>
