<?xml version="1.0" encoding="utf-8"?>
<!-- Generator: Adobe Illustrator 21.1.0, SVG Export Plug-In . SVG Version: 6.00 Build 0)  -->
<svg version="1.1" id="Слой_1" xmlns="http://www.w3.org/2000/svg" xmlns:xlink="http://www.w3.org/1999/xlink" x="0px" y="0px"
	 viewBox="0 0 512 555" style="enable-background:new 0 0 512 555;" xml:space="preserve">
<style type="text/css">
	.st0{fill:#8CDDFF;stroke:#8CDDFF;stroke-width:20;stroke-miterlimit:10;}
	.st1{fill:#8CDDFF;stroke:#8CDDFF;stroke-width:5;stroke-miterlimit:10;}
</style>
<title>my-telegram</title>
<title>cv-logo</title>
<path class="st0" d="M346.3,198.5c-1.5,17.4-3.1,34-5.6,50.9c-0.4,2.8,0.4,3.9,2.2,5.5c10.3,8.9,21.3,17.2,30.4,27.3
	c11.5,12.8,16,29.1,17.7,46.1c1.3,13.4,3.2,26.7,4.7,40.1c0.2,1.7,0.4,3.4,0.4,5.2c0,5.3-2.3,7.1-7.6,5.8
	c-22.6-5.4-45.2-10.9-67.8-16.2c-2.1-0.5-4.8-0.3-6.7,0.6c-22.8,10.5-46.8,14.3-71.7,11.7c-13.9-1.5-27.4-5.1-40.1-11.2
	c-3.4-1.7-6.6-2-10.3-1c-21.2,5.4-42.4,10.6-63.6,15.8c-9.2,2.3-10.9,0.8-9.8-8.5c2-17.3,3.5-34.7,6.4-51.9
	c3.4-20.3,13.4-37.2,29.3-50.4c5.6-4.6,11.4-9,17.2-13.4c2.1-1.6,3-2.8,2.5-5.9c-2.1-12.7-4.4-25.5-5.5-38.3
	c-2.9-36.9,4.4-72.2,19-105.9c14.6-33.5,36-62.1,63.4-86.3c5.6-5,6.4-5,12.1,0.2c31.3,27.9,54.5,61.3,69.1,100.7
	C341.5,145,346.1,171.3,346.3,198.5L346.3,198.5z M316,104.9c-40,21.8-78.8,21.7-118,0.4c-17.7,41.4-25.3,83.5-16.9,128.1
	c7.2,38.2,13.7,76.6,20.3,115c0.6,3.7,1.9,5.7,5.4,7.1c33.9,14.4,67.6,14.3,101.4-0.4c3-1.3,4.1-3,4.6-6c3.2-19,6.7-38,10-57
	c3.9-22.2,8.6-44.3,11.5-66.7c3.4-25.7,2.4-51.5-4.2-76.7C326.4,134,320.9,119.7,316,104.9z M310.2,95.4
	c-13.6-26.1-31.4-48.8-53.6-68.5c-22.3,19.9-40.1,42.5-53.6,68.5C232.5,116.1,281,116,310.2,95.4z M176.3,264
	c-4.8,3.7-9,6.9-13.2,10.2c-13.8,10.7-23.4,24.4-27,41.7c-2.3,11.1-3.6,22.4-5.2,33.7c-0.9,6.2-1.4,12.5-2.2,19.4
	c21.6-5.4,42.4-10.6,63.3-15.8C186.7,323.1,181.6,293.9,176.3,264z M322.4,353c21,5.1,41.6,10,62.8,15.1
	c-1.7-14.3-3.5-27.6-4.8-40.9c-2.7-28.6-18.9-47.9-42.5-62.7C332.8,293.9,327.7,323,322.4,353z"/>
<path class="st0" d="M261.9,470.9c0,10.7-0.1,21.5,0,32.2c0,3.9-1,7.4-5.3,7.4c-4.3,0-5.2-3.6-5.2-7.5c0.1-21,0-41.9,0-62.9
	c0-1.2-0.1-2.5,0.2-3.6c1-3,2.1-6.2,6.2-5.6c3.7,0.6,4.2,3.5,4.2,6.7c0,11.1,0,22.2,0,33.3C262,470.9,261.9,470.9,261.9,470.9z"/>
<path class="st0" d="M296.2,433c0-10,0.1-20.1,0-30.1c-0.1-3.8,1.2-6.9,5.1-6.9c4,0,5.3,3.1,5.3,6.9c0,20.3,0,40.5,0,60.8
	c0,3.7-1.3,6.8-5.5,6.7c-3.8-0.1-4.9-3-4.9-6.6C296.2,453.4,296.2,443.2,296.2,433z"/>
<path class="st0" d="M207.7,433.5c0-10.2,0.1-20.4-0.1-30.6c-0.1-4.3,2-7,5.8-6.9c3.8,0.1,4.5,3.1,4.4,7.1
	c-0.4,18.3-0.2,36.6-0.2,55c0,2.4,0,4.8-0.1,7.3c-0.1,3.2-1.6,5.3-5.1,5.2c-3.5-0.1-4.8-2.2-4.8-5.5
	C207.7,454.6,207.7,444,207.7,433.5z"/>
<path class="st0" d="M257.2,241.6c-23,0-40.1-18-40.1-42.3c0-20.1,18.6-37.8,39.7-37.8c21.7,0.1,40.4,18.8,40.4,40.4
	C297.2,223.9,279.3,241.6,257.2,241.6z M257.2,231.5c16.5,0,29.6-13.1,29.6-29.6c0-16.7-13.8-30-31.2-30
	c-15.9,0-28.1,13.1-28.1,30.1C227.6,218.5,240.7,231.5,257.2,231.5z"/>
<g>
	<path class="st1" d="M321.4,57.4c5.5,8.2,10.5,16.6,15,25.3c88,32.4,150.8,117,150.8,216.3c0,127.2-103.2,230.4-230.4,230.4
		C129.5,529.4,26.4,426.2,26.4,299c0-99,62.4-183.4,150-216c4.5-8.7,9.5-17.1,15-25.4C85,86.4,6.8,183.6,6.8,299
		c0,138.1,111.9,250,250,250s250-111.9,250-250C506.8,183.3,428.1,85.9,321.4,57.4z"/>
</g>
</svg>
