<?xml version="1.0" encoding="utf-8"?>
<!-- Generator: Adobe Illustrator 21.1.0, SVG Export Plug-In . SVG Version: 6.00 Build 0)  -->
<svg version="1.1" id="Слой_1" xmlns="http://www.w3.org/2000/svg" xmlns:xlink="http://www.w3.org/1999/xlink" x="0px" y="0px"
	 viewBox="0 0 507 508" style="enable-background:new 0 0 507 508;" xml:space="preserve">
<style type="text/css">
	.st0{fill:#8CDDFF;}
</style>
<title>my-address</title>
<path class="st0" d="M253,508C112.1,506.5-1.9,391.2,0,252.2C2,110.2,116.8-1.9,258.4,0c138,1.9,250.1,118.6,248.6,258.9
	C505.5,397.1,390.9,509.5,253,508z M253,409.3c2.6-2.1,4.2-2.8,4.9-4.1c28-46.2,55.9-92.5,83.8-138.7c21.7-35.8,20.1-71.2-0.8-106.7
	c-26.4-44.8-84.9-62-133.2-38.6c-47.3,22.9-69.7,79.2-49.2,127.4c8.3,19.5,19.7,37.6,30.6,55.9C210,339.5,231.5,374.1,253,409.3z"/>
<path class="st0" d="M219,211.1c0.2-22.4,15.2-37.4,36.5-36.8c20.9,0.6,36,17.1,35.5,38.7c-0.5,20.9-17.1,36.4-38.3,35.8
	C232.4,248.1,218.8,233,219,211.1z"/>
</svg>
