<?xml version="1.0" encoding="utf-8"?>
<!-- Generator: Adobe Illustrator 21.1.0, SVG Export Plug-In . SVG Version: 6.00 Build 0)  -->
<svg version="1.1" id="Слой_1" xmlns="http://www.w3.org/2000/svg" xmlns:xlink="http://www.w3.org/1999/xlink" x="0px" y="0px"
	 viewBox="0 0 512 512" style="enable-background:new 0 0 512 512;" xml:space="preserve">
<style type="text/css">
	.st0{fill:#8CDDFF;}
</style>
<title>my-telegram</title>
<path class="st0" d="M268,512.5c-7.7,0-15.3,0-23,0c-1-0.2-2-0.4-3.1-0.4c-25.5-1.4-50.2-6.4-74-15.3C111,475.3,66.8,438.3,35.7,386
	C17,354.5,5.8,320.3,2,283.8c-0.6-5.3-1-10.5-1.5-15.8c0-7.7,0-15.3,0-23c0.3-3.5,0.7-7.1,1-10.6c2.1-25,7.7-49.3,17.1-72.6
	C41.7,105,80.2,61.7,133.8,31.9C163.4,15.4,195.2,5.6,229,2c5.4-0.6,10.7-1,16.1-1.5c7.7,0,15.3,0,23,0c1,0.2,2,0.4,3.1,0.4
	c17.5,0.9,34.8,3.6,51.7,8.2c56.7,15.5,102.9,46.7,138.3,93.5c28.4,37.4,44.9,79.8,49.9,126.5c0.6,5.3,1,10.5,1.5,15.8
	c0,7.7,0,15.3,0,23c-0.2,1-0.4,2-0.4,3.1c-0.7,14.5-2.7,28.8-6,42.8c-16,66.3-52.3,118.6-109,156.5c-34.3,22.9-72.2,36.3-113.3,40.6
	C278.6,511.6,273.3,512,268,512.5z M40.6,256.5c0,119.3,96.5,215.8,215.9,215.9c119.2,0.2,215.8-96.4,216-215.8
	c0.2-119.3-96.7-216.2-216-216.1C137,40.7,40.6,137.2,40.6,256.5z"/>
<path class="st0" d="M321.1,352.3c20.8-6.5,38.6-16.6,51.6-33.8c-75.1,43.2-150.1,41.8-225.6-0.4c12.9,17.1,30.2,27,50.2,33.5
	c-2.7,3.4-5.1,6.4-7.5,9.5c-3.3,4.1-6.7,8.2-10,12.4c-1.2,1.5-2.5,2.1-4.5,2c-14.7-1.1-29.1-3.8-42.7-9.7c-16.4-7-30.4-17.2-41-31.7
	c-1-1.4-1.8-3.5-1.7-5.2c0.7-12.7,1.2-25.4,2.6-38c5.2-43.8,17.8-85.4,37.2-124.9c1.1-2.3,3-4.5,5.1-6
	c15.6-11.2,32.7-19.5,51.3-24.2c6-1.5,12.3-2.3,18.4-3.3c1.8-0.3,3.6-0.4,5.4-0.7c2.6-0.5,4,0.9,5.3,3.3
	c-27,8.2-52.5,19.2-74.6,36.9c0.1,0.2,0.2,0.4,0.3,0.7c1.6-0.8,3.1-1.5,4.7-2.3c17.8-9.3,36.6-15.9,56.2-20.2c9-2,18.3-3.2,27.6-4
	c11.6-1.1,23.3-1.9,34.9-1.9c9.7,0,19.4,1.2,29.1,2.4c27.3,3.6,53,12.3,77.3,25.1c0.4,0.2,0.9,0.4,1.5,0.3
	c-20.7-17-44.8-27.5-70.1-35.8c2.8-4.6,3.6-4.8,8.3-4.3c16.8,1.7,33,5.9,48.1,13.4c9.1,4.6,17.8,10.2,26.5,15.6
	c1.5,0.9,2.6,2.8,3.5,4.4c9.4,18.6,17.1,37.9,22.8,57.8c4.3,14.8,8,29.8,11.2,44.9c2,9.5,3.1,19.2,4.1,28.9
	c1.1,10.3,1.5,20.6,2.3,30.9c0.2,2.5-0.7,4.5-2.2,6.4c-11.6,15.4-26.8,25.9-44.6,32.8c-9.5,3.7-19.3,6.2-29.5,7.1
	c-3.5,0.3-6.9,0.9-10.4,1.2c-0.9,0.1-2.3-0.2-2.8-0.8C333.4,367.4,327.5,360.1,321.1,352.3z M204.6,304.7
	c9.8-0.2,17.2-4.1,22.9-11.3c5-6.3,6.9-13.6,7.4-21.5c0.5-7.7-1-14.5-5.8-20.5c-10.4-12.9-30.4-16.3-43.7-3.8
	c-10.9,10.3-13.6,27.9-6,41.3C185.1,298.9,193.6,304.4,204.6,304.7z M309.4,304.7c8.8,0,15-2.5,20.4-7.2
	c12.5-11.1,14.6-31.1,4.8-45.1c-10.8-15.4-31.7-17-44.7-3.2c-9,9.5-11.4,25-5.7,37.2C289.4,297.7,298.2,304.2,309.4,304.7z"/>
</svg>
