<?xml version="1.0" encoding="utf-8"?>
<!-- Generator: Adobe Illustrator 21.1.0, SVG Export Plug-In . SVG Version: 6.00 Build 0)  -->
<svg version="1.1" id="Слой_1" xmlns="http://www.w3.org/2000/svg" xmlns:xlink="http://www.w3.org/1999/xlink" x="0px" y="0px"
	 viewBox="0 0 512 512" style="enable-background:new 0 0 512 512;" xml:space="preserve">
<style type="text/css">
	.st0{fill:#8CDDFF;}
</style>
<title>mail-linkedin</title>
<path class="st0" d="M512,245.4V266c-0.9,9.4-1.5,18.8-2.7,28.2c-3.2,25.1-10.5,49.5-21.5,72.3c-12.5,26-29.4,49-49.6,69.6
	c-29.3,29.6-63.2,51.8-103.1,64.3c-16.2,5.1-32.8,8.5-49.7,10.1c-6.3,0.6-12.5,1.1-18.8,1.6H246c-0.6-0.1-1.3-0.2-1.9-0.3
	c-16.5-0.6-32.9-2.8-48.9-6.5c-32.8-7.7-63.6-22.2-90.4-42.6c-22.5-16.9-42.3-37.2-58.7-60c-13.9-19.1-24.8-40.2-32.5-62.6
	C7.8,323.7,4,306.9,2.2,289.8C1.3,281.9,0.7,273.9,0,266v-20.6c0.7-7.9,1.3-15.9,2.2-23.8c2-18.1,6.1-36,12.3-53.2
	c12-33.6,30.9-62.9,55.5-88.5c30.5-31.9,66.2-55.6,108.7-68.7c15.6-4.9,31.7-8.1,48-9.6c6.3-0.6,12.6-1.1,18.9-1.6h21.1
	c0.6,0.1,1.3,0.2,1.9,0.3c8.8,0.8,17.5,1.3,26.3,2.4c25.6,3.3,50.4,10.7,73.5,22.1c29.7,14.5,55.2,34.5,77.5,58.7
	c25.6,27.9,44.5,59.7,55.4,96.1c4.6,15.2,7.7,30.9,9.1,46.8C511,232.7,511.4,239.1,512,245.4z M271.4,218.2
	c-0.3-0.8-0.6-1.7-0.8-2.6c-0.8-5.8-1.8-11.6-2.3-17.4c-0.2-2.3-0.8-3.1-3.3-3.1c-12.8,0.1-25.6,0.1-38.4,0.1h-2.8v166.3h52.5
	c0-1.3,0-2.5,0-3.6c0-30.5,0-61,0-91.5c-0.1-5.4,0.8-10.7,2.8-15.7c4-9.9,10.5-16.5,21.5-17.8c12.6-1.5,23.1,2.6,27.2,16
	c1.7,5.6,2.6,11.4,2.7,17.2c0.3,23.7,0.1,47.5,0.2,71.2c0,8,0,16.1,0,24.3h52.2V358c0-31.8,0-63.6,0-95.4c0.1-8.8-0.9-17.6-3-26.2
	c-4.6-18.5-14.8-32.8-32.5-40.8c-10.1-4.6-20.9-5.3-31.9-4.3c-17.7,1.5-32.1,9-42.1,24.1C272.9,216.2,272.3,217,271.4,218.2z
	 M142,195.4v166h50.9v-166H142z M168.4,122.4c-20.4-0.7-34,18-27,37.1c1.7,4.9,5.3,8.9,10,11.1c8.6,4.1,17.6,4.1,26.6,2
	s14.9-7.7,16.3-17.1c0.6-4.4,0.8-8.8,0.4-13.2c-0.8-9.3-6.8-16-15.8-18.2C175.4,123.3,171.9,123,168.4,122.4z"/>
</svg>
