<?xml version="1.0" encoding="utf-8"?>
<!-- Generator: Adobe Illustrator 21.1.0, SVG Export Plug-In . SVG Version: 6.00 Build 0)  -->
<svg version="1.1" id="Слой_1" xmlns="http://www.w3.org/2000/svg" xmlns:xlink="http://www.w3.org/1999/xlink" x="0px" y="0px"
	 viewBox="0 0 506.3 504.6" style="enable-background:new 0 0 506.3 504.6;" xml:space="preserve">
<style type="text/css">
	.st0{fill:#8CDDFF;}
</style>
<title>my-phone</title>
<path class="st0" d="M156.3,160.8c0.2,1.1,0.3,2.1,0.6,3.1c2.5,9.7,5.6,19.2,9.1,28.6c3.8,10.1,8,20,12.7,29.8
	c4.9,10.2,10.3,20.1,16.1,29.7c5.9,9.7,12.2,19.1,19,28.2c7.3,9.7,15.1,19,23.4,27.9c11.5,12.4,23.9,23.8,37.2,34.2
	c9.8,7.7,20.1,14.8,30.8,21.2c4.5,2.6,9,5.2,13.5,7.8c0.7,0.4,1.5,0.8,2.5,1.2c1.2-2.8,2.3-5.5,3.5-8.1
	c6.2-14.6,14.5-28.2,24.6-40.4c5.7-6.8,11.9-13,19.3-17.9c4.1-2.7,8.3-5.1,13.3-5.8c2.9-0.4,6,0.1,8.6,1.5
	c5.8,3.1,11.3,6.6,16.5,10.7c9.9,7.5,19.3,15.8,28.1,24.6c10.1,10.1,19.6,20.8,27.6,32.8c4.7,7.1,9,14.3,11.8,22.5
	c1.5,4.2,2.3,8.7,2.5,13.1c0,3.1-0.4,6.1-1.4,9c-0.8,2.6-2.3,4.9-4.5,6.6c-7.8,6.5-15.5,13.1-23.3,19.6c-8.3,7-16.9,13.7-25.8,19.8
	c-6.2,4.3-12.9,7.9-20,10.7c-7.8,3-16.1,4.2-24.5,3.7c-9.2-0.6-17.9-3-26.5-6.3c-12.4-4.8-24.1-11-35.6-17.6
	c-13.6-7.8-26.8-16.2-39.9-24.8c-11.1-7.3-22-14.8-33.1-22c-7.1-4.7-13.9-10-20.2-15.7c-7.6-6.8-15.3-13.5-22.8-20.5
	c-12.4-11.6-24.1-24.1-34.9-37.2c-10.4-12.6-20-26-28.6-39.9c-6.1-10-11.6-20.2-16.8-30.7c-6.2-12.8-11.9-25.8-17-39.1
	c-5.7-14.9-11-30-16.6-45c-4.3-11.5-7-23.4-10.2-35.2c-1.9-7.1-3.7-14.2-5.4-21.4c-1.6-6.9-2.7-13.8-3.3-20.8
	C65,82.4,69.3,68,79.4,55.3c5.4-6.6,11.5-12.6,18.2-18c8-6.6,16.4-12.6,25.2-18.2C131.4,13.7,140,8.3,148.8,3
	c4.9-2.9,10.7-3.8,16.2-2.4c6.3,1.3,11.6,4.5,16.4,8.5c6.4,5.4,12,11.5,16.9,18.3c7.6,10.6,14.5,21.7,20.4,33.3
	c8.1,15.4,15.2,31.2,21.9,47.2c2.1,4.8,1.7,10.4-1.1,14.8c-1.8,3.1-4.2,5.9-6.9,8.2c-5.3,4.5-11.2,8.2-17.6,11.1
	c-6,2.7-12.2,5.3-18.4,7.6c-9.6,3.5-19.4,6.4-29.4,8.7C163.7,158.9,160.2,159.8,156.3,160.8z"/>
<path class="st0" d="M330,493.2c-4.6,1.3-9.2,2.7-13.9,3.7c-6.8,1.6-13.6,3.1-20.4,4.2c-8,1.2-16,2.2-24,2.8
	c-7.9,0.6-15.8,0.7-23.7,0.6c-11-0.1-21.9-1-32.7-2.6c-14.3-2-28.3-5.3-42-9.7c-7.1-2.3-14.1-5.2-21.1-7.9
	c-8.1-3.3-15.9-7-23.6-11.3c-8.1-4.4-15.9-9.2-23.4-14.5c-7.8-5.3-15.2-11.2-22.3-17.5c-5.2-4.6-10.2-9.5-15.1-14.4
	c-7.3-7.4-14.1-15.3-20.2-23.7c-5.6-7.6-10.8-15.4-15.6-23.6C25.4,368,19.7,356,15.1,343.6c-2.5-6.8-4.8-13.6-6.6-20.5
	c-2.2-8.4-4.2-16.9-5.6-25.5c-2.2-13.8-3.2-27.8-2.8-41.8c0.2-11.6,1.3-23.2,3.2-34.6c2.7-16.2,7.1-32,13.2-47.3
	c5.3-13.4,11.8-26.3,19.4-38.5c1.4-2.2,2.9-4.4,4.5-7c0.4,1.2,0.7,1.9,0.9,2.6c2.2,8.8,4.4,17.7,6.6,26.5c0.8,3.4,1.6,6.9,2.7,10.2
	c0.6,1.8,0.4,3.8-0.5,5.5c-4,8.5-7.3,17.2-10.1,26.1c-8.5,27.8-11.2,57.2-7.7,86.1c1.6,13,4.4,25.7,8.3,38.1
	c4.6,14.4,10.8,28.2,18.4,41.3c9.3,16.1,20.7,30.9,33.8,44c11.5,11.6,24.2,21.8,38,30.6c8.3,5.4,17,10.1,26,14.3
	c6.7,3,13.6,5.6,20.4,8.2c9.4,3.5,19,6.2,28.8,8.1c16.4,3.4,33.1,5,49.8,4.7c11.1-0.2,22.2-1.1,33.2-2.7c1.4-0.2,2.9,0,4.1,0.8
	c5.4,3.1,10.8,6.3,16.3,9.3c5.7,3,11.6,5.8,17.4,8.7c1.1,0.5,2.1,1.1,3.2,1.6L330,493.2z"/>
<path class="st0" d="M487.3,352.3c-1.3-1.7-2.4-3.2-3.5-4.7c-5.2-7.2-10.9-14-16.9-20.5c-1.2-1.1-1.6-2.9-1-4.5
	c3.1-9.4,5.4-19.1,7-28.9c2.3-14.6,3.1-29.5,2.3-44.2c-0.6-10.5-1.9-20.9-4-31.1c-3.2-15.5-8.2-30.6-14.9-45
	c-6.8-14.7-15.2-28.5-25.1-41.3c-8.4-10.9-17.9-20.9-28.2-30c-6.9-6.1-14.3-11.8-21.9-17.1c-18.3-12.5-38.4-22.2-59.6-28.8
	c-23.9-7.5-48.8-10.9-73.8-10.2c-1.5,0.2-2.8-0.6-3.4-2c-4.4-8.4-9.2-16.5-14.4-24.3c-0.3-0.5-0.7-1.1-0.9-1.7
	c-0.1-0.1,0-0.3,0.1-0.7c2.2-0.2,4.5-0.5,6.8-0.6c16.4-1.1,32.8-0.7,49.1,1.3c10.1,1.2,20.1,3,29.9,5.5c15.3,3.7,30.2,8.9,44.6,15.3
	c11,4.9,21.5,10.6,31.7,17c10.1,6.4,19.7,13.4,28.8,21.1c12,10.1,22.9,21.4,32.8,33.5c9.8,12,18.4,25,25.7,38.7
	c6,11.2,11,22.9,15.1,34.9c9.1,26.6,13.4,54.7,12.6,82.8c-0.3,12.3-1.6,24.6-3.9,36.7c-2.5,13.4-6.2,26.7-11,39.5
	c-1,2.7-2.1,5.4-3.2,8C487.9,351.5,487.6,351.9,487.3,352.3z"/>
</svg>
