<?xml version="1.0" encoding="utf-8"?>
<!-- Generator: Adobe Illustrator 21.1.0, SVG Export Plug-In . SVG Version: 6.00 Build 0)  -->
<svg version="1.1" id="Layer_1" xmlns="http://www.w3.org/2000/svg" xmlns:xlink="http://www.w3.org/1999/xlink" x="0px" y="0px"
	 viewBox="0 0 552.8 205.3" style="enable-background:new 0 0 552.8 205.3;" xml:space="preserve">
<style type="text/css">
	.st0{fill:#8CDDFF;}
	.st1{fill:#8CDDFF;stroke:#8CDDFF;stroke-width:3;stroke-miterlimit:10;}
	.st2{fill:#FFFFFF;}
</style>
<title>rs_school_js</title>
<g>
	<path class="st0" d="M34,57.8h2.4c2.4,0,4.8,0.7,6.8,2.1c1.5,1.1,3.1,3.4,5,6.9L63,94.3h31.4L81,68.4c-1.1-2-2.4-3.9-3.9-5.6
		c-1.3-1.7-2.7-3.3-4.4-4.7c-2.2-1.4-4.7-2.6-7.2-3.3c3.4-0.6,6.7-1.8,9.7-3.5c7.7-4.4,12.2-12.8,11.9-21.6
		c0.1-5.2-1.3-10.2-4.2-14.5C80.3,11.4,76.4,8.4,72,7c-4.5-1.5-11.1-2.2-19.6-2.2H6.3v89.4l27.7,0V57.8z M34,22.9h12.2
		c5,0,8.5,0.8,10.3,2.3c3.3,3.1,3.7,8.2,1,11.8c-1.1,1.5-2.7,2.5-4.5,2.8c-2.4,0.6-4.8,1-7.3,1.2H34V22.9z"/>
	<path class="st0" d="M351.8,41.9c-5.3-2.7-13.9-5.3-26-7.9c-4.9-1-8-2.1-9.3-3.3c-1.2-0.9-2-2.3-2-3.8c-0.1-2,0.9-3.8,2.4-5
		c1.6-1.3,4-2,7.2-2c3.9,0,6.9,0.9,9.2,2.8c2.3,1.9,3.7,4.8,4.4,8.8l26-1.5c-1.1-9.3-4.7-16.1-10.7-20.3c-6-4.3-14.7-6.4-26.1-6.4
		c-9.3,0-16.7,1.2-22,3.5c-4.9,1.9-9,5.3-12,9.6c-2.6,3.8-4,8.4-4,13c-0.2,6.7,2.7,13,7.8,17.3c5.1,4.6,13.8,8.2,25.9,10.9
		c7.4,1.6,12.1,3.4,14.1,5.2c1.9,1.5,3,3.8,3,6.2c0,2.5-1.2,4.9-3.2,6.4c-2.1,1.9-5.2,2.8-9.1,2.8c-5.3,0-9.3-1.8-12.2-5.4
		c-1.8-2.3-2.9-5.5-3.5-9.8l-26.3,1.7c0.7,9,4.2,16.4,10.1,22.3c5.9,5.9,16.4,8.8,31.6,8.8c8.6,0,15.8-1.3,21.5-3.8
		c5.4-2.3,10-6.1,13.3-11c3.2-4.7,4.8-10.3,4.8-15.9c0.1-4.7-1.1-9.3-3.5-13.3C360.9,47.9,357.1,44.5,351.8,41.9z"/>
	<path class="st0" d="M127.1,176.9c-2.7,2.9-6.7,4.4-12,4.4c-5.5,0-9.7-1.8-12.7-5.5s-4.5-10.5-4.5-20.4c0-8,1.3-13.9,3.8-17.6
		c3.3-5.1,8.1-7.6,14.4-7.6c2.6,0,5.2,0.5,7.5,1.7s4.2,2.8,5.7,4.9c1.2,1.8,2.1,3.9,2.7,6l24.4-5.4c-3.2-9.4-8-16.4-14.4-21
		c-6.5-4.5-15.3-6.8-26.6-6.8c-14.4,0-25.5,4-33.4,11.9c-2.1,2.1-4,4.5-5.5,7.2c-1.8-5.5-4.8-9.7-9-12.7c-6-4.3-14.7-6.4-26.1-6.4
		c-9.3,0-16.7,1.2-22,3.5c-4.9,1.9-9,5.3-12,9.6c-2.6,3.8-4,8.4-4,13c-0.2,6.7,2.7,13,7.8,17.3c5.1,4.6,13.8,8.2,25.9,10.9
		c7.5,1.6,12.2,3.4,14.2,5.2c1.9,1.5,3,3.8,3,6.2c0,2.5-1.2,4.8-3.2,6.4c-2.1,1.9-5.2,2.8-9.1,2.8c-5.3,0-9.4-1.9-12.2-5.5
		c-1.8-2.3-2.9-5.5-3.5-9.8L0,170.8c0.8,9,4.1,16.4,10,22.4c5.9,5.9,16.4,8.8,31.6,8.8c8.6,0,15.8-1.3,21.5-3.8
		c5.4-2.3,10-6.1,13.3-11c0.6-0.9,1.1-1.8,1.6-2.8c4.3,6.2,9.2,10.7,14.9,13.3c6.1,2.8,14.1,4.2,23.8,4.2c8,0,14.6-1.2,19.8-3.5
		c5.1-2.3,9.6-5.8,13-10.3c3.7-5.1,6.4-10.9,7.7-17l-24.2-7.3C131.8,169.4,129.8,173.7,127.1,176.9z M40.2,140.4
		c-4.9-1-8-2.1-9.3-3.3c-1.2-0.9-2-2.3-2-3.8c-0.1-2,0.8-3.8,2.4-5c1.6-1.4,4-2.1,7.2-2.1c3.9-0.1,7,0.8,9.2,2.7
		c2.3,1.9,3.7,4.8,4.4,8.8l20.8-1.2c-1.4,4.3-2.3,9-2.6,14.3c-1.3-0.9-2.6-1.7-4.1-2.5C60.9,145.6,52.3,143.1,40.2,140.4z"/>
	<path class="st0" d="M317.5,109.4c-14.5,0-25.9,4.1-34,12.2c-3.6,3.6-6.4,7.8-8.4,12.7V111h-27.8v31.3h-30.2V111h-27.6v89.4h27.6
		v-36.2h30.2v36.2h27.8V177c0.7,1.7,1.5,3.3,2.4,4.9c3.7,6.5,9.3,11.8,16.1,15.2c6.6,3.2,14.9,4.8,25,4.8c9.9,0,18.2-1.9,24.9-5.6
		c6.5-3.6,11.8-9,15.2-15.6c3.5-6.7,5.3-15.2,5.3-25.7c0-14.4-4-25.6-12.1-33.6S332.4,109.4,317.5,109.4z M331.4,175.4
		c-3.3,3.9-7.9,5.8-13.8,5.8c-5.8,0-10.4-2-13.7-5.9c-3.3-4-5-10.5-5-19.5c0-9.1,1.7-15.6,5.1-19.5s8.3-6.1,13.4-5.9
		c5.8,0,10.4,1.9,13.8,5.8c3.4,3.8,5.1,10,5.1,18.4C336.3,164.6,334.7,171.5,331.4,175.4z"/>
	<path class="st0" d="M509.7,178.4V111h-27.6H482v25c-2-5.7-5.1-10.5-9.1-14.5c-8-8-19.5-12-34.4-12c-14.5,0-25.9,4.1-34,12.2
		s-12.2,19.5-12.2,34.1c0,10.5,2.1,19.2,6.2,26.2c3.7,6.5,9.3,11.8,16.1,15.2c6.6,3.2,14.9,4.8,25,4.8c9.9,0,18.2-1.9,24.9-5.6
		c6.5-3.6,11.8-9,15.2-15.6c0.9-1.7,1.6-3.5,2.3-5.4v25.1h70.8v-22L509.7,178.4L509.7,178.4z M452.4,175.4
		c-3.3,3.9-7.9,5.8-13.8,5.8c-5.8,0-10.4-2-13.7-5.9c-3.3-4-5-10.5-5-19.5c0-9.1,1.7-15.6,5.1-19.5c3.3-3.9,8.3-6.1,13.4-5.9
		c5.8,0,10.4,1.9,13.8,5.8c3.4,3.8,5.1,10,5.1,18.4C457.3,164.6,455.7,171.5,452.4,175.4z"/>
</g>
<g>
	<path class="st1" d="M400.4,100.6l0.9-9.3c2.5,1,5.6,0.6,7.4-0.9c2.5-2.1,2.7-5.4,0.5-8l-17.3-20.5l7.8-6.6l18,21.2
		c5.4,6.3,4.5,14.7-2,20.2C411.5,100.2,405.1,101.9,400.4,100.6z"/>
	<path class="st1" d="M425.7,79.1l-0.1-9c5.2-0.1,9.9-1.5,13.7-4.8c2.9-2.5,3.4-5,2-6.6c-1.6-1.9-3.4-1-8.9,1.7
		c-8,4.2-14.6,6.6-19.9,0.3c-5.1-6-3.7-14.2,3.5-20.3c5.3-4.5,10.7-6.4,16.4-6.5l0.7,9c-4.7,0.2-8.9,1.8-11.8,4.3
		c-2.5,2.1-2.9,4.5-1.6,6.1c1.6,1.9,3.7,1.3,9.2-1.7c8.3-4.5,14.6-6.3,19.6-0.4c5.4,6.3,3.9,14.3-3.9,20.9
		C439,76.9,432.4,79.3,425.7,79.1z"/>
</g>
<path class="st2" d="M470.9,29c-17.2-22.8-53.7-24.4-81.5-3.5c-27.8,20.9-36.4,56.4-19.1,79.3c17.2,22.8,53.7,24.4,81.5,3.5
	C479.6,87.3,488.1,51.8,470.9,29z M446.1,100.8c-22.8,17.2-52.7,15.9-66.8-2.8c-14.1-18.7-7.1-47.8,15.7-65
	c22.8-17.2,52.7-15.9,66.8,2.8C475.9,54.6,468.9,83.6,446.1,100.8z"/>
</svg>
