<?xml version="1.0" encoding="utf-8"?>
<!-- Generator: Adobe Illustrator 21.1.0, SVG Export Plug-In . SVG Version: 6.00 Build 0)  -->
<svg version="1.1" id="Слой_1" xmlns="http://www.w3.org/2000/svg" xmlns:xlink="http://www.w3.org/1999/xlink" x="0px" y="0px"
	 viewBox="0 0 512 512" style="enable-background:new 0 0 512 512;" xml:space="preserve">
<style type="text/css">
	.st0{fill:#8CDDFF;}
</style>
<title>my-telegram</title>
<path class="st0" d="M32.5,6.4c149.1,0,297.9,0,447,0c-0.5,5.4-0.9,10.6-1.4,15.8c-1.2,13.4-2.4,26.7-3.5,40.1
	c-1.3,14.8-2.6,29.6-3.9,44.4c-1.2,13-2.3,26-3.4,39.1c-1.3,14.9-2.6,29.9-4,44.8c-1.1,13-2.3,26-3.4,39.1
	c-1.3,14.9-2.6,29.9-4,44.8c-1.1,13-2.3,25.9-3.4,38.9c-1.3,15-2.7,30-4,45c-1.2,13.2-2.3,26.3-3.5,39.5
	c-1.3,14.8-2.6,29.6-3.9,44.4c-0.3,3.2-0.6,6.4-0.8,9.6c-0.1,1.2-0.5,1.7-1.7,2.1c-50.6,14.4-101.1,28.8-151.7,43.3
	c-9.7,2.8-19.3,5.6-29,8.2c-1.2,0.3-2.6,0.3-3.7,0c-60.2-17.2-120.4-34.4-180.7-51.5c-1.1-0.3-1.5-0.7-1.6-1.9
	c-1-11.9-2.1-23.9-3.2-35.8c-1.3-14.9-2.6-29.7-3.9-44.6c-1.2-13-2.3-26-3.4-39.1c-1.3-14.9-2.6-29.9-4-44.8
	c-1.1-13-2.3-25.9-3.4-38.9c-1.3-15-2.7-30-4-45c-1.2-13.2-2.3-26.3-3.5-39.5c-1.3-14.8-2.6-29.6-3.9-44.4
	c-1.3-14.7-2.6-29.3-3.9-44c-1.3-14.8-2.6-29.6-3.9-44.4C34,23.3,33.3,15,32.5,6.4z M61.2,32.7c0.1,0.9,0.1,1.6,0.2,2.2
	c0.9,10.4,1.8,20.9,2.8,31.3c1.1,12.9,2.3,25.8,3.4,38.7c1.3,14.8,2.6,29.6,3.9,44.4c1.2,13.2,2.3,26.3,3.5,39.5c1.3,15,2.7,30,4,45
	c1.1,13,2.3,25.9,3.4,38.9c1.3,14.9,2.6,29.9,4,44.8c1.1,13,2.3,26,3.4,39.1c1.3,14.9,2.6,29.9,4,44.8c0.9,10,1.8,19.9,2.6,29.9
	c0.1,1.4,0.6,2.1,2,2.5c52,14.8,104,29.6,156,44.5c0.9,0.3,2.1,0.3,3,0.1c52.1-14.8,104.3-29.7,156.4-44.6c1.2-0.3,1.8-0.8,1.9-2.1
	c0.1-2.4,0.4-4.8,0.6-7.2c1.2-13.1,2.3-26.2,3.5-39.3c1.3-14.9,2.6-29.7,3.9-44.6c1.2-13.1,2.3-26.2,3.5-39.3
	c1.3-14.8,2.6-29.6,3.9-44.4c1.2-13.1,2.3-26.2,3.4-39.3c1.3-14.9,2.6-29.9,4-44.8c1.1-13,2.3-26,3.4-39.1c1.3-14.9,2.6-29.9,4-44.8
	c1.2-13.2,2.4-26.4,3.5-39.7c0.5-5.4,0.9-10.9,1.4-16.4C320.9,32.7,191.2,32.7,61.2,32.7z"/>
<path class="st0" d="M323.1,264.5c-42.2,0-84.1,0-126.4,0c-1-19.1-1.9-38.2-2.9-57.4c44.1,0,88,0,132.1,0
	c1.4-19.2,2.9-38.2,4.3-57.5c-66.1,0-132,0-198.2,0c-1.4-19.2-2.9-38.2-4.3-57.3c87.6,0,175.1,0,262.8,0c-0.2,3.3-0.3,6.6-0.5,9.8
	c-1.6,25.1-3.2,50.2-4.8,75.2c-1.3,20.7-2.5,41.4-3.8,62c-1.6,25.8-3.2,51.5-4.8,77.3c-1.1,17.9-2.2,35.8-3.2,53.8
	c-0.1,1.3-0.4,1.9-1.7,2.4c-36.8,12-73.5,24.1-110.3,36.2c-0.9,0.3-2.1,0.4-3,0.1c-36.9-12.1-73.8-24.2-110.7-36.3
	c-1.1-0.4-1.5-0.8-1.6-2c-1.2-22.5-2.4-45-3.6-67.4c-0.2-3.3-0.4-6.5-0.5-9.9c19.2,0,38.2,0,57.4,0c0.2,4.6,0.4,9.2,0.6,13.8
	c0.3,6.7,0.6,13.5,0.8,20.2c0,1.3,0.4,1.9,1.7,2.4c18.6,6.3,37.2,12.7,55.8,19c0.9,0.3,2.1,0.3,3,0c18.5-6.3,37-12.6,55.6-18.9
	c1.4-0.5,1.8-1.1,1.9-2.5c0.8-12.3,1.6-24.6,2.5-36.9C322,281.8,322.5,273.3,323.1,264.5z"/>
</svg>
