<?xml version="1.0" encoding="utf-8"?>
<!-- Generator: Adobe Illustrator 21.1.0, SVG Export Plug-In . SVG Version: 6.00 Build 0)  -->
<svg version="1.1" id="Слой_1" xmlns="http://www.w3.org/2000/svg" xmlns:xlink="http://www.w3.org/1999/xlink" x="0px" y="0px"
	 viewBox="0 0 512 512" style="enable-background:new 0 0 512 512;" xml:space="preserve">
<style type="text/css">
	.st0{fill:#8CDDFF;stroke:#8CDDFF;stroke-width:10;stroke-miterlimit:10;}
</style>
<title>my-telegram</title>
<path class="st0" d="M483.6,256.8c0,36.3-0.2,72.7,0.1,109c0.1,9.8-3.7,15.8-12.2,20.5c-68.9,38.4-137.6,77-206.4,115.7
	c-6.8,3.8-12.8,4-19.7,0.2c-68.7-38.7-137.5-77.3-206.4-115.7c-8.7-4.9-12.5-11-12.5-21.1c0.3-72.9,0.3-145.8,0-218.8
	c0-10.1,3.8-16.2,12.5-21.1c68.9-38.4,137.6-77,206.4-115.7c6.5-3.7,12.4-3.9,19-0.2c69.2,38.9,138.4,77.8,207.7,116.5
	c8.3,4.6,11.5,10.8,11.5,20.1C483.4,183.1,483.6,220,483.6,256.8z M154.2,184.9c33.4,17.7,65.4,34.8,97.6,51.5
	c2.1,1.1,6.1,0.4,8.5-0.8c13.9-7,27.6-14.4,41.3-21.7c17.8-9.4,35.6-18.9,54.1-28.7c-1.8-1.6-2.8-2.8-4.1-3.5
	c-30.9-18.6-61.8-37.3-92.8-55.5c-2.1-1.2-6.5-0.5-8.9,0.9c-29.7,17.5-59.3,35.3-88.8,53.1C159.2,181.3,157.4,182.7,154.2,184.9z
	 M270.8,378.3c2.3-1,3.3-1.2,4.2-1.7c29.8-17.9,59.7-35.6,89.3-53.8c2.6-1.6,4.9-6.1,5-9.2c0.4-30.9,0.2-61.8,0.2-92.7
	c0-1.9-0.5-3.8-0.8-6.3c-1.9,0.6-3.2,0.9-4.3,1.5c-29.8,15.8-59.7,31.4-89.3,47.5c-2.2,1.2-4,5.2-4.1,8c-0.4,13.7-0.2,27.5-0.2,41.3
	C270.8,334.2,270.8,355.7,270.8,378.3z M239.6,379c0-37.8,0.1-73.6-0.2-109.4c0-2.4-3-5.8-5.5-7.1c-28.1-15.2-56.3-30-84.5-44.9
	c-2.2-1.2-4.6-2.1-7.6-3.4c-0.3,2.9-0.7,4.9-0.7,6.8c0,30.9,0.1,61.8-0.2,92.7c0,5.4,2.6,7.8,6.6,10.2
	c19.2,11.4,38.3,22.9,57.5,34.4C216,364.9,227,371.5,239.6,379z M58.8,168.6c0,58.8,0,116.3,0,174.8c16.5-9,32-17.3,47.3-26.1
	c1.9-1.1,3.5-4.6,3.5-6.9c0.2-36.3,0.2-72.6,0-108.9c0-2.4-1.7-5.8-3.6-6.9C90.8,185.9,75.2,177.6,58.8,168.6z M451.6,343.4
	c0-58.8,0-116.3,0-174.8c-16.5,9-32,17.3-47.3,26c-1.9,1.1-3.5,4.5-3.6,6.9c-0.2,36.3-0.2,72.6,0,108.9c0,2.4,1.6,5.8,3.5,6.9
	C419.6,326.1,435.1,334.4,451.6,343.4z M435.9,141.6c-55.6-31.2-109.6-61.5-165.1-92.6c0,16.3-0.1,30.7,0.2,45.1
	c0,1.7,2.3,3.9,4.1,5c36.4,22,72.9,43.8,109.4,65.6c1.8,1.1,4.8,2.1,6.3,1.3C405.5,158.4,419.9,150.4,435.9,141.6z M270.8,463
	c55.7-31.3,109.6-61.5,165.1-92.6c-15.9-8.7-30.3-16.7-44.9-24.3c-1.7-0.9-5,0.3-7,1.5c-36.3,21.6-72.5,43.4-108.7,65.2
	c-1.9,1.2-4.3,3.7-4.3,5.7C270.6,432.7,270.8,446.9,270.8,463z M239.6,49C183.9,80.3,130,110.5,74.5,141.7
	c15.9,8.7,30.3,16.7,44.9,24.3c1.7,0.9,5-0.3,7-1.5c36.3-21.6,72.5-43.3,108.7-65.2c1.9-1.2,4.2-3.7,4.3-5.7
	C239.8,79.4,239.6,65.2,239.6,49z M239.6,463c0-16.3,0.1-30.7-0.2-45.1c0-1.7-2.3-3.9-4.1-5c-36.4-22-72.8-43.8-109.4-65.6
	c-1.8-1.1-4.8-2.1-6.3-1.3c-14.6,7.6-29.1,15.6-45.1,24.4C130.1,401.6,184.1,431.9,239.6,463z"/>
</svg>
