<?xml version="1.0" encoding="utf-8"?>
<!-- Generator: Adobe Illustrator 21.1.0, SVG Export Plug-In . SVG Version: 6.00 Build 0)  -->
<svg version="1.1" id="Слой_1" xmlns="http://www.w3.org/2000/svg" xmlns:xlink="http://www.w3.org/1999/xlink" x="0px" y="0px"
	 viewBox="0 0 512 512" style="enable-background:new 0 0 512 512;" xml:space="preserve">
<style type="text/css">
	.st0{fill:#8CDDFF;}
</style>
<title>my-telegram</title>
<path class="st0" d="M32.5,6.4c149.1,0,297.9,0,447,0c-0.5,5.4-0.9,10.6-1.4,15.8c-1.2,13.4-2.4,26.7-3.5,40.1
	c-1.3,14.8-2.6,29.6-3.9,44.4c-1.2,13-2.3,26-3.4,39.1c-1.3,14.9-2.6,29.9-4,44.8c-1.1,13-2.3,26-3.4,39.1
	c-1.3,14.9-2.6,29.9-4,44.8c-1.1,13-2.3,25.9-3.4,38.9c-1.3,15-2.7,30-4,45c-1.2,13.2-2.3,26.3-3.5,39.5
	c-1.3,14.8-2.6,29.6-3.9,44.4c-0.3,3.2-0.6,6.4-0.8,9.6c-0.1,1.2-0.5,1.7-1.7,2.1c-50.6,14.4-101.1,28.8-151.7,43.3
	c-9.7,2.8-19.3,5.6-29,8.2c-1.2,0.3-2.6,0.3-3.7,0c-60.2-17.2-120.4-34.4-180.7-51.5c-1.1-0.3-1.5-0.7-1.6-1.9
	c-1-11.9-2.1-23.9-3.2-35.8c-1.3-14.9-2.6-29.7-3.9-44.6c-1.2-13-2.3-26-3.4-39.1c-1.3-14.9-2.6-29.9-4-44.8
	c-1.1-13-2.3-25.9-3.4-38.9c-1.3-15-2.7-30-4-45c-1.2-13.2-2.3-26.3-3.5-39.5c-1.3-14.8-2.6-29.6-3.9-44.4
	c-1.3-14.7-2.6-29.3-3.9-44c-1.3-14.8-2.6-29.6-3.9-44.4C34,23.3,33.3,15,32.5,6.4z M61.2,32.7c0.1,0.9,0.1,1.6,0.2,2.2
	c0.9,10.4,1.8,20.9,2.8,31.3c1.1,12.9,2.3,25.8,3.4,38.7c1.3,14.8,2.6,29.6,3.9,44.4c1.2,13.2,2.3,26.3,3.5,39.5c1.3,15,2.7,30,4,45
	c1.1,13,2.3,25.9,3.4,38.9c1.3,14.9,2.6,29.9,4,44.8c1.1,13,2.3,26,3.4,39.1c1.3,14.9,2.6,29.9,4,44.8c0.9,10,1.8,19.9,2.6,29.9
	c0.1,1.4,0.6,2.1,2,2.5c52,14.8,104,29.6,156,44.5c0.9,0.3,2.1,0.3,3,0.1c52.1-14.8,104.3-29.7,156.4-44.6c1.2-0.3,1.8-0.8,1.9-2.1
	c0.1-2.4,0.4-4.8,0.6-7.2c1.2-13.1,2.3-26.2,3.5-39.3c1.3-14.9,2.6-29.7,3.9-44.6c1.2-13.1,2.3-26.2,3.5-39.3
	c1.3-14.8,2.6-29.6,3.9-44.4c1.2-13.1,2.3-26.2,3.4-39.3c1.3-14.9,2.6-29.9,4-44.8c1.1-13,2.3-26,3.4-39.1c1.3-14.9,2.6-29.9,4-44.8
	c1.2-13.2,2.4-26.4,3.5-39.7c0.5-5.4,0.9-10.9,1.4-16.4C320.9,32.7,191.2,32.7,61.2,32.7z"/>
<path class="st0" d="M353.8,283.1c-28.8,4.9-56.6,9.7-84.9,14.6c0-69,0-137.8,0-207c48.3,0,96.8,0,146,0
	c-1.4,15.9-2.7,31.8-4.1,48.3c-31.2,0-62,0-93.1,0c0,32.8,0,65.1,0,97.7c28.4-4,56.5-7.9,85.2-12c0,2.3,0.1,4.3,0,6.2
	c-3,35.9-6.1,71.7-9.2,107.6c-0.9,10.5-1.7,21.1-3,31.6c-0.2,1.8-2.1,4.4-3.7,4.9c-38.7,10.9-77.5,21.5-116.2,32.1
	c-0.6,0.2-1.2,0.1-2,0.2c0-18.4,0-36.6,0-55.6c10.2-2.8,20.4-5.7,30.7-8.6c15.3-4.2,30.5-8.4,45.8-12.4c4.1-1.1,6-2.8,6.2-7.3
	C351.9,310.1,352.9,296.9,353.8,283.1z"/>
<path class="st0" d="M113.6,371.4c-5.7-58.3-0.2-1.8-6-61.3c28.3,7.8,56.2,15.6,85,23.5c0-81.3,0-162.1,0-243.1
	c16.5,0,32.3,0,48.5,0c0,105.4,0,210.8,0,316.9C196.6,395.1,158.2,383.8,113.6,371.4z"/>
</svg>
